<?xml version="1.0" encoding="UTF-8" standalone="no"?><svg xmlns="http://www.w3.org/2000/svg" xmlns:xlink="http://www.w3.org/1999/xlink" clip-rule="evenodd" stroke-miterlimit="4.00" viewBox="0 0 1057 473"><desc>SVG generated by Keynote</desc><defs></defs><g transform="matrix(1.00, 0.00, -0.00, -1.00, 0.0, 473.0)"><g><clipPath id="clip-574"><path d="M 58.4 0.6 L 1056.4 0.6 L 1056.4 286.6 L 58.4 286.6 Z M 58.4 0.6 "></path></clipPath><g clip-path="url(#clip-574)"><image xlink:href="4F612E0FA7F64395E6C4A3DBB62CC4F1.png" width="998.00" height="286.00" transform="matrix(1.00, 0.00, -0.00, -1.00, 58.4, 286.6)" opacity="0.70"></image><image xlink:href="../../C12CB1AF-E6FD-45AA-9CE7-AC3767D5564F/assets/4C6B502B9AED140993AAE3E3A2BABF36.png" width="958.00" height="246.00" transform="matrix(1.00, 0.00, -0.00, -1.00, 78.0, 277.0)"></image></g></g><g><clipPath id="clip-575"><path d="M 692.9 459.6 L 635.5 164.8 L 610.0 169.8 L 667.3 464.6 Z M 692.9 459.6 "></path></clipPath><g clip-path="url(#clip-575)"><path d="M 0.0 0.0 L 274.3 0.0 L 277.3 0.0 " fill="none" stroke="#BD5A0C" stroke-width="6.00" transform="matrix(-0.19, -0.98, -0.98, 0.19, 679.9, 461.1)"></path><path d="M 615.7 194.1 L 622.9 168.3 L 639.3 189.6 Z M 615.7 194.1 " fill="#BD5A0C"></path></g></g><g><clipPath id="clip-576"><path d="M 686.8 449.7 L 309.9 257.2 L 298.1 280.4 L 675.0 472.8 Z M 686.8 449.7 "></path></clipPath><g clip-path="url(#clip-576)"><path d="M 0.0 0.0 L 397.2 0.0 L 400.2 0.0 " fill="none" stroke="#BD5A0C" stroke-width="6.00" transform="matrix(-0.89, -0.45, -0.45, 0.89, 680.0, 460.8)"></path><path d="M 320.8 290.9 L 304.9 269.3 L 331.7 269.5 Z M 320.8 290.9 " fill="#BD5A0C"></path></g></g><g><clipPath id="clip-577"><path d="M -0.5 270.8 L 448.0 270.8 L 448.0 413.3 L -0.5 413.3 Z M -0.5 270.8 "></path></clipPath><g clip-path="url(#clip-577)"><text xml:space="preserve" font-family="Cantarell-Oblique" font-style="italic" font-size="36.0" fill="#889AA4" transform="matrix(1.00, 0.00, -0.00, -1.00, 51.0, 363.0)">R</text><text xml:space="preserve" font-family="Cantarell-Oblique" font-style="italic" font-size="36.0" fill="#889AA4" transform="matrix(1.00, 0.00, -0.00, -1.00, 76.3, 363.0)">o</text><text xml:space="preserve" font-family="Cantarell-Oblique" font-style="italic" font-size="36.0" fill="#889AA4" transform="matrix(1.00, 0.00, -0.00, -1.00, 97.3, 363.0)">c</text><text xml:space="preserve" font-family="Cantarell-Oblique" font-style="italic" font-size="36.0" fill="#889AA4" transform="matrix(1.00, 0.00, -0.00, -1.00, 114.6, 363.0)">k</text><text xml:space="preserve" font-family="Cantarell-Oblique" font-style="italic" font-size="36.0" fill="#889AA4" transform="matrix(1.00, 0.00, -0.00, -1.00, 133.3, 363.0)">e</text><text xml:space="preserve" font-family="Cantarell-Oblique" font-style="italic" font-size="36.0" fill="#889AA4" transform="matrix(1.00, 0.00, -0.00, -1.00, 152.4, 363.0)">t</text><text xml:space="preserve" font-family="Cantarell-Oblique" font-style="italic" font-size="36.0" fill="#889AA4" transform="matrix(1.00, 0.00, -0.00, -1.00, 165.8, 363.0)">e</text><text xml:space="preserve" font-family="Cantarell-Oblique" font-style="italic" font-size="36.0" fill="#889AA4" transform="matrix(1.00, 0.00, -0.00, -1.00, 184.9, 363.0)">e</text><text xml:space="preserve" font-family="Cantarell-Oblique" font-style="italic" font-size="36.0" fill="#889AA4" transform="matrix(1.00, 0.00, -0.00, -1.00, 204.0, 363.0)">r</text><text xml:space="preserve" font-family="Cantarell-Oblique" font-style="italic" font-size="36.0" fill="#889AA4" transform="matrix(1.00, 0.00, -0.00, -1.00, 217.9, 363.0)"> </text><text xml:space="preserve" font-family="Cantarell-Oblique" font-style="italic" font-size="36.0" fill="#889AA4" transform="matrix(1.00, 0.00, -0.00, -1.00, 227.8, 363.0)">w</text><text xml:space="preserve" font-family="Cantarell-Oblique" font-style="italic" font-size="36.0" fill="#889AA4" transform="matrix(1.00, 0.00, -0.00, -1.00, 256.8, 363.0)">i</text><text xml:space="preserve" font-family="Cantarell-Oblique" font-style="italic" font-size="36.0" fill="#889AA4" transform="matrix(1.00, 0.00, -0.00, -1.00, 266.0, 363.0)">l</text><text xml:space="preserve" font-family="Cantarell-Oblique" font-style="italic" font-size="36.0" fill="#889AA4" transform="matrix(1.00, 0.00, -0.00, -1.00, 275.9, 363.0)">l</text><text xml:space="preserve" font-family="Cantarell-Oblique" font-style="italic" font-size="36.0" fill="#889AA4" transform="matrix(1.00, 0.00, -0.00, -1.00, 285.9, 363.0)"> </text><text xml:space="preserve" font-family="Cantarell-Oblique" font-style="italic" font-size="36.0" fill="#889AA4" transform="matrix(1.00, 0.00, -0.00, -1.00, 295.7, 363.0)">c</text><text xml:space="preserve" font-family="Cantarell-Oblique" font-style="italic" font-size="36.0" fill="#889AA4" transform="matrix(1.00, 0.00, -0.00, -1.00, 313.0, 363.0)">r</text><text xml:space="preserve" font-family="Cantarell-Oblique" font-style="italic" font-size="36.0" fill="#889AA4" transform="matrix(1.00, 0.00, -0.00, -1.00, 326.9, 363.0)">e</text><text xml:space="preserve" font-family="Cantarell-Oblique" font-style="italic" font-size="36.0" fill="#889AA4" transform="matrix(1.00, 0.00, -0.00, -1.00, 346.0, 363.0)">a</text><text xml:space="preserve" font-family="Cantarell-Oblique" font-style="italic" font-size="36.0" fill="#889AA4" transform="matrix(1.00, 0.00, -0.00, -1.00, 364.6, 363.0)">t</text><text xml:space="preserve" font-family="Cantarell-Oblique" font-style="italic" font-size="36.0" fill="#889AA4" transform="matrix(1.00, 0.00, -0.00, -1.00, 378.0, 363.0)">e</text><text xml:space="preserve" font-family="Cantarell-Oblique" font-style="italic" font-size="36.0" fill="#889AA4" transform="matrix(1.00, 0.00, -0.00, -1.00, 397.1, 363.0)"> </text><text xml:space="preserve" font-family="Cantarell-Oblique" font-style="italic" font-size="36.0" fill="#889AA4" transform="matrix(1.00, 0.00, -0.00, -1.00, 115.0, 311.0)">t</text><text xml:space="preserve" font-family="Cantarell-Oblique" font-style="italic" font-size="36.0" fill="#889AA4" transform="matrix(1.00, 0.00, -0.00, -1.00, 128.4, 311.0)">h</text><text xml:space="preserve" font-family="Cantarell-Oblique" font-style="italic" font-size="36.0" fill="#889AA4" transform="matrix(1.00, 0.00, -0.00, -1.00, 149.1, 311.0)">i</text><text xml:space="preserve" font-family="Cantarell-Oblique" font-style="italic" font-size="36.0" fill="#889AA4" transform="matrix(1.00, 0.00, -0.00, -1.00, 158.3, 311.0)">s</text><text xml:space="preserve" font-family="Cantarell-Oblique" font-style="italic" font-size="36.0" fill="#889AA4" transform="matrix(1.00, 0.00, -0.00, -1.00, 176.0, 311.0)"> </text><text xml:space="preserve" font-family="Cantarell-Oblique" font-style="italic" font-size="36.0" fill="#889AA4" transform="matrix(1.00, 0.00, -0.00, -1.00, 185.8, 311.0)">d</text><text xml:space="preserve" font-family="Cantarell-Oblique" font-style="italic" font-size="36.0" fill="#889AA4" transform="matrix(1.00, 0.00, -0.00, -1.00, 206.5, 311.0)">i</text><text xml:space="preserve" font-family="Cantarell-Oblique" font-style="italic" font-size="36.0" fill="#889AA4" transform="matrix(1.00, 0.00, -0.00, -1.00, 215.7, 311.0)">r</text><text xml:space="preserve" font-family="Cantarell-Oblique" font-style="italic" font-size="36.0" fill="#889AA4" transform="matrix(1.00, 0.00, -0.00, -1.00, 229.6, 311.0)">e</text><text xml:space="preserve" font-family="Cantarell-Oblique" font-style="italic" font-size="36.0" fill="#889AA4" transform="matrix(1.00, 0.00, -0.00, -1.00, 248.7, 311.0)">c</text><text xml:space="preserve" font-family="Cantarell-Oblique" font-style="italic" font-size="36.0" fill="#889AA4" transform="matrix(1.00, 0.00, -0.00, -1.00, 266.1, 311.0)">t</text><text xml:space="preserve" font-family="Cantarell-Oblique" font-style="italic" font-size="36.0" fill="#889AA4" transform="matrix(1.00, 0.00, -0.00, -1.00, 279.5, 311.0)">o</text><text xml:space="preserve" font-family="Cantarell-Oblique" font-style="italic" font-size="36.0" fill="#889AA4" transform="matrix(1.00, 0.00, -0.00, -1.00, 300.5, 311.0)">r</text><text xml:space="preserve" font-family="Cantarell-Oblique" font-style="italic" font-size="36.0" fill="#889AA4" transform="matrix(1.00, 0.00, -0.00, -1.00, 314.4, 311.0)">y</text></g></g></g></svg>