<?xml version="1.0" encoding="UTF-8" standalone="no"?><svg xmlns="http://www.w3.org/2000/svg" xmlns:xlink="http://www.w3.org/1999/xlink" clip-rule="evenodd" stroke-miterlimit="4.00" viewBox="0 0 1920 1080"><desc>SVG generated by Keynote</desc><defs></defs><g transform="matrix(1.00, 0.00, -0.00, -1.00, 0.0, 1080.0)"><g><clipPath id="clip-660"><path d="M 0.0 1080.0 L 1920.0 1080.0 L 1920.0 0.0 L 0.0 0.0 Z M 0.0 1080.0 "></path></clipPath><g clip-path="url(#clip-660)"><image xlink:href="../../897A5C31-F820-48DE-BEBB-1797AA7F40B4/assets/F2DDC097CA6F4B81B31813A2EE11057D.jpeg" width="1365.00" height="767.00" transform="matrix(1.41, 0.00, -0.00, -1.41, 0.0, 1080.0)"></image></g></g><g><clipPath id="clip-661"><path d="M 1764.6 46.4 L 1833.7 46.4 L 1833.7 115.5 L 1764.6 115.5 Z M 1764.6 46.4 "></path></clipPath><g clip-path="url(#clip-661)"><path d="M 1822.9 104.6 C 1836.0 91.5 1836.0 70.3 1822.9 57.2 C 1809.8 44.1 1788.5 44.1 1775.4 57.2 C 1762.3 70.3 1762.3 91.5 1775.4 104.6 C 1788.5 117.7 1809.8 117.7 1822.9 104.6 " fill="#889AA4"></path></g></g><g><clipPath id="clip-662"><path d="M 1796.8 62.2 L 1778.1 80.9 L 1796.8 99.5 L 1815.5 80.9 Z M 1796.8 62.2 "></path></clipPath><g clip-path="url(#clip-662)"><path d="M 1796.8 63.6 L 1791.8 68.6 L 1804.6 81.3 L 1792.3 93.6 L 1796.8 98.1 L 1814.1 80.9 Z M 1796.8 63.6 " fill="#FEFFFF"></path></g></g><g><clipPath id="clip-663"><path d="M 1679.0 46.4 L 1748.1 46.4 L 1748.1 115.5 L 1679.0 115.5 Z M 1679.0 46.4 "></path></clipPath><g clip-path="url(#clip-663)"><path d="M 1737.3 104.6 C 1750.4 91.5 1750.4 70.3 1737.3 57.2 C 1724.2 44.1 1702.9 44.1 1689.8 57.2 C 1676.7 70.3 1676.7 91.5 1689.8 104.6 C 1702.9 117.7 1724.2 117.7 1737.3 104.6 " fill="#889AA4"></path></g></g><g><clipPath id="clip-664"><path d="M 1714.8 99.5 L 1733.4 80.9 L 1714.8 62.2 L 1696.1 80.9 Z M 1714.8 99.5 "></path></clipPath><g clip-path="url(#clip-664)"><path d="M 1714.8 98.1 L 1719.7 93.2 L 1707.0 80.4 L 1719.3 68.1 L 1714.8 63.6 L 1697.5 80.9 Z M 1714.8 98.1 " fill="#FEFFFF"></path></g></g><g><clipPath id="clip-665"><path d="M 73.8 935.0 L 1846.2 935.0 L 1846.2 1031.0 L 73.8 1031.0 Z M 73.8 935.0 "></path></clipPath><g clip-path="url(#clip-665)"><text xml:space="preserve" font-family="Novecentosanswide-Medium" font-size="84.0" fill="#FEFFFF" transform="matrix(1.00, 0.00, -0.00, -1.00, 336.0, 945.0)">D</text><text xml:space="preserve" font-family="Novecentosanswide-Medium" font-size="84.0" fill="#FEFFFF" transform="matrix(1.00, 0.00, -0.00, -1.00, 394.7, 945.0)">E</text><text xml:space="preserve" font-family="Novecentosanswide-Medium" font-size="84.0" fill="#FEFFFF" transform="matrix(1.00, 0.00, -0.00, -1.00, 442.3, 945.0)">P</text><text xml:space="preserve" font-family="Novecentosanswide-Medium" font-size="84.0" fill="#FEFFFF" transform="matrix(1.00, 0.00, -0.00, -1.00, 488.6, 945.0)">L</text><text xml:space="preserve" font-family="Novecentosanswide-Medium" font-size="84.0" fill="#FEFFFF" transform="matrix(1.00, 0.00, -0.00, -1.00, 529.2, 945.0)">O</text><text xml:space="preserve" font-family="Novecentosanswide-Medium" font-size="84.0" fill="#FEFFFF" transform="matrix(1.00, 0.00, -0.00, -1.00, 589.0, 945.0)">Y</text><text xml:space="preserve" font-family="Novecentosanswide-Medium" font-size="84.0" fill="#FEFFFF" transform="matrix(1.00, 0.00, -0.00, -1.00, 642.6, 945.0)">M</text><text xml:space="preserve" font-family="Novecentosanswide-Medium" font-size="84.0" fill="#FEFFFF" transform="matrix(1.00, 0.00, -0.00, -1.00, 707.2, 945.0)">E</text><text xml:space="preserve" font-family="Novecentosanswide-Medium" font-size="84.0" fill="#FEFFFF" transform="matrix(1.00, 0.00, -0.00, -1.00, 754.8, 945.0)">N</text><text xml:space="preserve" font-family="Novecentosanswide-Medium" font-size="84.0" fill="#FEFFFF" transform="matrix(1.00, 0.00, -0.00, -1.00, 813.4, 945.0)">T</text><text xml:space="preserve" font-family="Novecentosanswide-Medium" font-size="84.0" fill="#FEFFFF" transform="matrix(1.00, 0.00, -0.00, -1.00, 864.4, 945.0)"> </text><text xml:space="preserve" font-family="Novecentosanswide-DemiBold" font-weight="bold" font-size="84.0" fill="#889AA4" transform="matrix(1.00, 0.00, -0.00, -1.00, 882.2, 945.0)">W</text><text xml:space="preserve" font-family="Novecentosanswide-DemiBold" font-weight="bold" font-size="84.0" fill="#889AA4" transform="matrix(1.00, 0.00, -0.00, -1.00, 966.0, 945.0)">I</text><text xml:space="preserve" font-family="Novecentosanswide-DemiBold" font-weight="bold" font-size="84.0" fill="#889AA4" transform="matrix(1.00, 0.00, -0.00, -1.00, 985.1, 945.0)">T</text><text xml:space="preserve" font-family="Novecentosanswide-DemiBold" font-weight="bold" font-size="84.0" fill="#889AA4" transform="matrix(1.00, 0.00, -0.00, -1.00, 1036.6, 945.0)">H</text><text xml:space="preserve" font-family="Novecentosanswide-DemiBold" font-weight="bold" font-size="84.0" fill="#889AA4" transform="matrix(1.00, 0.00, -0.00, -1.00, 1093.3, 945.0)"> </text><text xml:space="preserve" font-family="Novecentosanswide-DemiBold" font-weight="bold" font-size="84.0" fill="#889AA4" transform="matrix(1.00, 0.00, -0.00, -1.00, 1111.2, 945.0)">R</text><text xml:space="preserve" font-family="Novecentosanswide-DemiBold" font-weight="bold" font-size="84.0" fill="#889AA4" transform="matrix(1.00, 0.00, -0.00, -1.00, 1160.4, 945.0)">O</text><text xml:space="preserve" font-family="Novecentosanswide-DemiBold" font-weight="bold" font-size="84.0" fill="#889AA4" transform="matrix(1.00, 0.00, -0.00, -1.00, 1224.6, 945.0)">C</text><text xml:space="preserve" font-family="Novecentosanswide-DemiBold" font-weight="bold" font-size="84.0" fill="#889AA4" transform="matrix(1.00, 0.00, -0.00, -1.00, 1285.0, 945.0)">K</text><text xml:space="preserve" font-family="Novecentosanswide-DemiBold" font-weight="bold" font-size="84.0" fill="#889AA4" transform="matrix(1.00, 0.00, -0.00, -1.00, 1339.5, 945.0)">E</text><text xml:space="preserve" font-family="Novecentosanswide-DemiBold" font-weight="bold" font-size="84.0" fill="#889AA4" transform="matrix(1.00, 0.00, -0.00, -1.00, 1387.5, 945.0)">T</text><text xml:space="preserve" font-family="Novecentosanswide-DemiBold" font-weight="bold" font-size="84.0" fill="#889AA4" transform="matrix(1.00, 0.00, -0.00, -1.00, 1439.0, 945.0)">E</text><text xml:space="preserve" font-family="Novecentosanswide-DemiBold" font-weight="bold" font-size="84.0" fill="#889AA4" transform="matrix(1.00, 0.00, -0.00, -1.00, 1487.0, 945.0)">E</text><text xml:space="preserve" font-family="Novecentosanswide-DemiBold" font-weight="bold" font-size="84.0" fill="#889AA4" transform="matrix(1.00, 0.00, -0.00, -1.00, 1535.0, 945.0)">R</text></g></g><g><clipPath id="clip-666"><path d="M 673.7 803.2 L 1246.3 803.2 L 1246.3 878.8 L 673.7 878.8 Z M 673.7 803.2 "></path></clipPath><g clip-path="url(#clip-666)"><text xml:space="preserve" font-family="Cantarell-Regular" font-size="36.0" fill="#DCDDE0" transform="matrix(1.00, 0.00, -0.00, -1.00, 880.0, 828.0)">4</text><text xml:space="preserve" font-family="Cantarell-Regular" font-size="36.0" fill="#DCDDE0" transform="matrix(1.00, 0.00, -0.00, -1.00, 902.8, 828.0)">)</text><text xml:space="preserve" font-family="Cantarell-Regular" font-size="36.0" fill="#DCDDE0" transform="matrix(1.00, 0.00, -0.00, -1.00, 915.9, 828.0)"> </text><text xml:space="preserve" font-family="Cantarell-Regular" font-size="36.0" fill="#DCDDE0" transform="matrix(1.00, 0.00, -0.00, -1.00, 925.8, 828.0)">D</text><text xml:space="preserve" font-family="Cantarell-Regular" font-size="36.0" fill="#DCDDE0" transform="matrix(1.00, 0.00, -0.00, -1.00, 954.0, 828.0)">e</text><text xml:space="preserve" font-family="Cantarell-Regular" font-size="36.0" fill="#DCDDE0" transform="matrix(1.00, 0.00, -0.00, -1.00, 973.4, 828.0)">p</text><text xml:space="preserve" font-family="Cantarell-Regular" font-size="36.0" fill="#DCDDE0" transform="matrix(1.00, 0.00, -0.00, -1.00, 994.1, 828.0)">l</text><text xml:space="preserve" font-family="Cantarell-Regular" font-size="36.0" fill="#DCDDE0" transform="matrix(1.00, 0.00, -0.00, -1.00, 1004.0, 828.0)">o</text><text xml:space="preserve" font-family="Cantarell-Regular" font-size="36.0" fill="#DCDDE0" transform="matrix(1.00, 0.00, -0.00, -1.00, 1025.3, 828.0)">y</text><text xml:space="preserve" font-family="Cantarell-Regular" font-size="36.0" fill="#DCDDE0" transform="matrix(1.00, 0.00, -0.00, -1.00, 1043.9, 828.0)">!</text></g></g><g><clipPath id="clip-667"><path d="M 9.4 -21.5 L 1910.6 -21.5 L 1910.6 801.1 L 9.4 801.1 Z M 9.4 -21.5 "></path></clipPath><g clip-path="url(#clip-667)"><image xlink:href="../../C622C125-6A68-4532-9825-E30D73449FBF/assets/23E9F1BC8EDD6789BC84AF70C7F9B9F0.png" width="960.00" height="415.00" transform="matrix(1.98, 0.00, -0.00, -1.98, 9.0, 801.0)"></image></g></g></g></svg>