<?xml version="1.0" encoding="UTF-8" standalone="no"?><svg xmlns="http://www.w3.org/2000/svg" xmlns:xlink="http://www.w3.org/1999/xlink" clip-rule="evenodd" stroke-miterlimit="4.00" viewBox="0 0 1548 199"><desc>SVG generated by Keynote</desc><defs></defs><g transform="matrix(1.00, 0.00, -0.00, -1.00, 0.0, 199.0)"><g><clipPath id="clip-614"><path d="M 0.1 0.7 L 1547.5 0.7 L 1547.5 132.6 L 0.1 132.6 Z M 0.1 0.7 "></path></clipPath><g clip-path="url(#clip-614)"><image xlink:href="5B3F2ACB661C281634C9844DC62F7B90.png" width="961.00" height="82.00" transform="matrix(1.61, 0.00, -0.00, -1.61, 0.0, 133.0)"></image></g></g><g><clipPath id="clip-615"><path d="M 125.7 95.2 L 1360.4 95.2 L 1360.4 199.0 L 125.7 199.0 Z M 125.7 95.2 "></path></clipPath><g clip-path="url(#clip-615)"><text xml:space="preserve" font-family="Cantarell-Oblique" font-style="italic" font-size="36.0" fill="#889AA4" transform="matrix(1.00, 0.00, -0.00, -1.00, 245.0, 149.0)">O</text><text xml:space="preserve" font-family="Cantarell-Oblique" font-style="italic" font-size="36.0" fill="#889AA4" transform="matrix(1.00, 0.00, -0.00, -1.00, 274.6, 149.0)">m</text><text xml:space="preserve" font-family="Cantarell-Oblique" font-style="italic" font-size="36.0" fill="#889AA4" transform="matrix(1.00, 0.00, -0.00, -1.00, 304.7, 149.0)">i</text><text xml:space="preserve" font-family="Cantarell-Oblique" font-style="italic" font-size="36.0" fill="#889AA4" transform="matrix(1.00, 0.00, -0.00, -1.00, 314.0, 149.0)">t</text><text xml:space="preserve" font-family="Cantarell-Oblique" font-style="italic" font-size="36.0" fill="#889AA4" transform="matrix(1.00, 0.00, -0.00, -1.00, 327.3, 149.0)">t</text><text xml:space="preserve" font-family="Cantarell-Oblique" font-style="italic" font-size="36.0" fill="#889AA4" transform="matrix(1.00, 0.00, -0.00, -1.00, 340.7, 149.0)">e</text><text xml:space="preserve" font-family="Cantarell-Oblique" font-style="italic" font-size="36.0" fill="#889AA4" transform="matrix(1.00, 0.00, -0.00, -1.00, 359.9, 149.0)">d</text><text xml:space="preserve" font-family="Cantarell-Oblique" font-style="italic" font-size="36.0" fill="#889AA4" transform="matrix(1.00, 0.00, -0.00, -1.00, 380.5, 149.0)"> </text><text xml:space="preserve" font-family="Cantarell-Oblique" font-style="italic" font-size="36.0" fill="#889AA4" transform="matrix(1.00, 0.00, -0.00, -1.00, 390.4, 149.0)">d</text><text xml:space="preserve" font-family="Cantarell-Oblique" font-style="italic" font-size="36.0" fill="#889AA4" transform="matrix(1.00, 0.00, -0.00, -1.00, 411.0, 149.0)">a</text><text xml:space="preserve" font-family="Cantarell-Oblique" font-style="italic" font-size="36.0" fill="#889AA4" transform="matrix(1.00, 0.00, -0.00, -1.00, 429.6, 149.0)">t</text><text xml:space="preserve" font-family="Cantarell-Oblique" font-style="italic" font-size="36.0" fill="#889AA4" transform="matrix(1.00, 0.00, -0.00, -1.00, 443.0, 149.0)">a</text><text xml:space="preserve" font-family="Cantarell-Oblique" font-style="italic" font-size="36.0" fill="#889AA4" transform="matrix(1.00, 0.00, -0.00, -1.00, 461.5, 149.0)"> </text><text xml:space="preserve" font-family="Cantarell-Oblique" font-style="italic" font-size="36.0" fill="#889AA4" transform="matrix(1.00, 0.00, -0.00, -1.00, 471.4, 149.0)">c</text><text xml:space="preserve" font-family="Cantarell-Oblique" font-style="italic" font-size="36.0" fill="#889AA4" transform="matrix(1.00, 0.00, -0.00, -1.00, 488.7, 149.0)">a</text><text xml:space="preserve" font-family="Cantarell-Oblique" font-style="italic" font-size="36.0" fill="#889AA4" transform="matrix(1.00, 0.00, -0.00, -1.00, 507.3, 149.0)">n</text><text xml:space="preserve" font-family="Cantarell-Oblique" font-style="italic" font-size="36.0" fill="#889AA4" transform="matrix(1.00, 0.00, -0.00, -1.00, 527.7, 149.0)"> </text><text xml:space="preserve" font-family="Cantarell-Oblique" font-style="italic" font-size="36.0" fill="#889AA4" transform="matrix(1.00, 0.00, -0.00, -1.00, 537.6, 149.0)">b</text><text xml:space="preserve" font-family="Cantarell-Oblique" font-style="italic" font-size="36.0" fill="#889AA4" transform="matrix(1.00, 0.00, -0.00, -1.00, 558.1, 149.0)">e</text><text xml:space="preserve" font-family="Cantarell-Oblique" font-style="italic" font-size="36.0" fill="#889AA4" transform="matrix(1.00, 0.00, -0.00, -1.00, 577.3, 149.0)"> </text><text xml:space="preserve" font-family="Cantarell-Oblique" font-style="italic" font-size="36.0" fill="#889AA4" transform="matrix(1.00, 0.00, -0.00, -1.00, 587.1, 149.0)">s</text><text xml:space="preserve" font-family="Cantarell-Oblique" font-style="italic" font-size="36.0" fill="#889AA4" transform="matrix(1.00, 0.00, -0.00, -1.00, 604.8, 149.0)">u</text><text xml:space="preserve" font-family="Cantarell-Oblique" font-style="italic" font-size="36.0" fill="#889AA4" transform="matrix(1.00, 0.00, -0.00, -1.00, 625.2, 149.0)">p</text><text xml:space="preserve" font-family="Cantarell-Oblique" font-style="italic" font-size="36.0" fill="#889AA4" transform="matrix(1.00, 0.00, -0.00, -1.00, 645.7, 149.0)">p</text><text xml:space="preserve" font-family="Cantarell-Oblique" font-style="italic" font-size="36.0" fill="#889AA4" transform="matrix(1.00, 0.00, -0.00, -1.00, 666.1, 149.0)">l</text><text xml:space="preserve" font-family="Cantarell-Oblique" font-style="italic" font-size="36.0" fill="#889AA4" transform="matrix(1.00, 0.00, -0.00, -1.00, 676.0, 149.0)">i</text><text xml:space="preserve" font-family="Cantarell-Oblique" font-style="italic" font-size="36.0" fill="#889AA4" transform="matrix(1.00, 0.00, -0.00, -1.00, 685.3, 149.0)">e</text><text xml:space="preserve" font-family="Cantarell-Oblique" font-style="italic" font-size="36.0" fill="#889AA4" transform="matrix(1.00, 0.00, -0.00, -1.00, 704.4, 149.0)">d</text><text xml:space="preserve" font-family="Cantarell-Oblique" font-style="italic" font-size="36.0" fill="#889AA4" transform="matrix(1.00, 0.00, -0.00, -1.00, 725.0, 149.0)"> </text><text xml:space="preserve" font-family="Cantarell-Oblique" font-style="italic" font-size="36.0" fill="#889AA4" transform="matrix(1.00, 0.00, -0.00, -1.00, 734.9, 149.0)">a</text><text xml:space="preserve" font-family="Cantarell-Oblique" font-style="italic" font-size="36.0" fill="#889AA4" transform="matrix(1.00, 0.00, -0.00, -1.00, 753.5, 149.0)">t</text><text xml:space="preserve" font-family="Cantarell-Oblique" font-style="italic" font-size="36.0" fill="#889AA4" transform="matrix(1.00, 0.00, -0.00, -1.00, 766.8, 149.0)"> </text><text xml:space="preserve" font-family="Cantarell-Oblique" font-style="italic" font-size="36.0" fill="#889AA4" transform="matrix(1.00, 0.00, -0.00, -1.00, 776.7, 149.0)">r</text><text xml:space="preserve" font-family="Cantarell-Oblique" font-style="italic" font-size="36.0" fill="#889AA4" transform="matrix(1.00, 0.00, -0.00, -1.00, 790.6, 149.0)">u</text><text xml:space="preserve" font-family="Cantarell-Oblique" font-style="italic" font-size="36.0" fill="#889AA4" transform="matrix(1.00, 0.00, -0.00, -1.00, 811.0, 149.0)">n</text><text xml:space="preserve" font-family="Cantarell-Oblique" font-style="italic" font-size="36.0" fill="#889AA4" transform="matrix(1.00, 0.00, -0.00, -1.00, 831.5, 149.0)">t</text><text xml:space="preserve" font-family="Cantarell-Oblique" font-style="italic" font-size="36.0" fill="#889AA4" transform="matrix(1.00, 0.00, -0.00, -1.00, 844.9, 149.0)">i</text><text xml:space="preserve" font-family="Cantarell-Oblique" font-style="italic" font-size="36.0" fill="#889AA4" transform="matrix(1.00, 0.00, -0.00, -1.00, 854.1, 149.0)">m</text><text xml:space="preserve" font-family="Cantarell-Oblique" font-style="italic" font-size="36.0" fill="#889AA4" transform="matrix(1.00, 0.00, -0.00, -1.00, 884.2, 149.0)">e</text><text xml:space="preserve" font-family="Cantarell-Oblique" font-style="italic" font-size="36.0" fill="#889AA4" transform="matrix(1.00, 0.00, -0.00, -1.00, 903.3, 149.0)"> </text><text xml:space="preserve" font-family="Cantarell-Oblique" font-style="italic" font-size="36.0" fill="#889AA4" transform="matrix(1.00, 0.00, -0.00, -1.00, 913.2, 149.0)">a</text><text xml:space="preserve" font-family="Cantarell-Oblique" font-style="italic" font-size="36.0" fill="#889AA4" transform="matrix(1.00, 0.00, -0.00, -1.00, 931.7, 149.0)">n</text><text xml:space="preserve" font-family="Cantarell-Oblique" font-style="italic" font-size="36.0" fill="#889AA4" transform="matrix(1.00, 0.00, -0.00, -1.00, 952.2, 149.0)">d</text><text xml:space="preserve" font-family="Cantarell-Oblique" font-style="italic" font-size="36.0" fill="#889AA4" transform="matrix(1.00, 0.00, -0.00, -1.00, 972.8, 149.0)"> </text><text xml:space="preserve" font-family="Cantarell-Oblique" font-style="italic" font-size="36.0" fill="#889AA4" transform="matrix(1.00, 0.00, -0.00, -1.00, 982.7, 149.0)">i</text><text xml:space="preserve" font-family="Cantarell-Oblique" font-style="italic" font-size="36.0" fill="#889AA4" transform="matrix(1.00, 0.00, -0.00, -1.00, 991.9, 149.0)">s</text><text xml:space="preserve" font-family="Cantarell-Oblique" font-style="italic" font-size="36.0" fill="#889AA4" transform="matrix(1.00, 0.00, -0.00, -1.00, 1009.5, 149.0)"> </text><text xml:space="preserve" font-family="Cantarell-Oblique" font-style="italic" font-size="36.0" fill="#889AA4" transform="matrix(1.00, 0.00, -0.00, -1.00, 1019.4, 149.0)">s</text><text xml:space="preserve" font-family="Cantarell-Oblique" font-style="italic" font-size="36.0" fill="#889AA4" transform="matrix(1.00, 0.00, -0.00, -1.00, 1037.0, 149.0)">t</text><text xml:space="preserve" font-family="Cantarell-Oblique" font-style="italic" font-size="36.0" fill="#889AA4" transform="matrix(1.00, 0.00, -0.00, -1.00, 1050.4, 149.0)">o</text><text xml:space="preserve" font-family="Cantarell-Oblique" font-style="italic" font-size="36.0" fill="#889AA4" transform="matrix(1.00, 0.00, -0.00, -1.00, 1071.4, 149.0)">r</text><text xml:space="preserve" font-family="Cantarell-Oblique" font-style="italic" font-size="36.0" fill="#889AA4" transform="matrix(1.00, 0.00, -0.00, -1.00, 1085.3, 149.0)">e</text><text xml:space="preserve" font-family="Cantarell-Oblique" font-style="italic" font-size="36.0" fill="#889AA4" transform="matrix(1.00, 0.00, -0.00, -1.00, 1104.4, 149.0)">d</text><text xml:space="preserve" font-family="Cantarell-Oblique" font-style="italic" font-size="36.0" fill="#889AA4" transform="matrix(1.00, 0.00, -0.00, -1.00, 1125.1, 149.0)"> </text><text xml:space="preserve" font-family="Cantarell-Oblique" font-style="italic" font-size="36.0" fill="#889AA4" transform="matrix(1.00, 0.00, -0.00, -1.00, 1134.9, 149.0)">l</text><text xml:space="preserve" font-family="Cantarell-Oblique" font-style="italic" font-size="36.0" fill="#889AA4" transform="matrix(1.00, 0.00, -0.00, -1.00, 1144.9, 149.0)">o</text><text xml:space="preserve" font-family="Cantarell-Oblique" font-style="italic" font-size="36.0" fill="#889AA4" transform="matrix(1.00, 0.00, -0.00, -1.00, 1165.9, 149.0)">c</text><text xml:space="preserve" font-family="Cantarell-Oblique" font-style="italic" font-size="36.0" fill="#889AA4" transform="matrix(1.00, 0.00, -0.00, -1.00, 1183.2, 149.0)">a</text><text xml:space="preserve" font-family="Cantarell-Oblique" font-style="italic" font-size="36.0" fill="#889AA4" transform="matrix(1.00, 0.00, -0.00, -1.00, 1201.8, 149.0)">l</text><text xml:space="preserve" font-family="Cantarell-Oblique" font-style="italic" font-size="36.0" fill="#889AA4" transform="matrix(1.00, 0.00, -0.00, -1.00, 1211.7, 149.0)">l</text><text xml:space="preserve" font-family="Cantarell-Oblique" font-style="italic" font-size="36.0" fill="#889AA4" transform="matrix(1.00, 0.00, -0.00, -1.00, 1221.6, 149.0)">y</text></g></g></g></svg>