<?xml version="1.0" encoding="UTF-8" standalone="no"?><svg xmlns="http://www.w3.org/2000/svg" xmlns:xlink="http://www.w3.org/1999/xlink" clip-rule="evenodd" stroke-miterlimit="4.00" viewBox="0 0 1247 65"><desc>SVG generated by Keynote</desc><defs></defs><g transform="matrix(1.00, 0.00, -0.00, -1.00, 0.0, 65.0)"><g><clipPath id="clip-524"><path d="M 0.0 0.0 L 1247.0 0.0 L 1247.0 65.0 L 0.0 65.0 Z M 0.0 0.0 "></path></clipPath><g clip-path="url(#clip-524)"><text xml:space="preserve" font-family="Novecentosanswide-Medium" font-size="84.0" fill="#FEFFFF" transform="matrix(1.00, 0.00, -0.00, -1.00, -4.0, 3.0)">D</text><text xml:space="preserve" font-family="Novecentosanswide-Medium" font-size="84.0" fill="#FEFFFF" transform="matrix(1.00, 0.00, -0.00, -1.00, 54.7, 3.0)">E</text><text xml:space="preserve" font-family="Novecentosanswide-Medium" font-size="84.0" fill="#FEFFFF" transform="matrix(1.00, 0.00, -0.00, -1.00, 102.3, 3.0)">P</text><text xml:space="preserve" font-family="Novecentosanswide-Medium" font-size="84.0" fill="#FEFFFF" transform="matrix(1.00, 0.00, -0.00, -1.00, 148.6, 3.0)">L</text><text xml:space="preserve" font-family="Novecentosanswide-Medium" font-size="84.0" fill="#FEFFFF" transform="matrix(1.00, 0.00, -0.00, -1.00, 189.2, 3.0)">O</text><text xml:space="preserve" font-family="Novecentosanswide-Medium" font-size="84.0" fill="#FEFFFF" transform="matrix(1.00, 0.00, -0.00, -1.00, 249.0, 3.0)">Y</text><text xml:space="preserve" font-family="Novecentosanswide-Medium" font-size="84.0" fill="#FEFFFF" transform="matrix(1.00, 0.00, -0.00, -1.00, 302.6, 3.0)">M</text><text xml:space="preserve" font-family="Novecentosanswide-Medium" font-size="84.0" fill="#FEFFFF" transform="matrix(1.00, 0.00, -0.00, -1.00, 367.2, 3.0)">E</text><text xml:space="preserve" font-family="Novecentosanswide-Medium" font-size="84.0" fill="#FEFFFF" transform="matrix(1.00, 0.00, -0.00, -1.00, 414.8, 3.0)">N</text><text xml:space="preserve" font-family="Novecentosanswide-Medium" font-size="84.0" fill="#FEFFFF" transform="matrix(1.00, 0.00, -0.00, -1.00, 473.4, 3.0)">T</text><text xml:space="preserve" font-family="Novecentosanswide-Medium" font-size="84.0" fill="#FEFFFF" transform="matrix(1.00, 0.00, -0.00, -1.00, 524.4, 3.0)"> </text><text xml:space="preserve" font-family="Novecentosanswide-DemiBold" font-weight="bold" font-size="84.0" fill="#889AA4" transform="matrix(1.00, 0.00, -0.00, -1.00, 542.2, 3.0)">W</text><text xml:space="preserve" font-family="Novecentosanswide-DemiBold" font-weight="bold" font-size="84.0" fill="#889AA4" transform="matrix(1.00, 0.00, -0.00, -1.00, 626.0, 3.0)">I</text><text xml:space="preserve" font-family="Novecentosanswide-DemiBold" font-weight="bold" font-size="84.0" fill="#889AA4" transform="matrix(1.00, 0.00, -0.00, -1.00, 645.1, 3.0)">T</text><text xml:space="preserve" font-family="Novecentosanswide-DemiBold" font-weight="bold" font-size="84.0" fill="#889AA4" transform="matrix(1.00, 0.00, -0.00, -1.00, 696.6, 3.0)">H</text><text xml:space="preserve" font-family="Novecentosanswide-DemiBold" font-weight="bold" font-size="84.0" fill="#889AA4" transform="matrix(1.00, 0.00, -0.00, -1.00, 753.3, 3.0)"> </text><text xml:space="preserve" font-family="Novecentosanswide-DemiBold" font-weight="bold" font-size="84.0" fill="#889AA4" transform="matrix(1.00, 0.00, -0.00, -1.00, 771.2, 3.0)">R</text><text xml:space="preserve" font-family="Novecentosanswide-DemiBold" font-weight="bold" font-size="84.0" fill="#889AA4" transform="matrix(1.00, 0.00, -0.00, -1.00, 820.4, 3.0)">O</text><text xml:space="preserve" font-family="Novecentosanswide-DemiBold" font-weight="bold" font-size="84.0" fill="#889AA4" transform="matrix(1.00, 0.00, -0.00, -1.00, 884.6, 3.0)">C</text><text xml:space="preserve" font-family="Novecentosanswide-DemiBold" font-weight="bold" font-size="84.0" fill="#889AA4" transform="matrix(1.00, 0.00, -0.00, -1.00, 945.0, 3.0)">K</text><text xml:space="preserve" font-family="Novecentosanswide-DemiBold" font-weight="bold" font-size="84.0" fill="#889AA4" transform="matrix(1.00, 0.00, -0.00, -1.00, 999.5, 3.0)">E</text><text xml:space="preserve" font-family="Novecentosanswide-DemiBold" font-weight="bold" font-size="84.0" fill="#889AA4" transform="matrix(1.00, 0.00, -0.00, -1.00, 1047.5, 3.0)">T</text><text xml:space="preserve" font-family="Novecentosanswide-DemiBold" font-weight="bold" font-size="84.0" fill="#889AA4" transform="matrix(1.00, 0.00, -0.00, -1.00, 1099.0, 3.0)">E</text><text xml:space="preserve" font-family="Novecentosanswide-DemiBold" font-weight="bold" font-size="84.0" fill="#889AA4" transform="matrix(1.00, 0.00, -0.00, -1.00, 1147.0, 3.0)">E</text><text xml:space="preserve" font-family="Novecentosanswide-DemiBold" font-weight="bold" font-size="84.0" fill="#889AA4" transform="matrix(1.00, 0.00, -0.00, -1.00, 1195.0, 3.0)">R</text></g></g></g></svg>