<?xml version="1.0" encoding="UTF-8" standalone="no"?><svg xmlns="http://www.w3.org/2000/svg" xmlns:xlink="http://www.w3.org/1999/xlink" clip-rule="evenodd" stroke-miterlimit="4.00" viewBox="0 0 1920 1080"><desc>SVG generated by Keynote</desc><defs></defs><g transform="matrix(1.00, 0.00, -0.00, -1.00, 0.0, 1080.0)"><g><clipPath id="clip-530"><path d="M 0.0 1080.0 L 1920.0 1080.0 L 1920.0 0.0 L 0.0 0.0 Z M 0.0 1080.0 "></path></clipPath><g clip-path="url(#clip-530)"><image xlink:href="../../897A5C31-F820-48DE-BEBB-1797AA7F40B4/assets/F2DDC097CA6F4B81B31813A2EE11057D.jpeg" width="1365.00" height="767.00" transform="matrix(1.41, 0.00, -0.00, -1.41, 0.0, 1080.0)"></image></g></g><g><clipPath id="clip-531"><path d="M 1764.6 46.4 L 1833.7 46.4 L 1833.7 115.5 L 1764.6 115.5 Z M 1764.6 46.4 "></path></clipPath><g clip-path="url(#clip-531)"><path d="M 1822.9 104.6 C 1836.0 91.5 1836.0 70.3 1822.9 57.2 C 1809.8 44.1 1788.5 44.1 1775.4 57.2 C 1762.3 70.3 1762.3 91.5 1775.4 104.6 C 1788.5 117.7 1809.8 117.7 1822.9 104.6 " fill="#889AA4"></path></g></g><g><clipPath id="clip-532"><path d="M 1796.8 62.2 L 1778.1 80.9 L 1796.8 99.5 L 1815.5 80.9 Z M 1796.8 62.2 "></path></clipPath><g clip-path="url(#clip-532)"><path d="M 1796.8 63.6 L 1791.8 68.6 L 1804.6 81.3 L 1792.3 93.6 L 1796.8 98.1 L 1814.1 80.9 Z M 1796.8 63.6 " fill="#FEFFFF"></path></g></g><g><clipPath id="clip-533"><path d="M 1679.0 46.4 L 1748.1 46.4 L 1748.1 115.5 L 1679.0 115.5 Z M 1679.0 46.4 "></path></clipPath><g clip-path="url(#clip-533)"><path d="M 1737.3 104.6 C 1750.4 91.5 1750.4 70.3 1737.3 57.2 C 1724.2 44.1 1702.9 44.1 1689.8 57.2 C 1676.7 70.3 1676.7 91.5 1689.8 104.6 C 1702.9 117.7 1724.2 117.7 1737.3 104.6 " fill="#889AA4"></path></g></g><g><clipPath id="clip-534"><path d="M 1714.8 99.5 L 1733.4 80.9 L 1714.8 62.2 L 1696.1 80.9 Z M 1714.8 99.5 "></path></clipPath><g clip-path="url(#clip-534)"><path d="M 1714.8 98.1 L 1719.7 93.2 L 1707.0 80.4 L 1719.3 68.1 L 1714.8 63.6 L 1697.5 80.9 Z M 1714.8 98.1 " fill="#FEFFFF"></path></g></g><g><clipPath id="clip-535"><path d="M 73.8 935.0 L 1846.2 935.0 L 1846.2 1031.0 L 73.8 1031.0 Z M 73.8 935.0 "></path></clipPath><g clip-path="url(#clip-535)"><text xml:space="preserve" font-family="Novecentosanswide-Medium" font-size="84.0" fill="#FEFFFF" transform="matrix(1.00, 0.00, -0.00, -1.00, 336.0, 945.0)">D</text><text xml:space="preserve" font-family="Novecentosanswide-Medium" font-size="84.0" fill="#FEFFFF" transform="matrix(1.00, 0.00, -0.00, -1.00, 394.7, 945.0)">E</text><text xml:space="preserve" font-family="Novecentosanswide-Medium" font-size="84.0" fill="#FEFFFF" transform="matrix(1.00, 0.00, -0.00, -1.00, 442.3, 945.0)">P</text><text xml:space="preserve" font-family="Novecentosanswide-Medium" font-size="84.0" fill="#FEFFFF" transform="matrix(1.00, 0.00, -0.00, -1.00, 488.6, 945.0)">L</text><text xml:space="preserve" font-family="Novecentosanswide-Medium" font-size="84.0" fill="#FEFFFF" transform="matrix(1.00, 0.00, -0.00, -1.00, 529.2, 945.0)">O</text><text xml:space="preserve" font-family="Novecentosanswide-Medium" font-size="84.0" fill="#FEFFFF" transform="matrix(1.00, 0.00, -0.00, -1.00, 589.0, 945.0)">Y</text><text xml:space="preserve" font-family="Novecentosanswide-Medium" font-size="84.0" fill="#FEFFFF" transform="matrix(1.00, 0.00, -0.00, -1.00, 642.6, 945.0)">M</text><text xml:space="preserve" font-family="Novecentosanswide-Medium" font-size="84.0" fill="#FEFFFF" transform="matrix(1.00, 0.00, -0.00, -1.00, 707.2, 945.0)">E</text><text xml:space="preserve" font-family="Novecentosanswide-Medium" font-size="84.0" fill="#FEFFFF" transform="matrix(1.00, 0.00, -0.00, -1.00, 754.8, 945.0)">N</text><text xml:space="preserve" font-family="Novecentosanswide-Medium" font-size="84.0" fill="#FEFFFF" transform="matrix(1.00, 0.00, -0.00, -1.00, 813.4, 945.0)">T</text><text xml:space="preserve" font-family="Novecentosanswide-Medium" font-size="84.0" fill="#FEFFFF" transform="matrix(1.00, 0.00, -0.00, -1.00, 864.4, 945.0)"> </text><text xml:space="preserve" font-family="Novecentosanswide-DemiBold" font-weight="bold" font-size="84.0" fill="#889AA4" transform="matrix(1.00, 0.00, -0.00, -1.00, 882.2, 945.0)">W</text><text xml:space="preserve" font-family="Novecentosanswide-DemiBold" font-weight="bold" font-size="84.0" fill="#889AA4" transform="matrix(1.00, 0.00, -0.00, -1.00, 966.0, 945.0)">I</text><text xml:space="preserve" font-family="Novecentosanswide-DemiBold" font-weight="bold" font-size="84.0" fill="#889AA4" transform="matrix(1.00, 0.00, -0.00, -1.00, 985.1, 945.0)">T</text><text xml:space="preserve" font-family="Novecentosanswide-DemiBold" font-weight="bold" font-size="84.0" fill="#889AA4" transform="matrix(1.00, 0.00, -0.00, -1.00, 1036.6, 945.0)">H</text><text xml:space="preserve" font-family="Novecentosanswide-DemiBold" font-weight="bold" font-size="84.0" fill="#889AA4" transform="matrix(1.00, 0.00, -0.00, -1.00, 1093.3, 945.0)"> </text><text xml:space="preserve" font-family="Novecentosanswide-DemiBold" font-weight="bold" font-size="84.0" fill="#889AA4" transform="matrix(1.00, 0.00, -0.00, -1.00, 1111.2, 945.0)">R</text><text xml:space="preserve" font-family="Novecentosanswide-DemiBold" font-weight="bold" font-size="84.0" fill="#889AA4" transform="matrix(1.00, 0.00, -0.00, -1.00, 1160.4, 945.0)">O</text><text xml:space="preserve" font-family="Novecentosanswide-DemiBold" font-weight="bold" font-size="84.0" fill="#889AA4" transform="matrix(1.00, 0.00, -0.00, -1.00, 1224.6, 945.0)">C</text><text xml:space="preserve" font-family="Novecentosanswide-DemiBold" font-weight="bold" font-size="84.0" fill="#889AA4" transform="matrix(1.00, 0.00, -0.00, -1.00, 1285.0, 945.0)">K</text><text xml:space="preserve" font-family="Novecentosanswide-DemiBold" font-weight="bold" font-size="84.0" fill="#889AA4" transform="matrix(1.00, 0.00, -0.00, -1.00, 1339.5, 945.0)">E</text><text xml:space="preserve" font-family="Novecentosanswide-DemiBold" font-weight="bold" font-size="84.0" fill="#889AA4" transform="matrix(1.00, 0.00, -0.00, -1.00, 1387.5, 945.0)">T</text><text xml:space="preserve" font-family="Novecentosanswide-DemiBold" font-weight="bold" font-size="84.0" fill="#889AA4" transform="matrix(1.00, 0.00, -0.00, -1.00, 1439.0, 945.0)">E</text><text xml:space="preserve" font-family="Novecentosanswide-DemiBold" font-weight="bold" font-size="84.0" fill="#889AA4" transform="matrix(1.00, 0.00, -0.00, -1.00, 1487.0, 945.0)">E</text><text xml:space="preserve" font-family="Novecentosanswide-DemiBold" font-weight="bold" font-size="84.0" fill="#889AA4" transform="matrix(1.00, 0.00, -0.00, -1.00, 1535.0, 945.0)">R</text></g></g><text xml:space="preserve" font-family="Cantarell-Regular" font-size="52.0" fill="#889AA4" transform="matrix(1.00, 0.00, -0.00, -1.00, 773.0, 878.0)">G</text><text xml:space="preserve" font-family="Cantarell-Regular" font-size="52.0" fill="#889AA4" transform="matrix(1.00, 0.00, -0.00, -1.00, 813.4, 878.0)">e</text><text xml:space="preserve" font-family="Cantarell-Regular" font-size="52.0" fill="#889AA4" transform="matrix(1.00, 0.00, -0.00, -1.00, 841.4, 878.0)">t</text><text xml:space="preserve" font-family="Cantarell-Regular" font-size="52.0" fill="#889AA4" transform="matrix(1.00, 0.00, -0.00, -1.00, 861.1, 878.0)">t</text><text xml:space="preserve" font-family="Cantarell-Regular" font-size="52.0" fill="#889AA4" transform="matrix(1.00, 0.00, -0.00, -1.00, 880.8, 878.0)">i</text><text xml:space="preserve" font-family="Cantarell-Regular" font-size="52.0" fill="#889AA4" transform="matrix(1.00, 0.00, -0.00, -1.00, 894.1, 878.0)">n</text><text xml:space="preserve" font-family="Cantarell-Regular" font-size="52.0" fill="#889AA4" transform="matrix(1.00, 0.00, -0.00, -1.00, 923.9, 878.0)">g</text><text xml:space="preserve" font-family="Cantarell-Regular" font-size="52.0" fill="#889AA4" transform="matrix(1.00, 0.00, -0.00, -1.00, 953.8, 878.0)"> </text><text xml:space="preserve" font-family="Cantarell-Regular" font-size="52.0" fill="#889AA4" transform="matrix(1.00, 0.00, -0.00, -1.00, 968.1, 878.0)">S</text><text xml:space="preserve" font-family="Cantarell-Regular" font-size="52.0" fill="#889AA4" transform="matrix(1.00, 0.00, -0.00, -1.00, 1002.6, 878.0)">t</text><text xml:space="preserve" font-family="Cantarell-Regular" font-size="52.0" fill="#889AA4" transform="matrix(1.00, 0.00, -0.00, -1.00, 1022.3, 878.0)">a</text><text xml:space="preserve" font-family="Cantarell-Regular" font-size="52.0" fill="#889AA4" transform="matrix(1.00, 0.00, -0.00, -1.00, 1049.4, 878.0)">r</text><text xml:space="preserve" font-family="Cantarell-Regular" font-size="52.0" fill="#889AA4" transform="matrix(1.00, 0.00, -0.00, -1.00, 1069.8, 878.0)">t</text><text xml:space="preserve" font-family="Cantarell-Regular" font-size="52.0" fill="#889AA4" transform="matrix(1.00, 0.00, -0.00, -1.00, 1089.5, 878.0)">e</text><text xml:space="preserve" font-family="Cantarell-Regular" font-size="52.0" fill="#889AA4" transform="matrix(1.00, 0.00, -0.00, -1.00, 1117.5, 878.0)">d</text><g><clipPath id="clip-536"><path d="M 725.5 225.8 L 1122.5 225.8 L 1122.5 324.5 L 725.5 324.5 Z M 725.5 225.8 "></path></clipPath><g clip-path="url(#clip-536)"><image xlink:href="../../1CFCED18-BC2F-465C-BE14-A63A12180832/assets/31BCF324743FD60122FC10402D82D52F.png" width="397.00" height="99.00" transform="matrix(1.00, 0.00, -0.00, -1.00, 725.5, 324.5)" opacity="0.70"></image><image xlink:href="../../1CFCED18-BC2F-465C-BE14-A63A12180832/assets/CC499D22EC70A3D16A2918DE7BF1D866.png" width="280.00" height="46.00" transform="matrix(1.27, 0.00, -0.00, -1.26, 746.0, 314.0)"></image></g></g><g><clipPath id="clip-537"><path d="M 676.7 314.3 L 874.8 314.3 L 874.8 390.0 L 676.7 390.0 Z M 676.7 314.3 "></path></clipPath><g clip-path="url(#clip-537)"><text xml:space="preserve" font-family="Cantarell-Regular" font-size="36.0" fill="#DCDDE0" transform="matrix(1.00, 0.00, -0.00, -1.00, 735.0, 340.0)">R</text><text xml:space="preserve" font-family="Cantarell-Regular" font-size="36.0" fill="#DCDDE0" transform="matrix(1.00, 0.00, -0.00, -1.00, 760.3, 340.0)">u</text><text xml:space="preserve" font-family="Cantarell-Regular" font-size="36.0" fill="#DCDDE0" transform="matrix(1.00, 0.00, -0.00, -1.00, 781.0, 340.0)">n</text><text xml:space="preserve" font-family="Cantarell-Regular" font-size="36.0" fill="#DCDDE0" transform="matrix(1.00, 0.00, -0.00, -1.00, 801.6, 340.0)">…</text></g></g><g><clipPath id="clip-538"><path d="M 779.4 176.6 L 1243.3 176.6 L 1243.3 252.3 L 779.4 252.3 Z M 779.4 176.6 "></path></clipPath><g clip-path="url(#clip-538)"><text xml:space="preserve" font-family="Cantarell-Regular" font-size="36.0" fill="#DCDDE0" transform="matrix(1.00, 0.00, -0.00, -1.00, 839.0, 202.0)">…</text><text xml:space="preserve" font-family="Cantarell-Regular" font-size="36.0" fill="#DCDDE0" transform="matrix(1.00, 0.00, -0.00, -1.00, 869.2, 202.0)"> </text><text xml:space="preserve" font-family="Cantarell-Regular" font-size="36.0" fill="#DCDDE0" transform="matrix(1.00, 0.00, -0.00, -1.00, 879.1, 202.0)">i</text><text xml:space="preserve" font-family="Cantarell-Regular" font-size="36.0" fill="#DCDDE0" transform="matrix(1.00, 0.00, -0.00, -1.00, 888.3, 202.0)">n</text><text xml:space="preserve" font-family="Cantarell-Regular" font-size="36.0" fill="#DCDDE0" transform="matrix(1.00, 0.00, -0.00, -1.00, 909.0, 202.0)"> </text><text xml:space="preserve" font-family="Cantarell-Regular" font-size="36.0" fill="#DCDDE0" transform="matrix(1.00, 0.00, -0.00, -1.00, 918.8, 202.0)">y</text><text xml:space="preserve" font-family="Cantarell-Regular" font-size="36.0" fill="#DCDDE0" transform="matrix(1.00, 0.00, -0.00, -1.00, 937.5, 202.0)">o</text><text xml:space="preserve" font-family="Cantarell-Regular" font-size="36.0" fill="#DCDDE0" transform="matrix(1.00, 0.00, -0.00, -1.00, 958.8, 202.0)">u</text><text xml:space="preserve" font-family="Cantarell-Regular" font-size="36.0" fill="#DCDDE0" transform="matrix(1.00, 0.00, -0.00, -1.00, 979.5, 202.0)">r</text><text xml:space="preserve" font-family="Cantarell-Regular" font-size="36.0" fill="#DCDDE0" transform="matrix(1.00, 0.00, -0.00, -1.00, 993.5, 202.0)"> </text><text xml:space="preserve" font-family="Cantarell-Regular" font-size="36.0" fill="#DCDDE0" transform="matrix(1.00, 0.00, -0.00, -1.00, 1003.4, 202.0)">p</text><text xml:space="preserve" font-family="Cantarell-Regular" font-size="36.0" fill="#DCDDE0" transform="matrix(1.00, 0.00, -0.00, -1.00, 1024.1, 202.0)">r</text><text xml:space="preserve" font-family="Cantarell-Regular" font-size="36.0" fill="#DCDDE0" transform="matrix(1.00, 0.00, -0.00, -1.00, 1038.2, 202.0)">o</text><text xml:space="preserve" font-family="Cantarell-Regular" font-size="36.0" fill="#DCDDE0" transform="matrix(1.00, 0.00, -0.00, -1.00, 1059.5, 202.0)">j</text><text xml:space="preserve" font-family="Cantarell-Regular" font-size="36.0" fill="#DCDDE0" transform="matrix(1.00, 0.00, -0.00, -1.00, 1068.7, 202.0)">e</text><text xml:space="preserve" font-family="Cantarell-Regular" font-size="36.0" fill="#DCDDE0" transform="matrix(1.00, 0.00, -0.00, -1.00, 1088.0, 202.0)">c</text><text xml:space="preserve" font-family="Cantarell-Regular" font-size="36.0" fill="#DCDDE0" transform="matrix(1.00, 0.00, -0.00, -1.00, 1105.6, 202.0)">t</text><text xml:space="preserve" font-family="Cantarell-Regular" font-size="36.0" fill="#DCDDE0" transform="matrix(1.00, 0.00, -0.00, -1.00, 1119.3, 202.0)"> </text><text xml:space="preserve" font-family="Cantarell-Regular" font-size="36.0" fill="#DCDDE0" transform="matrix(1.00, 0.00, -0.00, -1.00, 1129.2, 202.0)">r</text><text xml:space="preserve" font-family="Cantarell-Regular" font-size="36.0" fill="#DCDDE0" transform="matrix(1.00, 0.00, -0.00, -1.00, 1143.2, 202.0)">o</text><text xml:space="preserve" font-family="Cantarell-Regular" font-size="36.0" fill="#DCDDE0" transform="matrix(1.00, 0.00, -0.00, -1.00, 1164.6, 202.0)">o</text><text xml:space="preserve" font-family="Cantarell-Regular" font-size="36.0" fill="#DCDDE0" transform="matrix(1.00, 0.00, -0.00, -1.00, 1185.9, 202.0)">t</text></g></g><g><clipPath id="clip-539"><path d="M 414.3 669.1 L 1505.7 669.1 L 1505.7 744.7 L 414.3 744.7 Z M 414.3 669.1 "></path></clipPath><g clip-path="url(#clip-539)"><text xml:space="preserve" font-family="Cantarell-Regular" font-size="36.0" fill="#DCDDE0" transform="matrix(1.00, 0.00, -0.00, -1.00, 848.0, 694.0)">G</text><text xml:space="preserve" font-family="Cantarell-Regular" font-size="36.0" fill="#DCDDE0" transform="matrix(1.00, 0.00, -0.00, -1.00, 876.0, 694.0)">e</text><text xml:space="preserve" font-family="Cantarell-Regular" font-size="36.0" fill="#DCDDE0" transform="matrix(1.00, 0.00, -0.00, -1.00, 895.3, 694.0)">t</text><text xml:space="preserve" font-family="Cantarell-Regular" font-size="36.0" fill="#DCDDE0" transform="matrix(1.00, 0.00, -0.00, -1.00, 909.0, 694.0)"> </text><text xml:space="preserve" font-family="Cantarell-Regular" font-size="36.0" fill="#DCDDE0" transform="matrix(1.00, 0.00, -0.00, -1.00, 918.9, 694.0)">R</text><text xml:space="preserve" font-family="Cantarell-Regular" font-size="36.0" fill="#DCDDE0" transform="matrix(1.00, 0.00, -0.00, -1.00, 944.1, 694.0)">o</text><text xml:space="preserve" font-family="Cantarell-Regular" font-size="36.0" fill="#DCDDE0" transform="matrix(1.00, 0.00, -0.00, -1.00, 965.4, 694.0)">c</text><text xml:space="preserve" font-family="Cantarell-Regular" font-size="36.0" fill="#DCDDE0" transform="matrix(1.00, 0.00, -0.00, -1.00, 983.0, 694.0)">k</text><text xml:space="preserve" font-family="Cantarell-Regular" font-size="36.0" fill="#DCDDE0" transform="matrix(1.00, 0.00, -0.00, -1.00, 1001.9, 694.0)">e</text><text xml:space="preserve" font-family="Cantarell-Regular" font-size="36.0" fill="#DCDDE0" transform="matrix(1.00, 0.00, -0.00, -1.00, 1021.2, 694.0)">t</text><text xml:space="preserve" font-family="Cantarell-Regular" font-size="36.0" fill="#DCDDE0" transform="matrix(1.00, 0.00, -0.00, -1.00, 1034.9, 694.0)">e</text><text xml:space="preserve" font-family="Cantarell-Regular" font-size="36.0" fill="#DCDDE0" transform="matrix(1.00, 0.00, -0.00, -1.00, 1054.3, 694.0)">e</text><text xml:space="preserve" font-family="Cantarell-Regular" font-size="36.0" fill="#DCDDE0" transform="matrix(1.00, 0.00, -0.00, -1.00, 1073.6, 694.0)">r</text></g></g><g><clipPath id="clip-540"><path d="M 313.4 458.0 L 1606.6 458.0 L 1606.6 672.8 L 313.4 672.8 Z M 313.4 458.0 "></path></clipPath><g clip-path="url(#clip-540)"><image xlink:href="../../1CFCED18-BC2F-465C-BE14-A63A12180832/assets/957437E147460C4AD275C779C17A6254.png" width="1293.00" height="215.00" transform="matrix(1.00, 0.00, -0.00, -1.00, 313.4, 672.8)" opacity="0.70"></image><image xlink:href="../../1CFCED18-BC2F-465C-BE14-A63A12180832/assets/CE6C9F6EA7513CFEE9892E3AC9E5103C.png" width="946.00" height="132.00" transform="matrix(1.33, 0.00, -0.00, -1.33, 333.0, 663.0)"></image></g></g></g></svg>