<?xml version="1.0" encoding="UTF-8" standalone="no"?><svg xmlns="http://www.w3.org/2000/svg" xmlns:xlink="http://www.w3.org/1999/xlink" clip-rule="evenodd" stroke-miterlimit="4.00" viewBox="0 0 1920 1080"><desc>SVG generated by Keynote</desc><defs></defs><g transform="matrix(1.00, 0.00, -0.00, -1.00, 0.0, 1080.0)"><g><clipPath id="clip-541"><path d="M 0.0 1080.0 L 1920.0 1080.0 L 1920.0 0.0 L 0.0 0.0 Z M 0.0 1080.0 "></path></clipPath><g clip-path="url(#clip-541)"><image xlink:href="../../897A5C31-F820-48DE-BEBB-1797AA7F40B4/assets/F2DDC097CA6F4B81B31813A2EE11057D.jpeg" width="1365.00" height="767.00" transform="matrix(1.41, 0.00, -0.00, -1.41, 0.0, 1080.0)"></image></g></g><g><clipPath id="clip-542"><path d="M 1764.6 46.4 L 1833.7 46.4 L 1833.7 115.5 L 1764.6 115.5 Z M 1764.6 46.4 "></path></clipPath><g clip-path="url(#clip-542)"><path d="M 1822.9 104.6 C 1836.0 91.5 1836.0 70.3 1822.9 57.2 C 1809.8 44.1 1788.5 44.1 1775.4 57.2 C 1762.3 70.3 1762.3 91.5 1775.4 104.6 C 1788.5 117.7 1809.8 117.7 1822.9 104.6 " fill="#889AA4"></path></g></g><g><clipPath id="clip-543"><path d="M 1796.8 62.2 L 1778.1 80.9 L 1796.8 99.5 L 1815.5 80.9 Z M 1796.8 62.2 "></path></clipPath><g clip-path="url(#clip-543)"><path d="M 1796.8 63.6 L 1791.8 68.6 L 1804.6 81.3 L 1792.3 93.6 L 1796.8 98.1 L 1814.1 80.9 Z M 1796.8 63.6 " fill="#FEFFFF"></path></g></g><g><clipPath id="clip-544"><path d="M 1679.0 46.4 L 1748.1 46.4 L 1748.1 115.5 L 1679.0 115.5 Z M 1679.0 46.4 "></path></clipPath><g clip-path="url(#clip-544)"><path d="M 1737.3 104.6 C 1750.4 91.5 1750.4 70.3 1737.3 57.2 C 1724.2 44.1 1702.9 44.1 1689.8 57.2 C 1676.7 70.3 1676.7 91.5 1689.8 104.6 C 1702.9 117.7 1724.2 117.7 1737.3 104.6 " fill="#889AA4"></path></g></g><g><clipPath id="clip-545"><path d="M 1714.8 99.5 L 1733.4 80.9 L 1714.8 62.2 L 1696.1 80.9 Z M 1714.8 99.5 "></path></clipPath><g clip-path="url(#clip-545)"><path d="M 1714.8 98.1 L 1719.7 93.2 L 1707.0 80.4 L 1719.3 68.1 L 1714.8 63.6 L 1697.5 80.9 Z M 1714.8 98.1 " fill="#FEFFFF"></path></g></g><g><clipPath id="clip-546"><path d="M 73.8 935.0 L 1846.2 935.0 L 1846.2 1031.0 L 73.8 1031.0 Z M 73.8 935.0 "></path></clipPath><g clip-path="url(#clip-546)"><text xml:space="preserve" font-family="Novecentosanswide-Medium" font-size="84.0" fill="#FEFFFF" transform="matrix(1.00, 0.00, -0.00, -1.00, 336.0, 945.0)">D</text><text xml:space="preserve" font-family="Novecentosanswide-Medium" font-size="84.0" fill="#FEFFFF" transform="matrix(1.00, 0.00, -0.00, -1.00, 394.7, 945.0)">E</text><text xml:space="preserve" font-family="Novecentosanswide-Medium" font-size="84.0" fill="#FEFFFF" transform="matrix(1.00, 0.00, -0.00, -1.00, 442.3, 945.0)">P</text><text xml:space="preserve" font-family="Novecentosanswide-Medium" font-size="84.0" fill="#FEFFFF" transform="matrix(1.00, 0.00, -0.00, -1.00, 488.6, 945.0)">L</text><text xml:space="preserve" font-family="Novecentosanswide-Medium" font-size="84.0" fill="#FEFFFF" transform="matrix(1.00, 0.00, -0.00, -1.00, 529.2, 945.0)">O</text><text xml:space="preserve" font-family="Novecentosanswide-Medium" font-size="84.0" fill="#FEFFFF" transform="matrix(1.00, 0.00, -0.00, -1.00, 589.0, 945.0)">Y</text><text xml:space="preserve" font-family="Novecentosanswide-Medium" font-size="84.0" fill="#FEFFFF" transform="matrix(1.00, 0.00, -0.00, -1.00, 642.6, 945.0)">M</text><text xml:space="preserve" font-family="Novecentosanswide-Medium" font-size="84.0" fill="#FEFFFF" transform="matrix(1.00, 0.00, -0.00, -1.00, 707.2, 945.0)">E</text><text xml:space="preserve" font-family="Novecentosanswide-Medium" font-size="84.0" fill="#FEFFFF" transform="matrix(1.00, 0.00, -0.00, -1.00, 754.8, 945.0)">N</text><text xml:space="preserve" font-family="Novecentosanswide-Medium" font-size="84.0" fill="#FEFFFF" transform="matrix(1.00, 0.00, -0.00, -1.00, 813.4, 945.0)">T</text><text xml:space="preserve" font-family="Novecentosanswide-Medium" font-size="84.0" fill="#FEFFFF" transform="matrix(1.00, 0.00, -0.00, -1.00, 864.4, 945.0)"> </text><text xml:space="preserve" font-family="Novecentosanswide-DemiBold" font-weight="bold" font-size="84.0" fill="#889AA4" transform="matrix(1.00, 0.00, -0.00, -1.00, 882.2, 945.0)">W</text><text xml:space="preserve" font-family="Novecentosanswide-DemiBold" font-weight="bold" font-size="84.0" fill="#889AA4" transform="matrix(1.00, 0.00, -0.00, -1.00, 966.0, 945.0)">I</text><text xml:space="preserve" font-family="Novecentosanswide-DemiBold" font-weight="bold" font-size="84.0" fill="#889AA4" transform="matrix(1.00, 0.00, -0.00, -1.00, 985.1, 945.0)">T</text><text xml:space="preserve" font-family="Novecentosanswide-DemiBold" font-weight="bold" font-size="84.0" fill="#889AA4" transform="matrix(1.00, 0.00, -0.00, -1.00, 1036.6, 945.0)">H</text><text xml:space="preserve" font-family="Novecentosanswide-DemiBold" font-weight="bold" font-size="84.0" fill="#889AA4" transform="matrix(1.00, 0.00, -0.00, -1.00, 1093.3, 945.0)"> </text><text xml:space="preserve" font-family="Novecentosanswide-DemiBold" font-weight="bold" font-size="84.0" fill="#889AA4" transform="matrix(1.00, 0.00, -0.00, -1.00, 1111.2, 945.0)">R</text><text xml:space="preserve" font-family="Novecentosanswide-DemiBold" font-weight="bold" font-size="84.0" fill="#889AA4" transform="matrix(1.00, 0.00, -0.00, -1.00, 1160.4, 945.0)">O</text><text xml:space="preserve" font-family="Novecentosanswide-DemiBold" font-weight="bold" font-size="84.0" fill="#889AA4" transform="matrix(1.00, 0.00, -0.00, -1.00, 1224.6, 945.0)">C</text><text xml:space="preserve" font-family="Novecentosanswide-DemiBold" font-weight="bold" font-size="84.0" fill="#889AA4" transform="matrix(1.00, 0.00, -0.00, -1.00, 1285.0, 945.0)">K</text><text xml:space="preserve" font-family="Novecentosanswide-DemiBold" font-weight="bold" font-size="84.0" fill="#889AA4" transform="matrix(1.00, 0.00, -0.00, -1.00, 1339.5, 945.0)">E</text><text xml:space="preserve" font-family="Novecentosanswide-DemiBold" font-weight="bold" font-size="84.0" fill="#889AA4" transform="matrix(1.00, 0.00, -0.00, -1.00, 1387.5, 945.0)">T</text><text xml:space="preserve" font-family="Novecentosanswide-DemiBold" font-weight="bold" font-size="84.0" fill="#889AA4" transform="matrix(1.00, 0.00, -0.00, -1.00, 1439.0, 945.0)">E</text><text xml:space="preserve" font-family="Novecentosanswide-DemiBold" font-weight="bold" font-size="84.0" fill="#889AA4" transform="matrix(1.00, 0.00, -0.00, -1.00, 1487.0, 945.0)">E</text><text xml:space="preserve" font-family="Novecentosanswide-DemiBold" font-weight="bold" font-size="84.0" fill="#889AA4" transform="matrix(1.00, 0.00, -0.00, -1.00, 1535.0, 945.0)">R</text></g></g><text xml:space="preserve" font-family="Cantarell-Regular" font-size="52.0" fill="#889AA4" transform="matrix(1.00, 0.00, -0.00, -1.00, 738.0, 878.0)">D</text><text xml:space="preserve" font-family="Cantarell-Regular" font-size="52.0" fill="#889AA4" transform="matrix(1.00, 0.00, -0.00, -1.00, 778.8, 878.0)">e</text><text xml:space="preserve" font-family="Cantarell-Regular" font-size="52.0" fill="#889AA4" transform="matrix(1.00, 0.00, -0.00, -1.00, 806.8, 878.0)">p</text><text xml:space="preserve" font-family="Cantarell-Regular" font-size="52.0" fill="#889AA4" transform="matrix(1.00, 0.00, -0.00, -1.00, 836.6, 878.0)">l</text><text xml:space="preserve" font-family="Cantarell-Regular" font-size="52.0" fill="#889AA4" transform="matrix(1.00, 0.00, -0.00, -1.00, 851.0, 878.0)">o</text><text xml:space="preserve" font-family="Cantarell-Regular" font-size="52.0" fill="#889AA4" transform="matrix(1.00, 0.00, -0.00, -1.00, 881.7, 878.0)">y</text><text xml:space="preserve" font-family="Cantarell-Regular" font-size="52.0" fill="#889AA4" transform="matrix(1.00, 0.00, -0.00, -1.00, 908.6, 878.0)">m</text><text xml:space="preserve" font-family="Cantarell-Regular" font-size="52.0" fill="#889AA4" transform="matrix(1.00, 0.00, -0.00, -1.00, 952.6, 878.0)">e</text><text xml:space="preserve" font-family="Cantarell-Regular" font-size="52.0" fill="#889AA4" transform="matrix(1.00, 0.00, -0.00, -1.00, 980.6, 878.0)">n</text><text xml:space="preserve" font-family="Cantarell-Regular" font-size="52.0" fill="#889AA4" transform="matrix(1.00, 0.00, -0.00, -1.00, 1010.4, 878.0)">t</text><text xml:space="preserve" font-family="Cantarell-Regular" font-size="52.0" fill="#889AA4" transform="matrix(1.00, 0.00, -0.00, -1.00, 1030.1, 878.0)"> </text><text xml:space="preserve" font-family="Cantarell-Regular" font-size="52.0" fill="#889AA4" transform="matrix(1.00, 0.00, -0.00, -1.00, 1044.3, 878.0)">S</text><text xml:space="preserve" font-family="Cantarell-Regular" font-size="52.0" fill="#889AA4" transform="matrix(1.00, 0.00, -0.00, -1.00, 1078.9, 878.0)">t</text><text xml:space="preserve" font-family="Cantarell-Regular" font-size="52.0" fill="#889AA4" transform="matrix(1.00, 0.00, -0.00, -1.00, 1098.6, 878.0)">e</text><text xml:space="preserve" font-family="Cantarell-Regular" font-size="52.0" fill="#889AA4" transform="matrix(1.00, 0.00, -0.00, -1.00, 1126.5, 878.0)">p</text><text xml:space="preserve" font-family="Cantarell-Regular" font-size="52.0" fill="#889AA4" transform="matrix(1.00, 0.00, -0.00, -1.00, 1156.4, 878.0)">s</text><g><clipPath id="clip-547"><path d="M 621.0 729.3 L 1299.0 729.3 L 1299.0 804.8 L 621.0 804.8 Z M 621.0 729.3 "></path></clipPath><g clip-path="url(#clip-547)"><path d="M 624.0 801.8 L 1296.0 801.8 L 1296.0 732.3 L 624.0 732.3 Z M 624.0 801.8 " fill="#009ED8"></path><path d="M 0.0 0.0 L 672.1 0.0 L 672.1 69.5 L 0.0 69.5 Z M 0.0 0.0 " fill="none" stroke="#009ED8" stroke-width="4.00" transform="matrix(1.00, 0.00, 0.00, -1.00, 624.0, 801.8)"></path></g></g><g><clipPath id="clip-548"><path d="M 615.3 733.4 L 1304.7 733.4 L 1304.7 797.5 L 615.3 797.5 Z M 615.3 733.4 "></path></clipPath><g clip-path="url(#clip-548)"><text xml:space="preserve" font-family="Cantarell-Bold" font-weight="bold" font-size="30.0" fill="#000000" transform="matrix(1.00, 0.00, -0.00, -1.00, 699.0, 755.0)">C</text><text xml:space="preserve" font-family="Cantarell-Bold" font-weight="bold" font-size="30.0" fill="#000000" transform="matrix(1.00, 0.00, -0.00, -1.00, 722.6, 755.0)">H</text><text xml:space="preserve" font-family="Cantarell-Bold" font-weight="bold" font-size="30.0" fill="#000000" transform="matrix(1.00, 0.00, -0.00, -1.00, 748.5, 755.0)">E</text><text xml:space="preserve" font-family="Cantarell-Bold" font-weight="bold" font-size="30.0" fill="#000000" transform="matrix(1.00, 0.00, -0.00, -1.00, 769.7, 755.0)">C</text><text xml:space="preserve" font-family="Cantarell-Bold" font-weight="bold" font-size="30.0" fill="#000000" transform="matrix(1.00, 0.00, -0.00, -1.00, 793.3, 755.0)">K</text><text xml:space="preserve" font-family="Cantarell-Bold" font-weight="bold" font-size="30.0" fill="#000000" transform="matrix(1.00, 0.00, -0.00, -1.00, 816.5, 755.0)"> </text><text xml:space="preserve" font-family="Cantarell-Bold" font-weight="bold" font-size="30.0" fill="#000000" transform="matrix(1.00, 0.00, -0.00, -1.00, 824.7, 755.0)">D</text><text xml:space="preserve" font-family="Cantarell-Bold" font-weight="bold" font-size="30.0" fill="#000000" transform="matrix(1.00, 0.00, -0.00, -1.00, 850.6, 755.0)">I</text><text xml:space="preserve" font-family="Cantarell-Bold" font-weight="bold" font-size="30.0" fill="#000000" transform="matrix(1.00, 0.00, -0.00, -1.00, 862.5, 755.0)">R</text><text xml:space="preserve" font-family="Cantarell-Bold" font-weight="bold" font-size="30.0" fill="#000000" transform="matrix(1.00, 0.00, -0.00, -1.00, 886.0, 755.0)">E</text><text xml:space="preserve" font-family="Cantarell-Bold" font-weight="bold" font-size="30.0" fill="#000000" transform="matrix(1.00, 0.00, -0.00, -1.00, 907.2, 755.0)">C</text><text xml:space="preserve" font-family="Cantarell-Bold" font-weight="bold" font-size="30.0" fill="#000000" transform="matrix(1.00, 0.00, -0.00, -1.00, 930.8, 755.0)">T</text><text xml:space="preserve" font-family="Cantarell-Bold" font-weight="bold" font-size="30.0" fill="#000000" transform="matrix(1.00, 0.00, -0.00, -1.00, 950.9, 755.0)">O</text><text xml:space="preserve" font-family="Cantarell-Bold" font-weight="bold" font-size="30.0" fill="#000000" transform="matrix(1.00, 0.00, -0.00, -1.00, 978.0, 755.0)">R</text><text xml:space="preserve" font-family="Cantarell-Bold" font-weight="bold" font-size="30.0" fill="#000000" transform="matrix(1.00, 0.00, -0.00, -1.00, 1001.5, 755.0)">Y</text><text xml:space="preserve" font-family="Cantarell-Bold" font-weight="bold" font-size="30.0" fill="#000000" transform="matrix(1.00, 0.00, -0.00, -1.00, 1022.4, 755.0)"> </text><text xml:space="preserve" font-family="Cantarell-Bold" font-weight="bold" font-size="30.0" fill="#000000" transform="matrix(1.00, 0.00, -0.00, -1.00, 1030.6, 755.0)">S</text><text xml:space="preserve" font-family="Cantarell-Bold" font-weight="bold" font-size="30.0" fill="#000000" transform="matrix(1.00, 0.00, -0.00, -1.00, 1052.9, 755.0)">T</text><text xml:space="preserve" font-family="Cantarell-Bold" font-weight="bold" font-size="30.0" fill="#000000" transform="matrix(1.00, 0.00, -0.00, -1.00, 1073.0, 755.0)">R</text><text xml:space="preserve" font-family="Cantarell-Bold" font-weight="bold" font-size="30.0" fill="#000000" transform="matrix(1.00, 0.00, -0.00, -1.00, 1096.5, 755.0)">U</text><text xml:space="preserve" font-family="Cantarell-Bold" font-weight="bold" font-size="30.0" fill="#000000" transform="matrix(1.00, 0.00, -0.00, -1.00, 1121.9, 755.0)">C</text><text xml:space="preserve" font-family="Cantarell-Bold" font-weight="bold" font-size="30.0" fill="#000000" transform="matrix(1.00, 0.00, -0.00, -1.00, 1145.6, 755.0)">T</text><text xml:space="preserve" font-family="Cantarell-Bold" font-weight="bold" font-size="30.0" fill="#000000" transform="matrix(1.00, 0.00, -0.00, -1.00, 1165.7, 755.0)">U</text><text xml:space="preserve" font-family="Cantarell-Bold" font-weight="bold" font-size="30.0" fill="#000000" transform="matrix(1.00, 0.00, -0.00, -1.00, 1191.2, 755.0)">R</text><text xml:space="preserve" font-family="Cantarell-Bold" font-weight="bold" font-size="30.0" fill="#000000" transform="matrix(1.00, 0.00, -0.00, -1.00, 1214.6, 755.0)">E</text></g></g><g><clipPath id="clip-549"><path d="M 622.8 622.2 L 1302.1 622.2 L 1302.1 697.4 L 622.8 697.4 Z M 622.8 622.2 "></path></clipPath><g clip-path="url(#clip-549)"><path d="M 625.8 694.4 L 1299.1 694.4 L 1299.1 625.2 L 625.8 625.2 Z M 625.8 694.4 " fill="#009ED8"></path><path d="M 0.0 0.0 L 673.3 0.0 L 673.3 69.2 L 0.0 69.2 Z M 0.0 0.0 " fill="none" stroke="#009ED8" stroke-width="4.00" transform="matrix(1.00, 0.00, 0.00, -1.00, 625.8, 694.4)"></path></g></g><g><clipPath id="clip-550"><path d="M 614.9 624.7 L 1304.2 624.7 L 1304.2 688.7 L 614.9 688.7 Z M 614.9 624.7 "></path></clipPath><g clip-path="url(#clip-550)"><text xml:space="preserve" font-family="Cantarell-Bold" font-weight="bold" font-size="30.0" fill="#000000" transform="matrix(1.00, 0.00, -0.00, -1.00, 762.0, 646.0)">C</text><text xml:space="preserve" font-family="Cantarell-Bold" font-weight="bold" font-size="30.0" fill="#000000" transform="matrix(1.00, 0.00, -0.00, -1.00, 785.6, 646.0)">L</text><text xml:space="preserve" font-family="Cantarell-Bold" font-weight="bold" font-size="30.0" fill="#000000" transform="matrix(1.00, 0.00, -0.00, -1.00, 804.7, 646.0)">O</text><text xml:space="preserve" font-family="Cantarell-Bold" font-weight="bold" font-size="30.0" fill="#000000" transform="matrix(1.00, 0.00, -0.00, -1.00, 831.8, 646.0)">N</text><text xml:space="preserve" font-family="Cantarell-Bold" font-weight="bold" font-size="30.0" fill="#000000" transform="matrix(1.00, 0.00, -0.00, -1.00, 858.5, 646.0)">E</text><text xml:space="preserve" font-family="Cantarell-Bold" font-weight="bold" font-size="30.0" fill="#000000" transform="matrix(1.00, 0.00, -0.00, -1.00, 879.7, 646.0)"> </text><text xml:space="preserve" font-family="Cantarell-Bold" font-weight="bold" font-size="30.0" fill="#000000" transform="matrix(1.00, 0.00, -0.00, -1.00, 887.9, 646.0)">L</text><text xml:space="preserve" font-family="Cantarell-Bold" font-weight="bold" font-size="30.0" fill="#000000" transform="matrix(1.00, 0.00, -0.00, -1.00, 906.9, 646.0)">A</text><text xml:space="preserve" font-family="Cantarell-Bold" font-weight="bold" font-size="30.0" fill="#000000" transform="matrix(1.00, 0.00, -0.00, -1.00, 929.6, 646.0)">T</text><text xml:space="preserve" font-family="Cantarell-Bold" font-weight="bold" font-size="30.0" fill="#000000" transform="matrix(1.00, 0.00, -0.00, -1.00, 949.7, 646.0)">E</text><text xml:space="preserve" font-family="Cantarell-Bold" font-weight="bold" font-size="30.0" fill="#000000" transform="matrix(1.00, 0.00, -0.00, -1.00, 970.9, 646.0)">S</text><text xml:space="preserve" font-family="Cantarell-Bold" font-weight="bold" font-size="30.0" fill="#000000" transform="matrix(1.00, 0.00, -0.00, -1.00, 993.2, 646.0)">T</text><text xml:space="preserve" font-family="Cantarell-Bold" font-weight="bold" font-size="30.0" fill="#000000" transform="matrix(1.00, 0.00, -0.00, -1.00, 1013.3, 646.0)"> </text><text xml:space="preserve" font-family="Cantarell-Bold" font-weight="bold" font-size="30.0" fill="#000000" transform="matrix(1.00, 0.00, -0.00, -1.00, 1021.6, 646.0)">R</text><text xml:space="preserve" font-family="Cantarell-Bold" font-weight="bold" font-size="30.0" fill="#000000" transform="matrix(1.00, 0.00, -0.00, -1.00, 1045.0, 646.0)">E</text><text xml:space="preserve" font-family="Cantarell-Bold" font-weight="bold" font-size="30.0" fill="#000000" transform="matrix(1.00, 0.00, -0.00, -1.00, 1066.2, 646.0)">L</text><text xml:space="preserve" font-family="Cantarell-Bold" font-weight="bold" font-size="30.0" fill="#000000" transform="matrix(1.00, 0.00, -0.00, -1.00, 1085.2, 646.0)">E</text><text xml:space="preserve" font-family="Cantarell-Bold" font-weight="bold" font-size="30.0" fill="#000000" transform="matrix(1.00, 0.00, -0.00, -1.00, 1106.4, 646.0)">A</text><text xml:space="preserve" font-family="Cantarell-Bold" font-weight="bold" font-size="30.0" fill="#000000" transform="matrix(1.00, 0.00, -0.00, -1.00, 1129.1, 646.0)">S</text><text xml:space="preserve" font-family="Cantarell-Bold" font-weight="bold" font-size="30.0" fill="#000000" transform="matrix(1.00, 0.00, -0.00, -1.00, 1151.4, 646.0)">E</text></g></g><g><clipPath id="clip-551"><path d="M 623.9 512.5 L 1302.1 512.5 L 1302.1 587.3 L 623.9 587.3 Z M 623.9 512.5 "></path></clipPath><g clip-path="url(#clip-551)"><path d="M 626.9 584.3 L 1299.1 584.3 L 1299.1 515.5 L 626.9 515.5 Z M 626.9 584.3 " fill="#009ED8"></path><path d="M 0.0 0.0 L 672.2 0.0 L 672.2 68.8 L 0.0 68.8 Z M 0.0 0.0 " fill="none" stroke="#009ED8" stroke-width="4.00" transform="matrix(1.00, 0.00, 0.00, -1.00, 626.9, 584.3)"></path></g></g><g><clipPath id="clip-552"><path d="M 614.9 531.0 L 1304.0 531.0 L 1304.0 571.0 L 614.9 571.0 Z M 614.9 531.0 "></path></clipPath><g clip-path="url(#clip-552)"><text xml:space="preserve" font-family="Cantarell-Bold" font-weight="bold" font-size="30.0" fill="#000000" transform="matrix(1.00, 0.00, -0.00, -1.00, 794.0, 539.0)">C</text><text xml:space="preserve" font-family="Cantarell-Bold" font-weight="bold" font-size="30.0" fill="#000000" transform="matrix(1.00, 0.00, -0.00, -1.00, 817.6, 539.0)">O</text><text xml:space="preserve" font-family="Cantarell-Bold" font-weight="bold" font-size="30.0" fill="#000000" transform="matrix(1.00, 0.00, -0.00, -1.00, 844.8, 539.0)">M</text><text xml:space="preserve" font-family="Cantarell-Bold" font-weight="bold" font-size="30.0" fill="#000000" transform="matrix(1.00, 0.00, -0.00, -1.00, 874.8, 539.0)">P</text><text xml:space="preserve" font-family="Cantarell-Bold" font-weight="bold" font-size="30.0" fill="#000000" transform="matrix(1.00, 0.00, -0.00, -1.00, 896.8, 539.0)">O</text><text xml:space="preserve" font-family="Cantarell-Bold" font-weight="bold" font-size="30.0" fill="#000000" transform="matrix(1.00, 0.00, -0.00, -1.00, 923.9, 539.0)">S</text><text xml:space="preserve" font-family="Cantarell-Bold" font-weight="bold" font-size="30.0" fill="#000000" transform="matrix(1.00, 0.00, -0.00, -1.00, 946.2, 539.0)">E</text><text xml:space="preserve" font-family="Cantarell-Bold" font-weight="bold" font-size="30.0" fill="#000000" transform="matrix(1.00, 0.00, -0.00, -1.00, 967.4, 539.0)">R</text><text xml:space="preserve" font-family="Cantarell-Bold" font-weight="bold" font-size="30.0" fill="#000000" transform="matrix(1.00, 0.00, -0.00, -1.00, 990.8, 539.0)"> </text><text xml:space="preserve" font-family="Cantarell-Bold" font-weight="bold" font-size="30.0" fill="#000000" transform="matrix(1.00, 0.00, -0.00, -1.00, 999.0, 539.0)">I</text><text xml:space="preserve" font-family="Cantarell-Bold" font-weight="bold" font-size="30.0" fill="#000000" transform="matrix(1.00, 0.00, -0.00, -1.00, 1011.0, 539.0)">N</text><text xml:space="preserve" font-family="Cantarell-Bold" font-weight="bold" font-size="30.0" fill="#000000" transform="matrix(1.00, 0.00, -0.00, -1.00, 1037.7, 539.0)">S</text><text xml:space="preserve" font-family="Cantarell-Bold" font-weight="bold" font-size="30.0" fill="#000000" transform="matrix(1.00, 0.00, -0.00, -1.00, 1060.0, 539.0)">T</text><text xml:space="preserve" font-family="Cantarell-Bold" font-weight="bold" font-size="30.0" fill="#000000" transform="matrix(1.00, 0.00, -0.00, -1.00, 1080.1, 539.0)">A</text><text xml:space="preserve" font-family="Cantarell-Bold" font-weight="bold" font-size="30.0" fill="#000000" transform="matrix(1.00, 0.00, -0.00, -1.00, 1102.8, 539.0)">L</text><text xml:space="preserve" font-family="Cantarell-Bold" font-weight="bold" font-size="30.0" fill="#000000" transform="matrix(1.00, 0.00, -0.00, -1.00, 1121.8, 539.0)">L</text></g></g><g><clipPath id="clip-553"><path d="M 623.9 404.7 L 1302.1 404.7 L 1302.1 480.2 L 623.9 480.2 Z M 623.9 404.7 "></path></clipPath><g clip-path="url(#clip-553)"><path d="M 626.9 477.2 L 1299.1 477.2 L 1299.1 407.7 L 626.9 407.7 Z M 626.9 477.2 " fill="#009ED8"></path><path d="M 0.0 0.0 L 672.2 0.0 L 672.2 69.5 L 0.0 69.5 Z M 0.0 0.0 " fill="none" stroke="#009ED8" stroke-width="4.00" transform="matrix(1.00, 0.00, 0.00, -1.00, 626.9, 477.2)"></path></g></g><g><clipPath id="clip-554"><path d="M 614.9 422.4 L 1304.0 422.4 L 1304.0 462.4 L 614.9 462.4 Z M 614.9 422.4 "></path></clipPath><g clip-path="url(#clip-554)"><text xml:space="preserve" font-family="Cantarell-Bold" font-weight="bold" font-size="30.0" fill="#000000" transform="matrix(1.00, 0.00, -0.00, -1.00, 853.0, 430.0)">N</text><text xml:space="preserve" font-family="Cantarell-Bold" font-weight="bold" font-size="30.0" fill="#000000" transform="matrix(1.00, 0.00, -0.00, -1.00, 879.7, 430.0)">P</text><text xml:space="preserve" font-family="Cantarell-Bold" font-weight="bold" font-size="30.0" fill="#000000" transform="matrix(1.00, 0.00, -0.00, -1.00, 901.7, 430.0)">M</text><text xml:space="preserve" font-family="Cantarell-Bold" font-weight="bold" font-size="30.0" fill="#000000" transform="matrix(1.00, 0.00, -0.00, -1.00, 931.7, 430.0)"> </text><text xml:space="preserve" font-family="Cantarell-Bold" font-weight="bold" font-size="30.0" fill="#000000" transform="matrix(1.00, 0.00, -0.00, -1.00, 939.9, 430.0)">I</text><text xml:space="preserve" font-family="Cantarell-Bold" font-weight="bold" font-size="30.0" fill="#000000" transform="matrix(1.00, 0.00, -0.00, -1.00, 951.8, 430.0)">N</text><text xml:space="preserve" font-family="Cantarell-Bold" font-weight="bold" font-size="30.0" fill="#000000" transform="matrix(1.00, 0.00, -0.00, -1.00, 978.6, 430.0)">S</text><text xml:space="preserve" font-family="Cantarell-Bold" font-weight="bold" font-size="30.0" fill="#000000" transform="matrix(1.00, 0.00, -0.00, -1.00, 1000.9, 430.0)">T</text><text xml:space="preserve" font-family="Cantarell-Bold" font-weight="bold" font-size="30.0" fill="#000000" transform="matrix(1.00, 0.00, -0.00, -1.00, 1021.0, 430.0)">A</text><text xml:space="preserve" font-family="Cantarell-Bold" font-weight="bold" font-size="30.0" fill="#000000" transform="matrix(1.00, 0.00, -0.00, -1.00, 1043.7, 430.0)">L</text><text xml:space="preserve" font-family="Cantarell-Bold" font-weight="bold" font-size="30.0" fill="#000000" transform="matrix(1.00, 0.00, -0.00, -1.00, 1062.7, 430.0)">L</text></g></g><g><clipPath id="clip-555"><path d="M 623.9 295.9 L 1302.1 295.9 L 1302.1 370.5 L 623.9 370.5 Z M 623.9 295.9 "></path></clipPath><g clip-path="url(#clip-555)"><path d="M 626.9 367.5 L 1299.1 367.5 L 1299.1 298.9 L 626.9 298.9 Z M 626.9 367.5 " fill="#009ED8"></path><path d="M 0.0 0.0 L 672.2 0.0 L 672.2 68.6 L 0.0 68.6 Z M 0.0 0.0 " fill="none" stroke="#009ED8" stroke-width="4.00" transform="matrix(1.00, 0.00, 0.00, -1.00, 626.9, 367.5)"></path></g></g><g><clipPath id="clip-556"><path d="M 614.9 315.6 L 1304.0 315.6 L 1304.0 355.6 L 614.9 355.6 Z M 614.9 315.6 "></path></clipPath><g clip-path="url(#clip-556)"><text xml:space="preserve" font-family="Cantarell-Bold" font-weight="bold" font-size="30.0" fill="#000000" transform="matrix(1.00, 0.00, -0.00, -1.00, 695.0, 323.0)">S</text><text xml:space="preserve" font-family="Cantarell-Bold" font-weight="bold" font-size="30.0" fill="#000000" transform="matrix(1.00, 0.00, -0.00, -1.00, 717.3, 323.0)">Y</text><text xml:space="preserve" font-family="Cantarell-Bold" font-weight="bold" font-size="30.0" fill="#000000" transform="matrix(1.00, 0.00, -0.00, -1.00, 738.2, 323.0)">M</text><text xml:space="preserve" font-family="Cantarell-Bold" font-weight="bold" font-size="30.0" fill="#000000" transform="matrix(1.00, 0.00, -0.00, -1.00, 768.2, 323.0)">L</text><text xml:space="preserve" font-family="Cantarell-Bold" font-weight="bold" font-size="30.0" fill="#000000" transform="matrix(1.00, 0.00, -0.00, -1.00, 787.2, 323.0)">I</text><text xml:space="preserve" font-family="Cantarell-Bold" font-weight="bold" font-size="30.0" fill="#000000" transform="matrix(1.00, 0.00, -0.00, -1.00, 799.1, 323.0)">N</text><text xml:space="preserve" font-family="Cantarell-Bold" font-weight="bold" font-size="30.0" fill="#000000" transform="matrix(1.00, 0.00, -0.00, -1.00, 825.8, 323.0)">K</text><text xml:space="preserve" font-family="Cantarell-Bold" font-weight="bold" font-size="30.0" fill="#000000" transform="matrix(1.00, 0.00, -0.00, -1.00, 849.0, 323.0)"> </text><text xml:space="preserve" font-family="Cantarell-Bold" font-weight="bold" font-size="30.0" fill="#000000" transform="matrix(1.00, 0.00, -0.00, -1.00, 857.2, 323.0)">S</text><text xml:space="preserve" font-family="Cantarell-Bold" font-weight="bold" font-size="30.0" fill="#000000" transform="matrix(1.00, 0.00, -0.00, -1.00, 879.6, 323.0)">H</text><text xml:space="preserve" font-family="Cantarell-Bold" font-weight="bold" font-size="30.0" fill="#000000" transform="matrix(1.00, 0.00, -0.00, -1.00, 905.4, 323.0)">A</text><text xml:space="preserve" font-family="Cantarell-Bold" font-weight="bold" font-size="30.0" fill="#000000" transform="matrix(1.00, 0.00, -0.00, -1.00, 928.1, 323.0)">R</text><text xml:space="preserve" font-family="Cantarell-Bold" font-weight="bold" font-size="30.0" fill="#000000" transform="matrix(1.00, 0.00, -0.00, -1.00, 951.5, 323.0)">E</text><text xml:space="preserve" font-family="Cantarell-Bold" font-weight="bold" font-size="30.0" fill="#000000" transform="matrix(1.00, 0.00, -0.00, -1.00, 972.7, 323.0)">D</text><text xml:space="preserve" font-family="Cantarell-Bold" font-weight="bold" font-size="30.0" fill="#000000" transform="matrix(1.00, 0.00, -0.00, -1.00, 998.6, 323.0)"> </text><text xml:space="preserve" font-family="Cantarell-Bold" font-weight="bold" font-size="30.0" fill="#000000" transform="matrix(1.00, 0.00, -0.00, -1.00, 1006.8, 323.0)">D</text><text xml:space="preserve" font-family="Cantarell-Bold" font-weight="bold" font-size="30.0" fill="#000000" transform="matrix(1.00, 0.00, -0.00, -1.00, 1032.8, 323.0)">I</text><text xml:space="preserve" font-family="Cantarell-Bold" font-weight="bold" font-size="30.0" fill="#000000" transform="matrix(1.00, 0.00, -0.00, -1.00, 1044.7, 323.0)">R</text><text xml:space="preserve" font-family="Cantarell-Bold" font-weight="bold" font-size="30.0" fill="#000000" transform="matrix(1.00, 0.00, -0.00, -1.00, 1068.1, 323.0)">E</text><text xml:space="preserve" font-family="Cantarell-Bold" font-weight="bold" font-size="30.0" fill="#000000" transform="matrix(1.00, 0.00, -0.00, -1.00, 1089.3, 323.0)">C</text><text xml:space="preserve" font-family="Cantarell-Bold" font-weight="bold" font-size="30.0" fill="#000000" transform="matrix(1.00, 0.00, -0.00, -1.00, 1113.0, 323.0)">T</text><text xml:space="preserve" font-family="Cantarell-Bold" font-weight="bold" font-size="30.0" fill="#000000" transform="matrix(1.00, 0.00, -0.00, -1.00, 1133.1, 323.0)">O</text><text xml:space="preserve" font-family="Cantarell-Bold" font-weight="bold" font-size="30.0" fill="#000000" transform="matrix(1.00, 0.00, -0.00, -1.00, 1160.2, 323.0)">R</text><text xml:space="preserve" font-family="Cantarell-Bold" font-weight="bold" font-size="30.0" fill="#000000" transform="matrix(1.00, 0.00, -0.00, -1.00, 1183.6, 323.0)">I</text><text xml:space="preserve" font-family="Cantarell-Bold" font-weight="bold" font-size="30.0" fill="#000000" transform="matrix(1.00, 0.00, -0.00, -1.00, 1195.5, 323.0)">E</text><text xml:space="preserve" font-family="Cantarell-Bold" font-weight="bold" font-size="30.0" fill="#000000" transform="matrix(1.00, 0.00, -0.00, -1.00, 1216.7, 323.0)">S</text></g></g><g><clipPath id="clip-557"><path d="M 623.9 187.9 L 1302.1 187.9 L 1302.1 263.4 L 623.9 263.4 Z M 623.9 187.9 "></path></clipPath><g clip-path="url(#clip-557)"><path d="M 626.9 260.4 L 1299.1 260.4 L 1299.1 190.9 L 626.9 190.9 Z M 626.9 260.4 " fill="#C39719"></path><path d="M 0.0 0.0 L 672.2 0.0 L 672.2 69.5 L 0.0 69.5 Z M 0.0 0.0 " fill="none" stroke="#C39719" stroke-width="4.00" transform="matrix(1.00, 0.00, 0.00, -1.00, 626.9, 260.4)"></path></g></g><g><clipPath id="clip-558"><path d="M 614.9 205.7 L 1304.0 205.7 L 1304.0 245.7 L 614.9 245.7 Z M 614.9 205.7 "></path></clipPath><g clip-path="url(#clip-558)"><text xml:space="preserve" font-family="Cantarell-Bold" font-weight="bold" font-size="30.0" fill="#000000" transform="matrix(1.00, 0.00, -0.00, -1.00, 725.0, 213.0)">S</text><text xml:space="preserve" font-family="Cantarell-Bold" font-weight="bold" font-size="30.0" fill="#000000" transform="matrix(1.00, 0.00, -0.00, -1.00, 747.3, 213.0)">Y</text><text xml:space="preserve" font-family="Cantarell-Bold" font-weight="bold" font-size="30.0" fill="#000000" transform="matrix(1.00, 0.00, -0.00, -1.00, 768.2, 213.0)">M</text><text xml:space="preserve" font-family="Cantarell-Bold" font-weight="bold" font-size="30.0" fill="#000000" transform="matrix(1.00, 0.00, -0.00, -1.00, 798.2, 213.0)">L</text><text xml:space="preserve" font-family="Cantarell-Bold" font-weight="bold" font-size="30.0" fill="#000000" transform="matrix(1.00, 0.00, -0.00, -1.00, 817.2, 213.0)">I</text><text xml:space="preserve" font-family="Cantarell-Bold" font-weight="bold" font-size="30.0" fill="#000000" transform="matrix(1.00, 0.00, -0.00, -1.00, 829.1, 213.0)">N</text><text xml:space="preserve" font-family="Cantarell-Bold" font-weight="bold" font-size="30.0" fill="#000000" transform="matrix(1.00, 0.00, -0.00, -1.00, 855.8, 213.0)">K</text><text xml:space="preserve" font-family="Cantarell-Bold" font-weight="bold" font-size="30.0" fill="#000000" transform="matrix(1.00, 0.00, -0.00, -1.00, 879.0, 213.0)"> </text><text xml:space="preserve" font-family="Cantarell-Bold" font-weight="bold" font-size="30.0" fill="#000000" transform="matrix(1.00, 0.00, -0.00, -1.00, 887.2, 213.0)">C</text><text xml:space="preserve" font-family="Cantarell-Bold" font-weight="bold" font-size="30.0" fill="#000000" transform="matrix(1.00, 0.00, -0.00, -1.00, 910.9, 213.0)">U</text><text xml:space="preserve" font-family="Cantarell-Bold" font-weight="bold" font-size="30.0" fill="#000000" transform="matrix(1.00, 0.00, -0.00, -1.00, 936.3, 213.0)">R</text><text xml:space="preserve" font-family="Cantarell-Bold" font-weight="bold" font-size="30.0" fill="#000000" transform="matrix(1.00, 0.00, -0.00, -1.00, 959.8, 213.0)">R</text><text xml:space="preserve" font-family="Cantarell-Bold" font-weight="bold" font-size="30.0" fill="#000000" transform="matrix(1.00, 0.00, -0.00, -1.00, 983.2, 213.0)">E</text><text xml:space="preserve" font-family="Cantarell-Bold" font-weight="bold" font-size="30.0" fill="#000000" transform="matrix(1.00, 0.00, -0.00, -1.00, 1004.4, 213.0)">N</text><text xml:space="preserve" font-family="Cantarell-Bold" font-weight="bold" font-size="30.0" fill="#000000" transform="matrix(1.00, 0.00, -0.00, -1.00, 1031.1, 213.0)">T</text><text xml:space="preserve" font-family="Cantarell-Bold" font-weight="bold" font-size="30.0" fill="#000000" transform="matrix(1.00, 0.00, -0.00, -1.00, 1051.2, 213.0)"> </text><text xml:space="preserve" font-family="Cantarell-Bold" font-weight="bold" font-size="30.0" fill="#000000" transform="matrix(1.00, 0.00, -0.00, -1.00, 1059.4, 213.0)">R</text><text xml:space="preserve" font-family="Cantarell-Bold" font-weight="bold" font-size="30.0" fill="#000000" transform="matrix(1.00, 0.00, -0.00, -1.00, 1082.9, 213.0)">E</text><text xml:space="preserve" font-family="Cantarell-Bold" font-weight="bold" font-size="30.0" fill="#000000" transform="matrix(1.00, 0.00, -0.00, -1.00, 1104.1, 213.0)">L</text><text xml:space="preserve" font-family="Cantarell-Bold" font-weight="bold" font-size="30.0" fill="#000000" transform="matrix(1.00, 0.00, -0.00, -1.00, 1123.1, 213.0)">E</text><text xml:space="preserve" font-family="Cantarell-Bold" font-weight="bold" font-size="30.0" fill="#000000" transform="matrix(1.00, 0.00, -0.00, -1.00, 1144.2, 213.0)">A</text><text xml:space="preserve" font-family="Cantarell-Bold" font-weight="bold" font-size="30.0" fill="#000000" transform="matrix(1.00, 0.00, -0.00, -1.00, 1166.9, 213.0)">S</text><text xml:space="preserve" font-family="Cantarell-Bold" font-weight="bold" font-size="30.0" fill="#000000" transform="matrix(1.00, 0.00, -0.00, -1.00, 1189.2, 213.0)">E</text></g></g><text xml:space="preserve" font-family="Cantarell-Oblique" font-style="italic" font-size="36.0" fill="#889AA4" transform="matrix(1.00, 0.00, -0.00, -1.00, 526.0, 83.0)">C</text><text xml:space="preserve" font-family="Cantarell-Oblique" font-style="italic" font-size="36.0" fill="#889AA4" transform="matrix(1.00, 0.00, -0.00, -1.00, 551.5, 83.0)">u</text><text xml:space="preserve" font-family="Cantarell-Oblique" font-style="italic" font-size="36.0" fill="#889AA4" transform="matrix(1.00, 0.00, -0.00, -1.00, 572.0, 83.0)">s</text><text xml:space="preserve" font-family="Cantarell-Oblique" font-style="italic" font-size="36.0" fill="#889AA4" transform="matrix(1.00, 0.00, -0.00, -1.00, 589.7, 83.0)">t</text><text xml:space="preserve" font-family="Cantarell-Oblique" font-style="italic" font-size="36.0" fill="#889AA4" transform="matrix(1.00, 0.00, -0.00, -1.00, 603.0, 83.0)">o</text><text xml:space="preserve" font-family="Cantarell-Oblique" font-style="italic" font-size="36.0" fill="#889AA4" transform="matrix(1.00, 0.00, -0.00, -1.00, 624.1, 83.0)">m</text><text xml:space="preserve" font-family="Cantarell-Oblique" font-style="italic" font-size="36.0" fill="#889AA4" transform="matrix(1.00, 0.00, -0.00, -1.00, 654.1, 83.0)"> </text><text xml:space="preserve" font-family="Cantarell-Oblique" font-style="italic" font-size="36.0" fill="#889AA4" transform="matrix(1.00, 0.00, -0.00, -1.00, 664.0, 83.0)">h</text><text xml:space="preserve" font-family="Cantarell-Oblique" font-style="italic" font-size="36.0" fill="#889AA4" transform="matrix(1.00, 0.00, -0.00, -1.00, 684.7, 83.0)">o</text><text xml:space="preserve" font-family="Cantarell-Oblique" font-style="italic" font-size="36.0" fill="#889AA4" transform="matrix(1.00, 0.00, -0.00, -1.00, 705.8, 83.0)">o</text><text xml:space="preserve" font-family="Cantarell-Oblique" font-style="italic" font-size="36.0" fill="#889AA4" transform="matrix(1.00, 0.00, -0.00, -1.00, 726.8, 83.0)">k</text><text xml:space="preserve" font-family="Cantarell-Oblique" font-style="italic" font-size="36.0" fill="#889AA4" transform="matrix(1.00, 0.00, -0.00, -1.00, 745.4, 83.0)">s</text><text xml:space="preserve" font-family="Cantarell-Oblique" font-style="italic" font-size="36.0" fill="#889AA4" transform="matrix(1.00, 0.00, -0.00, -1.00, 763.1, 83.0)">/</text><text xml:space="preserve" font-family="Cantarell-Oblique" font-style="italic" font-size="36.0" fill="#889AA4" transform="matrix(1.00, 0.00, -0.00, -1.00, 775.9, 83.0)">t</text><text xml:space="preserve" font-family="Cantarell-Oblique" font-style="italic" font-size="36.0" fill="#889AA4" transform="matrix(1.00, 0.00, -0.00, -1.00, 789.3, 83.0)">a</text><text xml:space="preserve" font-family="Cantarell-Oblique" font-style="italic" font-size="36.0" fill="#889AA4" transform="matrix(1.00, 0.00, -0.00, -1.00, 807.8, 83.0)">s</text><text xml:space="preserve" font-family="Cantarell-Oblique" font-style="italic" font-size="36.0" fill="#889AA4" transform="matrix(1.00, 0.00, -0.00, -1.00, 825.5, 83.0)">k</text><text xml:space="preserve" font-family="Cantarell-Oblique" font-style="italic" font-size="36.0" fill="#889AA4" transform="matrix(1.00, 0.00, -0.00, -1.00, 844.2, 83.0)">s</text><text xml:space="preserve" font-family="Cantarell-Oblique" font-style="italic" font-size="36.0" fill="#889AA4" transform="matrix(1.00, 0.00, -0.00, -1.00, 861.8, 83.0)"> </text><text xml:space="preserve" font-family="Cantarell-Oblique" font-style="italic" font-size="36.0" fill="#889AA4" transform="matrix(1.00, 0.00, -0.00, -1.00, 871.7, 83.0)">c</text><text xml:space="preserve" font-family="Cantarell-Oblique" font-style="italic" font-size="36.0" fill="#889AA4" transform="matrix(1.00, 0.00, -0.00, -1.00, 889.0, 83.0)">a</text><text xml:space="preserve" font-family="Cantarell-Oblique" font-style="italic" font-size="36.0" fill="#889AA4" transform="matrix(1.00, 0.00, -0.00, -1.00, 907.6, 83.0)">n</text><text xml:space="preserve" font-family="Cantarell-Oblique" font-style="italic" font-size="36.0" fill="#889AA4" transform="matrix(1.00, 0.00, -0.00, -1.00, 928.0, 83.0)"> </text><text xml:space="preserve" font-family="Cantarell-Oblique" font-style="italic" font-size="36.0" fill="#889AA4" transform="matrix(1.00, 0.00, -0.00, -1.00, 937.9, 83.0)">b</text><text xml:space="preserve" font-family="Cantarell-Oblique" font-style="italic" font-size="36.0" fill="#889AA4" transform="matrix(1.00, 0.00, -0.00, -1.00, 958.4, 83.0)">e</text><text xml:space="preserve" font-family="Cantarell-Oblique" font-style="italic" font-size="36.0" fill="#889AA4" transform="matrix(1.00, 0.00, -0.00, -1.00, 977.6, 83.0)"> </text><text xml:space="preserve" font-family="Cantarell-Oblique" font-style="italic" font-size="36.0" fill="#889AA4" transform="matrix(1.00, 0.00, -0.00, -1.00, 987.4, 83.0)">a</text><text xml:space="preserve" font-family="Cantarell-Oblique" font-style="italic" font-size="36.0" fill="#889AA4" transform="matrix(1.00, 0.00, -0.00, -1.00, 1006.0, 83.0)">d</text><text xml:space="preserve" font-family="Cantarell-Oblique" font-style="italic" font-size="36.0" fill="#889AA4" transform="matrix(1.00, 0.00, -0.00, -1.00, 1026.7, 83.0)">d</text><text xml:space="preserve" font-family="Cantarell-Oblique" font-style="italic" font-size="36.0" fill="#889AA4" transform="matrix(1.00, 0.00, -0.00, -1.00, 1047.3, 83.0)">e</text><text xml:space="preserve" font-family="Cantarell-Oblique" font-style="italic" font-size="36.0" fill="#889AA4" transform="matrix(1.00, 0.00, -0.00, -1.00, 1066.5, 83.0)">d</text><text xml:space="preserve" font-family="Cantarell-Oblique" font-style="italic" font-size="36.0" fill="#889AA4" transform="matrix(1.00, 0.00, -0.00, -1.00, 1087.1, 83.0)"> </text><text xml:space="preserve" font-family="Cantarell-Oblique" font-style="italic" font-size="36.0" fill="#889AA4" transform="matrix(1.00, 0.00, -0.00, -1.00, 1097.0, 83.0)">a</text><text xml:space="preserve" font-family="Cantarell-Oblique" font-style="italic" font-size="36.0" fill="#889AA4" transform="matrix(1.00, 0.00, -0.00, -1.00, 1115.6, 83.0)">t</text><text xml:space="preserve" font-family="Cantarell-Oblique" font-style="italic" font-size="36.0" fill="#889AA4" transform="matrix(1.00, 0.00, -0.00, -1.00, 1128.9, 83.0)"> </text><text xml:space="preserve" font-family="Cantarell-Oblique" font-style="italic" font-size="36.0" fill="#889AA4" transform="matrix(1.00, 0.00, -0.00, -1.00, 1138.8, 83.0)">d</text><text xml:space="preserve" font-family="Cantarell-Oblique" font-style="italic" font-size="36.0" fill="#889AA4" transform="matrix(1.00, 0.00, -0.00, -1.00, 1159.5, 83.0)">i</text><text xml:space="preserve" font-family="Cantarell-Oblique" font-style="italic" font-size="36.0" fill="#889AA4" transform="matrix(1.00, 0.00, -0.00, -1.00, 1168.7, 83.0)">f</text><text xml:space="preserve" font-family="Cantarell-Oblique" font-style="italic" font-size="36.0" fill="#889AA4" transform="matrix(1.00, 0.00, -0.00, -1.00, 1182.7, 83.0)">f</text><text xml:space="preserve" font-family="Cantarell-Oblique" font-style="italic" font-size="36.0" fill="#889AA4" transform="matrix(1.00, 0.00, -0.00, -1.00, 1196.8, 83.0)">e</text><text xml:space="preserve" font-family="Cantarell-Oblique" font-style="italic" font-size="36.0" fill="#889AA4" transform="matrix(1.00, 0.00, -0.00, -1.00, 1215.9, 83.0)">r</text><text xml:space="preserve" font-family="Cantarell-Oblique" font-style="italic" font-size="36.0" fill="#889AA4" transform="matrix(1.00, 0.00, -0.00, -1.00, 1229.8, 83.0)">e</text><text xml:space="preserve" font-family="Cantarell-Oblique" font-style="italic" font-size="36.0" fill="#889AA4" transform="matrix(1.00, 0.00, -0.00, -1.00, 1249.0, 83.0)">n</text><text xml:space="preserve" font-family="Cantarell-Oblique" font-style="italic" font-size="36.0" fill="#889AA4" transform="matrix(1.00, 0.00, -0.00, -1.00, 1269.4, 83.0)">t</text><text xml:space="preserve" font-family="Cantarell-Oblique" font-style="italic" font-size="36.0" fill="#889AA4" transform="matrix(1.00, 0.00, -0.00, -1.00, 1282.8, 83.0)"> </text><text xml:space="preserve" font-family="Cantarell-Oblique" font-style="italic" font-size="36.0" fill="#889AA4" transform="matrix(1.00, 0.00, -0.00, -1.00, 1292.6, 83.0)">p</text><text xml:space="preserve" font-family="Cantarell-Oblique" font-style="italic" font-size="36.0" fill="#889AA4" transform="matrix(1.00, 0.00, -0.00, -1.00, 1313.1, 83.0)">o</text><text xml:space="preserve" font-family="Cantarell-Oblique" font-style="italic" font-size="36.0" fill="#889AA4" transform="matrix(1.00, 0.00, -0.00, -1.00, 1334.1, 83.0)">i</text><text xml:space="preserve" font-family="Cantarell-Oblique" font-style="italic" font-size="36.0" fill="#889AA4" transform="matrix(1.00, 0.00, -0.00, -1.00, 1343.3, 83.0)">n</text><text xml:space="preserve" font-family="Cantarell-Oblique" font-style="italic" font-size="36.0" fill="#889AA4" transform="matrix(1.00, 0.00, -0.00, -1.00, 1363.7, 83.0)">t</text><text xml:space="preserve" font-family="Cantarell-Oblique" font-style="italic" font-size="36.0" fill="#889AA4" transform="matrix(1.00, 0.00, -0.00, -1.00, 1377.1, 83.0)">s</text></g></svg>