<?xml version="1.0" encoding="UTF-8" standalone="no"?><svg xmlns="http://www.w3.org/2000/svg" xmlns:xlink="http://www.w3.org/1999/xlink" clip-rule="evenodd" stroke-miterlimit="4.00" viewBox="0 0 1165 138"><desc>SVG generated by Keynote</desc><defs></defs><g transform="matrix(1.00, 0.00, -0.00, -1.00, 0.0, 138.0)"><g><clipPath id="clip-419"><path d="M -6.0 68.5 L 1099.1 68.5 L 1099.1 144.1 L -6.0 144.1 Z M -6.0 68.5 "></path></clipPath><g clip-path="url(#clip-419)"><text xml:space="preserve" font-family="Cantarell-Regular" font-size="36.0" fill="#DCDDE0" transform="matrix(1.00, 0.00, -0.00, -1.00, 22.0, 94.0)">B</text><text xml:space="preserve" font-family="Cantarell-Regular" font-size="36.0" fill="#DCDDE0" transform="matrix(1.00, 0.00, -0.00, -1.00, 47.0, 94.0)">u</text><text xml:space="preserve" font-family="Cantarell-Regular" font-size="36.0" fill="#DCDDE0" transform="matrix(1.00, 0.00, -0.00, -1.00, 67.7, 94.0)">t</text><text xml:space="preserve" font-family="Cantarell-Regular" font-size="36.0" fill="#DCDDE0" transform="matrix(1.00, 0.00, -0.00, -1.00, 81.3, 94.0)">…</text></g></g><g><clipPath id="clip-420"><path d="M 66.4 -9.9 L 1171.5 -9.9 L 1171.5 65.7 L 66.4 65.7 Z M 66.4 -9.9 "></path></clipPath><g clip-path="url(#clip-420)"><text xml:space="preserve" font-family="ArialMT" font-size="36.0" fill="#009ED8" transform="matrix(1.00, 0.00, -0.00, -1.00, 78.2, 17.0)">•</text><text xml:space="preserve" font-family="Cantarell-Regular" font-size="36.0" fill="#889AA4" transform="matrix(1.00, 0.00, -0.00, -1.00, 94.0, 15.0)"> </text><text xml:space="preserve" font-family="Cantarell-Regular" font-size="36.0" fill="#889AA4" transform="matrix(1.00, 0.00, -0.00, -1.00, 103.9, 15.0)">D</text><text xml:space="preserve" font-family="Cantarell-Regular" font-size="36.0" fill="#889AA4" transform="matrix(1.00, 0.00, -0.00, -1.00, 132.1, 15.0)">a</text><text xml:space="preserve" font-family="Cantarell-Regular" font-size="36.0" fill="#889AA4" transform="matrix(1.00, 0.00, -0.00, -1.00, 150.9, 15.0)">t</text><text xml:space="preserve" font-family="Cantarell-Regular" font-size="36.0" fill="#889AA4" transform="matrix(1.00, 0.00, -0.00, -1.00, 164.5, 15.0)">a</text><text xml:space="preserve" font-family="Cantarell-Regular" font-size="36.0" fill="#889AA4" transform="matrix(1.00, 0.00, -0.00, -1.00, 183.3, 15.0)">b</text><text xml:space="preserve" font-family="Cantarell-Regular" font-size="36.0" fill="#889AA4" transform="matrix(1.00, 0.00, -0.00, -1.00, 204.1, 15.0)">a</text><text xml:space="preserve" font-family="Cantarell-Regular" font-size="36.0" fill="#889AA4" transform="matrix(1.00, 0.00, -0.00, -1.00, 222.9, 15.0)">s</text><text xml:space="preserve" font-family="Cantarell-Regular" font-size="36.0" fill="#889AA4" transform="matrix(1.00, 0.00, -0.00, -1.00, 240.7, 15.0)">e</text><text xml:space="preserve" font-family="Cantarell-Regular" font-size="36.0" fill="#889AA4" transform="matrix(1.00, 0.00, -0.00, -1.00, 260.1, 15.0)"> </text><text xml:space="preserve" font-family="Cantarell-Regular" font-size="36.0" fill="#889AA4" transform="matrix(1.00, 0.00, -0.00, -1.00, 270.0, 15.0)">s</text><text xml:space="preserve" font-family="Cantarell-Regular" font-size="36.0" fill="#889AA4" transform="matrix(1.00, 0.00, -0.00, -1.00, 287.8, 15.0)">t</text><text xml:space="preserve" font-family="Cantarell-Regular" font-size="36.0" fill="#889AA4" transform="matrix(1.00, 0.00, -0.00, -1.00, 301.5, 15.0)">a</text><text xml:space="preserve" font-family="Cantarell-Regular" font-size="36.0" fill="#889AA4" transform="matrix(1.00, 0.00, -0.00, -1.00, 320.3, 15.0)">t</text><text xml:space="preserve" font-family="Cantarell-Regular" font-size="36.0" fill="#889AA4" transform="matrix(1.00, 0.00, -0.00, -1.00, 333.9, 15.0)">e</text><text xml:space="preserve" font-family="Cantarell-Regular" font-size="36.0" fill="#889AA4" transform="matrix(1.00, 0.00, -0.00, -1.00, 353.3, 15.0)"> </text><text xml:space="preserve" font-family="Cantarell-Regular" font-size="36.0" fill="#889AA4" transform="matrix(1.00, 0.00, -0.00, -1.00, 363.1, 15.0)">i</text><text xml:space="preserve" font-family="Cantarell-Regular" font-size="36.0" fill="#889AA4" transform="matrix(1.00, 0.00, -0.00, -1.00, 372.4, 15.0)">s</text><text xml:space="preserve" font-family="Cantarell-Regular" font-size="36.0" fill="#889AA4" transform="matrix(1.00, 0.00, -0.00, -1.00, 390.2, 15.0)"> </text><text xml:space="preserve" font-family="Cantarell-Regular" font-size="36.0" fill="#889AA4" transform="matrix(1.00, 0.00, -0.00, -1.00, 400.1, 15.0)">s</text><text xml:space="preserve" font-family="Cantarell-Regular" font-size="36.0" fill="#889AA4" transform="matrix(1.00, 0.00, -0.00, -1.00, 417.9, 15.0)">t</text><text xml:space="preserve" font-family="Cantarell-Regular" font-size="36.0" fill="#889AA4" transform="matrix(1.00, 0.00, -0.00, -1.00, 431.6, 15.0)">i</text><text xml:space="preserve" font-family="Cantarell-Regular" font-size="36.0" fill="#889AA4" transform="matrix(1.00, 0.00, -0.00, -1.00, 440.8, 15.0)">l</text><text xml:space="preserve" font-family="Cantarell-Regular" font-size="36.0" fill="#889AA4" transform="matrix(1.00, 0.00, -0.00, -1.00, 450.7, 15.0)">l</text><text xml:space="preserve" font-family="Cantarell-Regular" font-size="36.0" fill="#889AA4" transform="matrix(1.00, 0.00, -0.00, -1.00, 460.6, 15.0)"> </text><text xml:space="preserve" font-family="Cantarell-Regular" font-size="36.0" fill="#889AA4" transform="matrix(1.00, 0.00, -0.00, -1.00, 470.5, 15.0)">u</text><text xml:space="preserve" font-family="Cantarell-Regular" font-size="36.0" fill="#889AA4" transform="matrix(1.00, 0.00, -0.00, -1.00, 491.2, 15.0)">p</text><text xml:space="preserve" font-family="Cantarell-Regular" font-size="36.0" fill="#889AA4" transform="matrix(1.00, 0.00, -0.00, -1.00, 511.9, 15.0)"> </text><text xml:space="preserve" font-family="Cantarell-Regular" font-size="36.0" fill="#889AA4" transform="matrix(1.00, 0.00, -0.00, -1.00, 521.7, 15.0)">t</text><text xml:space="preserve" font-family="Cantarell-Regular" font-size="36.0" fill="#889AA4" transform="matrix(1.00, 0.00, -0.00, -1.00, 535.3, 15.0)">o</text><text xml:space="preserve" font-family="Cantarell-Regular" font-size="36.0" fill="#889AA4" transform="matrix(1.00, 0.00, -0.00, -1.00, 556.6, 15.0)"> </text><text xml:space="preserve" font-family="Cantarell-Regular" font-size="36.0" fill="#889AA4" transform="matrix(1.00, 0.00, -0.00, -1.00, 566.5, 15.0)">y</text><text xml:space="preserve" font-family="Cantarell-Regular" font-size="36.0" fill="#889AA4" transform="matrix(1.00, 0.00, -0.00, -1.00, 585.1, 15.0)">o</text><text xml:space="preserve" font-family="Cantarell-Regular" font-size="36.0" fill="#889AA4" transform="matrix(1.00, 0.00, -0.00, -1.00, 606.4, 15.0)">u</text></g></g></g></svg>