<?xml version="1.0" encoding="UTF-8" standalone="no"?><svg xmlns="http://www.w3.org/2000/svg" xmlns:xlink="http://www.w3.org/1999/xlink" clip-rule="evenodd" stroke-miterlimit="4.00" viewBox="0 0 70 70"><desc>SVG generated by Keynote</desc><defs></defs><g transform="matrix(1.00, 0.00, -0.00, -1.00, 0.0, 70.0)"><g><clipPath id="clip-38"><path d="M 0.0 0.4 L 69.1 0.4 L 69.1 69.5 L 0.0 69.5 Z M 0.0 0.4 "></path></clipPath><g clip-path="url(#clip-38)"><path d="M 58.3 58.6 C 71.4 45.5 71.4 24.3 58.3 11.2 C 45.2 -1.9 23.9 -1.9 10.8 11.2 C -2.3 24.3 -2.3 45.5 10.8 58.6 C 23.9 71.7 45.2 71.7 58.3 58.6 " fill="#889AA4"></path></g></g><g><clipPath id="clip-39"><path d="M 35.8 53.5 L 54.4 34.9 L 35.8 16.2 L 17.1 34.9 Z M 35.8 53.5 "></path></clipPath><g clip-path="url(#clip-39)"><path d="M 35.8 52.1 L 40.7 47.2 L 28.0 34.4 L 40.3 22.1 L 35.8 17.6 L 18.5 34.9 Z M 35.8 52.1 " fill="#FEFFFF"></path></g></g></g></svg>