<?xml version="1.0" encoding="UTF-8" standalone="no"?><svg xmlns="http://www.w3.org/2000/svg" xmlns:xlink="http://www.w3.org/1999/xlink" clip-rule="evenodd" stroke-miterlimit="4.00" viewBox="0 0 969 273"><desc>SVG generated by Keynote</desc><defs></defs><g transform="matrix(1.00, 0.00, -0.00, -1.00, 0.0, 273.0)"><g><clipPath id="clip-41"><path d="M 0.5 175.9 L 97.5 175.9 L 97.5 272.9 L 0.5 272.9 Z M 0.5 175.9 "></path></clipPath><g clip-path="url(#clip-41)"><path d="M 82.6 258.0 C 101.1 239.4 101.1 209.4 82.6 190.8 C 64.0 172.3 34.0 172.3 15.4 190.8 C -3.1 209.4 -3.1 239.4 15.4 258.0 C 34.0 276.5 64.0 276.5 82.6 258.0 " fill="#8DC643"></path></g></g><g><clipPath id="clip-42"><path d="M -3.4 176.9 L 101.4 176.9 L 101.4 271.9 L -3.4 271.9 Z M -3.4 176.9 "></path></clipPath><g clip-path="url(#clip-42)"><text xml:space="preserve" font-family="WebHostingHub-Glyphs" font-size="37.0" fill="#FEFFFF" transform="matrix(1.00, 0.00, -0.00, -1.00, 30.0, 207.0)"></text></g></g><g><clipPath id="clip-43"><path d="M 104.9 1.5 L 969.8 1.5 L 969.8 264.7 L 104.9 264.7 Z M 104.9 1.5 "></path></clipPath><g clip-path="url(#clip-43)"><text xml:space="preserve" font-family="Novecentosanswide-Medium" font-size="42.0" fill="#FEFFFF" transform="matrix(1.00, 0.00, -0.00, -1.00, 117.0, 209.0)">C</text><text xml:space="preserve" font-family="Novecentosanswide-Medium" font-size="42.0" fill="#FEFFFF" transform="matrix(1.00, 0.00, -0.00, -1.00, 148.6, 209.0)">o</text><text xml:space="preserve" font-family="Novecentosanswide-Medium" font-size="42.0" fill="#FEFFFF" transform="matrix(1.00, 0.00, -0.00, -1.00, 176.4, 209.0)">n</text><text xml:space="preserve" font-family="Novecentosanswide-Medium" font-size="42.0" fill="#FEFFFF" transform="matrix(1.00, 0.00, -0.00, -1.00, 203.3, 209.0)">s</text><text xml:space="preserve" font-family="Novecentosanswide-Medium" font-size="42.0" fill="#FEFFFF" transform="matrix(1.00, 0.00, -0.00, -1.00, 224.8, 209.0)">i</text><text xml:space="preserve" font-family="Novecentosanswide-Medium" font-size="42.0" fill="#FEFFFF" transform="matrix(1.00, 0.00, -0.00, -1.00, 235.1, 209.0)">s</text><text xml:space="preserve" font-family="Novecentosanswide-Medium" font-size="42.0" fill="#FEFFFF" transform="matrix(1.00, 0.00, -0.00, -1.00, 256.0, 209.0)">t</text><text xml:space="preserve" font-family="Novecentosanswide-Medium" font-size="42.0" fill="#FEFFFF" transform="matrix(1.00, 0.00, -0.00, -1.00, 279.2, 209.0)">e</text><text xml:space="preserve" font-family="Novecentosanswide-Medium" font-size="42.0" fill="#FEFFFF" transform="matrix(1.00, 0.00, -0.00, -1.00, 301.5, 209.0)">n</text><text xml:space="preserve" font-family="Novecentosanswide-Medium" font-size="42.0" fill="#FEFFFF" transform="matrix(1.00, 0.00, -0.00, -1.00, 328.4, 209.0)">c</text><text xml:space="preserve" font-family="Novecentosanswide-Medium" font-size="42.0" fill="#FEFFFF" transform="matrix(1.00, 0.00, -0.00, -1.00, 354.8, 209.0)">y</text><text xml:space="preserve" font-family="Novecentosanswide-Medium" font-size="42.0" fill="#FEFFFF" transform="matrix(1.00, 0.00, -0.00, -1.00, 378.2, 209.0)"> </text><text xml:space="preserve" font-family="ArialMT" font-size="36.0" fill="#009ED8" transform="matrix(1.00, 0.00, -0.00, -1.00, 117.5, 134.2)">•</text><text xml:space="preserve" font-family="Cantarell-Regular" font-size="36.0" fill="#889AA4" transform="matrix(1.00, 0.00, -0.00, -1.00, 133.0, 133.0)"> </text><text xml:space="preserve" font-family="Cantarell-Regular" font-size="36.0" fill="#889AA4" transform="matrix(1.00, 0.00, -0.00, -1.00, 142.9, 133.0)">R</text><text xml:space="preserve" font-family="Cantarell-Regular" font-size="36.0" fill="#889AA4" transform="matrix(1.00, 0.00, -0.00, -1.00, 168.1, 133.0)">e</text><text xml:space="preserve" font-family="Cantarell-Regular" font-size="36.0" fill="#889AA4" transform="matrix(1.00, 0.00, -0.00, -1.00, 187.5, 133.0)">d</text><text xml:space="preserve" font-family="Cantarell-Regular" font-size="36.0" fill="#889AA4" transform="matrix(1.00, 0.00, -0.00, -1.00, 208.4, 133.0)">u</text><text xml:space="preserve" font-family="Cantarell-Regular" font-size="36.0" fill="#889AA4" transform="matrix(1.00, 0.00, -0.00, -1.00, 229.1, 133.0)">c</text><text xml:space="preserve" font-family="Cantarell-Regular" font-size="36.0" fill="#889AA4" transform="matrix(1.00, 0.00, -0.00, -1.00, 246.7, 133.0)">e</text><text xml:space="preserve" font-family="Cantarell-Regular" font-size="36.0" fill="#889AA4" transform="matrix(1.00, 0.00, -0.00, -1.00, 266.0, 133.0)">s</text><text xml:space="preserve" font-family="Cantarell-Regular" font-size="36.0" fill="#889AA4" transform="matrix(1.00, 0.00, -0.00, -1.00, 283.9, 133.0)"> </text><text xml:space="preserve" font-family="Cantarell-Regular" font-size="36.0" fill="#889AA4" transform="matrix(1.00, 0.00, -0.00, -1.00, 293.8, 133.0)">r</text><text xml:space="preserve" font-family="Cantarell-Regular" font-size="36.0" fill="#889AA4" transform="matrix(1.00, 0.00, -0.00, -1.00, 307.8, 133.0)">i</text><text xml:space="preserve" font-family="Cantarell-Regular" font-size="36.0" fill="#889AA4" transform="matrix(1.00, 0.00, -0.00, -1.00, 317.1, 133.0)">s</text><text xml:space="preserve" font-family="Cantarell-Regular" font-size="36.0" fill="#889AA4" transform="matrix(1.00, 0.00, -0.00, -1.00, 334.9, 133.0)">k</text><text xml:space="preserve" font-family="Cantarell-Regular" font-size="36.0" fill="#889AA4" transform="matrix(1.00, 0.00, -0.00, -1.00, 353.8, 133.0)">,</text><text xml:space="preserve" font-family="Cantarell-Regular" font-size="36.0" fill="#889AA4" transform="matrix(1.00, 0.00, -0.00, -1.00, 363.8, 133.0)"> </text><text xml:space="preserve" font-family="Cantarell-Regular" font-size="36.0" fill="#889AA4" transform="matrix(1.00, 0.00, -0.00, -1.00, 373.7, 133.0)">w</text><text xml:space="preserve" font-family="Cantarell-Regular" font-size="36.0" fill="#889AA4" transform="matrix(1.00, 0.00, -0.00, -1.00, 403.3, 133.0)">h</text><text xml:space="preserve" font-family="Cantarell-Regular" font-size="36.0" fill="#889AA4" transform="matrix(1.00, 0.00, -0.00, -1.00, 424.2, 133.0)">i</text><text xml:space="preserve" font-family="Cantarell-Regular" font-size="36.0" fill="#889AA4" transform="matrix(1.00, 0.00, -0.00, -1.00, 433.4, 133.0)">c</text><text xml:space="preserve" font-family="Cantarell-Regular" font-size="36.0" fill="#889AA4" transform="matrix(1.00, 0.00, -0.00, -1.00, 451.0, 133.0)">h</text><text xml:space="preserve" font-family="Cantarell-Regular" font-size="36.0" fill="#889AA4" transform="matrix(1.00, 0.00, -0.00, -1.00, 471.9, 133.0)"> </text><text xml:space="preserve" font-family="Cantarell-Regular" font-size="36.0" fill="#889AA4" transform="matrix(1.00, 0.00, -0.00, -1.00, 481.8, 133.0)">r</text><text xml:space="preserve" font-family="Cantarell-Regular" font-size="36.0" fill="#889AA4" transform="matrix(1.00, 0.00, -0.00, -1.00, 495.8, 133.0)">e</text><text xml:space="preserve" font-family="Cantarell-Regular" font-size="36.0" fill="#889AA4" transform="matrix(1.00, 0.00, -0.00, -1.00, 515.2, 133.0)">d</text><text xml:space="preserve" font-family="Cantarell-Regular" font-size="36.0" fill="#889AA4" transform="matrix(1.00, 0.00, -0.00, -1.00, 536.1, 133.0)">u</text><text xml:space="preserve" font-family="Cantarell-Regular" font-size="36.0" fill="#889AA4" transform="matrix(1.00, 0.00, -0.00, -1.00, 556.8, 133.0)">c</text><text xml:space="preserve" font-family="Cantarell-Regular" font-size="36.0" fill="#889AA4" transform="matrix(1.00, 0.00, -0.00, -1.00, 574.4, 133.0)">e</text><text xml:space="preserve" font-family="Cantarell-Regular" font-size="36.0" fill="#889AA4" transform="matrix(1.00, 0.00, -0.00, -1.00, 593.8, 133.0)">s</text><text xml:space="preserve" font-family="Cantarell-Regular" font-size="36.0" fill="#889AA4" transform="matrix(1.00, 0.00, -0.00, -1.00, 611.6, 133.0)"> </text><text xml:space="preserve" font-family="Cantarell-Regular" font-size="36.0" fill="#889AA4" transform="matrix(1.00, 0.00, -0.00, -1.00, 621.5, 133.0)">a</text><text xml:space="preserve" font-family="Cantarell-Regular" font-size="36.0" fill="#889AA4" transform="matrix(1.00, 0.00, -0.00, -1.00, 640.3, 133.0)">n</text><text xml:space="preserve" font-family="Cantarell-Regular" font-size="36.0" fill="#889AA4" transform="matrix(1.00, 0.00, -0.00, -1.00, 660.9, 133.0)">x</text><text xml:space="preserve" font-family="Cantarell-Regular" font-size="36.0" fill="#889AA4" transform="matrix(1.00, 0.00, -0.00, -1.00, 679.4, 133.0)">i</text><text xml:space="preserve" font-family="Cantarell-Regular" font-size="36.0" fill="#889AA4" transform="matrix(1.00, 0.00, -0.00, -1.00, 688.6, 133.0)">e</text><text xml:space="preserve" font-family="Cantarell-Regular" font-size="36.0" fill="#889AA4" transform="matrix(1.00, 0.00, -0.00, -1.00, 707.9, 133.0)">t</text><text xml:space="preserve" font-family="Cantarell-Regular" font-size="36.0" fill="#889AA4" transform="matrix(1.00, 0.00, -0.00, -1.00, 721.6, 133.0)">y</text><text xml:space="preserve" font-family="Cantarell-Regular" font-size="36.0" fill="#889AA4" transform="matrix(1.00, 0.00, -0.00, -1.00, 740.2, 133.0)"> </text><text xml:space="preserve" font-family="Cantarell-Regular" font-size="36.0" fill="#889AA4" transform="matrix(1.00, 0.00, -0.00, -1.00, 750.0, 133.0)">a</text><text xml:space="preserve" font-family="Cantarell-Regular" font-size="36.0" fill="#889AA4" transform="matrix(1.00, 0.00, -0.00, -1.00, 768.8, 133.0)">n</text><text xml:space="preserve" font-family="Cantarell-Regular" font-size="36.0" fill="#889AA4" transform="matrix(1.00, 0.00, -0.00, -1.00, 789.5, 133.0)">d</text><text xml:space="preserve" font-family="Cantarell-Regular" font-size="36.0" fill="#889AA4" transform="matrix(1.00, 0.00, -0.00, -1.00, 810.4, 133.0)"> </text><text xml:space="preserve" font-family="Cantarell-Regular" font-size="36.0" fill="#889AA4" transform="matrix(1.00, 0.00, -0.00, -1.00, 820.3, 133.0)">s</text><text xml:space="preserve" font-family="Cantarell-Regular" font-size="36.0" fill="#889AA4" transform="matrix(1.00, 0.00, -0.00, -1.00, 838.1, 133.0)">t</text><text xml:space="preserve" font-family="Cantarell-Regular" font-size="36.0" fill="#889AA4" transform="matrix(1.00, 0.00, -0.00, -1.00, 851.8, 133.0)">r</text><text xml:space="preserve" font-family="Cantarell-Regular" font-size="36.0" fill="#889AA4" transform="matrix(1.00, 0.00, -0.00, -1.00, 865.8, 133.0)">e</text><text xml:space="preserve" font-family="Cantarell-Regular" font-size="36.0" fill="#889AA4" transform="matrix(1.00, 0.00, -0.00, -1.00, 885.2, 133.0)">s</text><text xml:space="preserve" font-family="Cantarell-Regular" font-size="36.0" fill="#889AA4" transform="matrix(1.00, 0.00, -0.00, -1.00, 903.1, 133.0)">s</text><text xml:space="preserve" font-family="Cantarell-Regular" font-size="36.0" fill="#889AA4" transform="matrix(1.00, 0.00, -0.00, -1.00, 920.9, 133.0)"> </text><text xml:space="preserve" font-family="ArialMT" font-size="36.0" fill="#009ED8" transform="matrix(1.00, 0.00, -0.00, -1.00, 117.5, 52.2)">•</text><text xml:space="preserve" font-family="Cantarell-Regular" font-size="36.0" fill="#889AA4" transform="matrix(1.00, 0.00, -0.00, -1.00, 133.0, 51.0)"> </text><text xml:space="preserve" font-family="Cantarell-Regular" font-size="36.0" fill="#889AA4" transform="matrix(1.00, 0.00, -0.00, -1.00, 142.9, 51.0)">A</text><text xml:space="preserve" font-family="Cantarell-Regular" font-size="36.0" fill="#889AA4" transform="matrix(1.00, 0.00, -0.00, -1.00, 167.2, 51.0)">l</text><text xml:space="preserve" font-family="Cantarell-Regular" font-size="36.0" fill="#889AA4" transform="matrix(1.00, 0.00, -0.00, -1.00, 177.1, 51.0)">l</text><text xml:space="preserve" font-family="Cantarell-Regular" font-size="36.0" fill="#889AA4" transform="matrix(1.00, 0.00, -0.00, -1.00, 187.0, 51.0)">o</text><text xml:space="preserve" font-family="Cantarell-Regular" font-size="36.0" fill="#889AA4" transform="matrix(1.00, 0.00, -0.00, -1.00, 208.3, 51.0)">w</text><text xml:space="preserve" font-family="Cantarell-Regular" font-size="36.0" fill="#889AA4" transform="matrix(1.00, 0.00, -0.00, -1.00, 237.9, 51.0)">s</text><text xml:space="preserve" font-family="Cantarell-Regular" font-size="36.0" fill="#889AA4" transform="matrix(1.00, 0.00, -0.00, -1.00, 255.8, 51.0)"> </text><text xml:space="preserve" font-family="Cantarell-Regular" font-size="36.0" fill="#889AA4" transform="matrix(1.00, 0.00, -0.00, -1.00, 265.7, 51.0)">f</text><text xml:space="preserve" font-family="Cantarell-Regular" font-size="36.0" fill="#889AA4" transform="matrix(1.00, 0.00, -0.00, -1.00, 280.1, 51.0)">o</text><text xml:space="preserve" font-family="Cantarell-Regular" font-size="36.0" fill="#889AA4" transform="matrix(1.00, 0.00, -0.00, -1.00, 301.4, 51.0)">r</text><text xml:space="preserve" font-family="Cantarell-Regular" font-size="36.0" fill="#889AA4" transform="matrix(1.00, 0.00, -0.00, -1.00, 315.5, 51.0)"> </text><text xml:space="preserve" font-family="Cantarell-Regular" font-size="36.0" fill="#889AA4" transform="matrix(1.00, 0.00, -0.00, -1.00, 325.3, 51.0)">a</text><text xml:space="preserve" font-family="Cantarell-Regular" font-size="36.0" fill="#889AA4" transform="matrix(1.00, 0.00, -0.00, -1.00, 344.1, 51.0)">u</text><text xml:space="preserve" font-family="Cantarell-Regular" font-size="36.0" fill="#889AA4" transform="matrix(1.00, 0.00, -0.00, -1.00, 364.8, 51.0)">t</text><text xml:space="preserve" font-family="Cantarell-Regular" font-size="36.0" fill="#889AA4" transform="matrix(1.00, 0.00, -0.00, -1.00, 378.4, 51.0)">o</text><text xml:space="preserve" font-family="Cantarell-Regular" font-size="36.0" fill="#889AA4" transform="matrix(1.00, 0.00, -0.00, -1.00, 399.7, 51.0)">m</text><text xml:space="preserve" font-family="Cantarell-Regular" font-size="36.0" fill="#889AA4" transform="matrix(1.00, 0.00, -0.00, -1.00, 430.2, 51.0)">a</text><text xml:space="preserve" font-family="Cantarell-Regular" font-size="36.0" fill="#889AA4" transform="matrix(1.00, 0.00, -0.00, -1.00, 449.0, 51.0)">t</text><text xml:space="preserve" font-family="Cantarell-Regular" font-size="36.0" fill="#889AA4" transform="matrix(1.00, 0.00, -0.00, -1.00, 462.6, 51.0)">i</text><text xml:space="preserve" font-family="Cantarell-Regular" font-size="36.0" fill="#889AA4" transform="matrix(1.00, 0.00, -0.00, -1.00, 471.8, 51.0)">o</text><text xml:space="preserve" font-family="Cantarell-Regular" font-size="36.0" fill="#889AA4" transform="matrix(1.00, 0.00, -0.00, -1.00, 493.1, 51.0)">n</text></g></g></g></svg>