<?xml version="1.0" encoding="UTF-8" standalone="no"?><svg xmlns="http://www.w3.org/2000/svg" xmlns:xlink="http://www.w3.org/1999/xlink" clip-rule="evenodd" stroke-miterlimit="4.00" viewBox="0 0 404 197"><desc>SVG generated by Keynote</desc><defs></defs><g transform="matrix(1.00, 0.00, -0.00, -1.00, 0.0, 197.0)"><text xml:space="preserve" font-family="Novecentosanswide-Medium" font-size="42.0" fill="#FEFFFF" transform="matrix(1.00, 0.00, -0.00, -1.00, 0.0, 165.0)">S</text><text xml:space="preserve" font-family="Novecentosanswide-Medium" font-size="42.0" fill="#FEFFFF" transform="matrix(1.00, 0.00, -0.00, -1.00, 25.4, 165.0)">p</text><text xml:space="preserve" font-family="Novecentosanswide-Medium" font-size="42.0" fill="#FEFFFF" transform="matrix(1.00, 0.00, -0.00, -1.00, 47.1, 165.0)">e</text><text xml:space="preserve" font-family="Novecentosanswide-Medium" font-size="42.0" fill="#FEFFFF" transform="matrix(1.00, 0.00, -0.00, -1.00, 69.4, 165.0)">e</text><text xml:space="preserve" font-family="Novecentosanswide-Medium" font-size="42.0" fill="#FEFFFF" transform="matrix(1.00, 0.00, -0.00, -1.00, 91.7, 165.0)">d</text><text xml:space="preserve" font-family="Cantarell-Regular" font-size="36.0" fill="#DFDFDF" transform="matrix(1.00, 0.00, -0.00, -1.00, 117.8, 165.0)"> </text><text xml:space="preserve" font-family="ArialMT" font-size="36.0" fill="#009ED8" transform="matrix(1.00, 0.00, -0.00, -1.00, 0.5, 90.3)">•</text><text xml:space="preserve" font-family="Cantarell-Regular" font-size="36.0" fill="#889AA4" transform="matrix(1.00, 0.00, -0.00, -1.00, 16.0, 89.0)"> </text><text xml:space="preserve" font-family="Cantarell-Regular" font-size="36.0" fill="#889AA4" transform="matrix(1.00, 0.00, -0.00, -1.00, 25.9, 89.0)">R</text><text xml:space="preserve" font-family="Cantarell-Regular" font-size="36.0" fill="#889AA4" transform="matrix(1.00, 0.00, -0.00, -1.00, 51.1, 89.0)">e</text><text xml:space="preserve" font-family="Cantarell-Regular" font-size="36.0" fill="#889AA4" transform="matrix(1.00, 0.00, -0.00, -1.00, 70.5, 89.0)">d</text><text xml:space="preserve" font-family="Cantarell-Regular" font-size="36.0" fill="#889AA4" transform="matrix(1.00, 0.00, -0.00, -1.00, 91.4, 89.0)">u</text><text xml:space="preserve" font-family="Cantarell-Regular" font-size="36.0" fill="#889AA4" transform="matrix(1.00, 0.00, -0.00, -1.00, 112.1, 89.0)">c</text><text xml:space="preserve" font-family="Cantarell-Regular" font-size="36.0" fill="#889AA4" transform="matrix(1.00, 0.00, -0.00, -1.00, 129.7, 89.0)">e</text><text xml:space="preserve" font-family="Cantarell-Regular" font-size="36.0" fill="#889AA4" transform="matrix(1.00, 0.00, -0.00, -1.00, 149.1, 89.0)">s</text><text xml:space="preserve" font-family="Cantarell-Regular" font-size="36.0" fill="#889AA4" transform="matrix(1.00, 0.00, -0.00, -1.00, 166.9, 89.0)"> </text><text xml:space="preserve" font-family="Cantarell-Regular" font-size="36.0" fill="#889AA4" transform="matrix(1.00, 0.00, -0.00, -1.00, 176.8, 89.0)">d</text><text xml:space="preserve" font-family="Cantarell-Regular" font-size="36.0" fill="#889AA4" transform="matrix(1.00, 0.00, -0.00, -1.00, 197.7, 89.0)">o</text><text xml:space="preserve" font-family="Cantarell-Regular" font-size="36.0" fill="#889AA4" transform="matrix(1.00, 0.00, -0.00, -1.00, 219.0, 89.0)">w</text><text xml:space="preserve" font-family="Cantarell-Regular" font-size="36.0" fill="#889AA4" transform="matrix(1.00, 0.00, -0.00, -1.00, 248.6, 89.0)">n</text><text xml:space="preserve" font-family="Cantarell-Regular" font-size="36.0" fill="#889AA4" transform="matrix(1.00, 0.00, -0.00, -1.00, 269.3, 89.0)">t</text><text xml:space="preserve" font-family="Cantarell-Regular" font-size="36.0" fill="#889AA4" transform="matrix(1.00, 0.00, -0.00, -1.00, 282.9, 89.0)">i</text><text xml:space="preserve" font-family="Cantarell-Regular" font-size="36.0" fill="#889AA4" transform="matrix(1.00, 0.00, -0.00, -1.00, 292.1, 89.0)">m</text><text xml:space="preserve" font-family="Cantarell-Regular" font-size="36.0" fill="#889AA4" transform="matrix(1.00, 0.00, -0.00, -1.00, 322.6, 89.0)">e</text><text xml:space="preserve" font-family="Cantarell-Regular" font-size="36.0" fill="#889AA4" transform="matrix(1.00, 0.00, -0.00, -1.00, 341.9, 89.0)"> </text><text xml:space="preserve" font-family="ArialMT" font-size="36.0" fill="#009ED8" transform="matrix(1.00, 0.00, -0.00, -1.00, 0.5, 8.3)">•</text><text xml:space="preserve" font-family="Cantarell-Regular" font-size="36.0" fill="#889AA4" transform="matrix(1.00, 0.00, -0.00, -1.00, 16.0, 7.0)"> </text><text xml:space="preserve" font-family="Cantarell-Regular" font-size="36.0" fill="#889AA4" transform="matrix(1.00, 0.00, -0.00, -1.00, 25.9, 7.0)">F</text><text xml:space="preserve" font-family="Cantarell-Regular" font-size="36.0" fill="#889AA4" transform="matrix(1.00, 0.00, -0.00, -1.00, 47.8, 7.0)">e</text><text xml:space="preserve" font-family="Cantarell-Regular" font-size="36.0" fill="#889AA4" transform="matrix(1.00, 0.00, -0.00, -1.00, 67.2, 7.0)">w</text><text xml:space="preserve" font-family="Cantarell-Regular" font-size="36.0" fill="#889AA4" transform="matrix(1.00, 0.00, -0.00, -1.00, 96.8, 7.0)">e</text><text xml:space="preserve" font-family="Cantarell-Regular" font-size="36.0" fill="#889AA4" transform="matrix(1.00, 0.00, -0.00, -1.00, 116.2, 7.0)">r</text><text xml:space="preserve" font-family="Cantarell-Regular" font-size="36.0" fill="#889AA4" transform="matrix(1.00, 0.00, -0.00, -1.00, 130.3, 7.0)"> </text><text xml:space="preserve" font-family="Cantarell-Regular" font-size="36.0" fill="#889AA4" transform="matrix(1.00, 0.00, -0.00, -1.00, 140.1, 7.0)">u</text><text xml:space="preserve" font-family="Cantarell-Regular" font-size="36.0" fill="#889AA4" transform="matrix(1.00, 0.00, -0.00, -1.00, 160.8, 7.0)">n</text><text xml:space="preserve" font-family="Cantarell-Regular" font-size="36.0" fill="#889AA4" transform="matrix(1.00, 0.00, -0.00, -1.00, 181.5, 7.0)">k</text><text xml:space="preserve" font-family="Cantarell-Regular" font-size="36.0" fill="#889AA4" transform="matrix(1.00, 0.00, -0.00, -1.00, 200.3, 7.0)">n</text><text xml:space="preserve" font-family="Cantarell-Regular" font-size="36.0" fill="#889AA4" transform="matrix(1.00, 0.00, -0.00, -1.00, 221.0, 7.0)">o</text><text xml:space="preserve" font-family="Cantarell-Regular" font-size="36.0" fill="#889AA4" transform="matrix(1.00, 0.00, -0.00, -1.00, 242.3, 7.0)">w</text><text xml:space="preserve" font-family="Cantarell-Regular" font-size="36.0" fill="#889AA4" transform="matrix(1.00, 0.00, -0.00, -1.00, 271.9, 7.0)">n</text><text xml:space="preserve" font-family="Cantarell-Regular" font-size="36.0" fill="#889AA4" transform="matrix(1.00, 0.00, -0.00, -1.00, 292.6, 7.0)"> </text><text xml:space="preserve" font-family="Cantarell-Regular" font-size="36.0" fill="#889AA4" transform="matrix(1.00, 0.00, -0.00, -1.00, 302.5, 7.0)">s</text><text xml:space="preserve" font-family="Cantarell-Regular" font-size="36.0" fill="#889AA4" transform="matrix(1.00, 0.00, -0.00, -1.00, 320.3, 7.0)">t</text><text xml:space="preserve" font-family="Cantarell-Regular" font-size="36.0" fill="#889AA4" transform="matrix(1.00, 0.00, -0.00, -1.00, 334.0, 7.0)">a</text><text xml:space="preserve" font-family="Cantarell-Regular" font-size="36.0" fill="#889AA4" transform="matrix(1.00, 0.00, -0.00, -1.00, 352.7, 7.0)">t</text><text xml:space="preserve" font-family="Cantarell-Regular" font-size="36.0" fill="#889AA4" transform="matrix(1.00, 0.00, -0.00, -1.00, 366.4, 7.0)">e</text><text xml:space="preserve" font-family="Cantarell-Regular" font-size="36.0" fill="#889AA4" transform="matrix(1.00, 0.00, -0.00, -1.00, 385.8, 7.0)">s</text></g></svg>