<?xml version="1.0" encoding="UTF-8" standalone="no"?><svg xmlns="http://www.w3.org/2000/svg" xmlns:xlink="http://www.w3.org/1999/xlink" clip-rule="evenodd" stroke-miterlimit="4.00" viewBox="0 0 817 348"><desc>SVG generated by Keynote</desc><defs></defs><g transform="matrix(1.00, 0.00, -0.00, -1.00, 0.0, 348.0)"><g><clipPath id="clip-49"><path d="M 0.0 250.9 L 97.0 250.9 L 97.0 347.9 L 0.0 347.9 Z M 0.0 250.9 "></path></clipPath><g clip-path="url(#clip-49)"><path d="M 82.1 333.0 C 100.6 314.4 100.6 284.4 82.1 265.8 C 63.5 247.3 33.5 247.3 14.9 265.8 C -3.6 284.4 -3.6 314.4 14.9 333.0 C 33.5 351.5 63.5 351.5 82.1 333.0 " fill="#2BAAE1"></path></g></g><g><clipPath id="clip-50"><path d="M 0.2 251.9 L 96.8 251.9 L 96.8 346.9 L 0.2 346.9 Z M 0.2 251.9 "></path></clipPath><g clip-path="url(#clip-50)"></g></g><g><clipPath id="clip-51"><path d="M 115.7 1.9 L 817.8 1.9 L 817.8 339.7 L 115.7 339.7 Z M 115.7 1.9 "></path></clipPath><g clip-path="url(#clip-51)"><text xml:space="preserve" font-family="Novecentosanswide-Medium" font-size="42.0" fill="#FEFFFF" transform="matrix(1.00, 0.00, -0.00, -1.00, 128.0, 284.0)">C</text><text xml:space="preserve" font-family="Novecentosanswide-Medium" font-size="42.0" fill="#FEFFFF" transform="matrix(1.00, 0.00, -0.00, -1.00, 159.6, 284.0)">o</text><text xml:space="preserve" font-family="Novecentosanswide-Medium" font-size="42.0" fill="#FEFFFF" transform="matrix(1.00, 0.00, -0.00, -1.00, 187.4, 284.0)">n</text><text xml:space="preserve" font-family="Novecentosanswide-Medium" font-size="42.0" fill="#FEFFFF" transform="matrix(1.00, 0.00, -0.00, -1.00, 214.3, 284.0)">t</text><text xml:space="preserve" font-family="Novecentosanswide-Medium" font-size="42.0" fill="#FEFFFF" transform="matrix(1.00, 0.00, -0.00, -1.00, 237.5, 284.0)">i</text><text xml:space="preserve" font-family="Novecentosanswide-Medium" font-size="42.0" fill="#FEFFFF" transform="matrix(1.00, 0.00, -0.00, -1.00, 247.8, 284.0)">n</text><text xml:space="preserve" font-family="Novecentosanswide-Medium" font-size="42.0" fill="#FEFFFF" transform="matrix(1.00, 0.00, -0.00, -1.00, 274.6, 284.0)">g</text><text xml:space="preserve" font-family="Novecentosanswide-Medium" font-size="42.0" fill="#FEFFFF" transform="matrix(1.00, 0.00, -0.00, -1.00, 302.8, 284.0)">e</text><text xml:space="preserve" font-family="Novecentosanswide-Medium" font-size="42.0" fill="#FEFFFF" transform="matrix(1.00, 0.00, -0.00, -1.00, 325.1, 284.0)">n</text><text xml:space="preserve" font-family="Novecentosanswide-Medium" font-size="42.0" fill="#FEFFFF" transform="matrix(1.00, 0.00, -0.00, -1.00, 351.9, 284.0)">c</text><text xml:space="preserve" font-family="Novecentosanswide-Medium" font-size="42.0" fill="#FEFFFF" transform="matrix(1.00, 0.00, -0.00, -1.00, 378.4, 284.0)">y</text><text xml:space="preserve" font-family="Novecentosanswide-Medium" font-size="42.0" fill="#FEFFFF" transform="matrix(1.00, 0.00, -0.00, -1.00, 401.8, 284.0)"> </text><text xml:space="preserve" font-family="Novecentosanswide-Medium" font-size="42.0" fill="#FEFFFF" transform="matrix(1.00, 0.00, -0.00, -1.00, 412.3, 284.0)">P</text><text xml:space="preserve" font-family="Novecentosanswide-Medium" font-size="42.0" fill="#FEFFFF" transform="matrix(1.00, 0.00, -0.00, -1.00, 437.0, 284.0)">l</text><text xml:space="preserve" font-family="Novecentosanswide-Medium" font-size="42.0" fill="#FEFFFF" transform="matrix(1.00, 0.00, -0.00, -1.00, 457.7, 284.0)">a</text><text xml:space="preserve" font-family="Novecentosanswide-Medium" font-size="42.0" fill="#FEFFFF" transform="matrix(1.00, 0.00, -0.00, -1.00, 483.1, 284.0)">n</text><text xml:space="preserve" font-family="Novecentosanswide-Medium" font-size="42.0" fill="#FEFFFF" transform="matrix(1.00, 0.00, -0.00, -1.00, 509.9, 284.0)"> </text><text xml:space="preserve" font-family="ArialMT" font-size="36.0" fill="#009ED8" transform="matrix(1.00, 0.00, -0.00, -1.00, 128.3, 209.2)">•</text><text xml:space="preserve" font-family="Cantarell-Regular" font-size="36.0" fill="#889AA4" transform="matrix(1.00, 0.00, -0.00, -1.00, 144.0, 208.0)"> </text><text xml:space="preserve" font-family="Cantarell-Regular" font-size="36.0" fill="#889AA4" transform="matrix(1.00, 0.00, -0.00, -1.00, 153.9, 208.0)">K</text><text xml:space="preserve" font-family="Cantarell-Regular" font-size="36.0" fill="#889AA4" transform="matrix(1.00, 0.00, -0.00, -1.00, 178.7, 208.0)">n</text><text xml:space="preserve" font-family="Cantarell-Regular" font-size="36.0" fill="#889AA4" transform="matrix(1.00, 0.00, -0.00, -1.00, 199.4, 208.0)">o</text><text xml:space="preserve" font-family="Cantarell-Regular" font-size="36.0" fill="#889AA4" transform="matrix(1.00, 0.00, -0.00, -1.00, 220.7, 208.0)">w</text><text xml:space="preserve" font-family="Cantarell-Regular" font-size="36.0" fill="#889AA4" transform="matrix(1.00, 0.00, -0.00, -1.00, 250.3, 208.0)"> </text><text xml:space="preserve" font-family="Cantarell-Regular" font-size="36.0" fill="#889AA4" transform="matrix(1.00, 0.00, -0.00, -1.00, 260.2, 208.0)">y</text><text xml:space="preserve" font-family="Cantarell-Regular" font-size="36.0" fill="#889AA4" transform="matrix(1.00, 0.00, -0.00, -1.00, 278.8, 208.0)">o</text><text xml:space="preserve" font-family="Cantarell-Regular" font-size="36.0" fill="#889AA4" transform="matrix(1.00, 0.00, -0.00, -1.00, 300.1, 208.0)">u</text><text xml:space="preserve" font-family="Cantarell-Regular" font-size="36.0" fill="#889AA4" transform="matrix(1.00, 0.00, -0.00, -1.00, 320.8, 208.0)">r</text><text xml:space="preserve" font-family="Cantarell-Regular" font-size="36.0" fill="#889AA4" transform="matrix(1.00, 0.00, -0.00, -1.00, 334.9, 208.0)"> </text><text xml:space="preserve" font-family="Cantarell-Regular" font-size="36.0" fill="#889AA4" transform="matrix(1.00, 0.00, -0.00, -1.00, 344.7, 208.0)">p</text><text xml:space="preserve" font-family="Cantarell-Regular" font-size="36.0" fill="#889AA4" transform="matrix(1.00, 0.00, -0.00, -1.00, 365.4, 208.0)">r</text><text xml:space="preserve" font-family="Cantarell-Regular" font-size="36.0" fill="#889AA4" transform="matrix(1.00, 0.00, -0.00, -1.00, 379.5, 208.0)">o</text><text xml:space="preserve" font-family="Cantarell-Regular" font-size="36.0" fill="#889AA4" transform="matrix(1.00, 0.00, -0.00, -1.00, 400.8, 208.0)">c</text><text xml:space="preserve" font-family="Cantarell-Regular" font-size="36.0" fill="#889AA4" transform="matrix(1.00, 0.00, -0.00, -1.00, 418.4, 208.0)">e</text><text xml:space="preserve" font-family="Cantarell-Regular" font-size="36.0" fill="#889AA4" transform="matrix(1.00, 0.00, -0.00, -1.00, 437.7, 208.0)">s</text><text xml:space="preserve" font-family="Cantarell-Regular" font-size="36.0" fill="#889AA4" transform="matrix(1.00, 0.00, -0.00, -1.00, 455.6, 208.0)">s</text><text xml:space="preserve" font-family="Cantarell-Regular" font-size="36.0" fill="#889AA4" transform="matrix(1.00, 0.00, -0.00, -1.00, 473.5, 208.0)"> </text><text xml:space="preserve" font-family="ArialMT" font-size="36.0" fill="#009ED8" transform="matrix(1.00, 0.00, -0.00, -1.00, 128.3, 127.2)">•</text><text xml:space="preserve" font-family="Cantarell-Regular" font-size="36.0" fill="#889AA4" transform="matrix(1.00, 0.00, -0.00, -1.00, 144.0, 126.0)"> </text><text xml:space="preserve" font-family="Cantarell-Regular" font-size="36.0" fill="#889AA4" transform="matrix(1.00, 0.00, -0.00, -1.00, 153.9, 126.0)">A</text><text xml:space="preserve" font-family="Cantarell-Regular" font-size="36.0" fill="#889AA4" transform="matrix(1.00, 0.00, -0.00, -1.00, 178.2, 126.0)">u</text><text xml:space="preserve" font-family="Cantarell-Regular" font-size="36.0" fill="#889AA4" transform="matrix(1.00, 0.00, -0.00, -1.00, 198.9, 126.0)">t</text><text xml:space="preserve" font-family="Cantarell-Regular" font-size="36.0" fill="#889AA4" transform="matrix(1.00, 0.00, -0.00, -1.00, 212.5, 126.0)">o</text><text xml:space="preserve" font-family="Cantarell-Regular" font-size="36.0" fill="#889AA4" transform="matrix(1.00, 0.00, -0.00, -1.00, 233.8, 126.0)">m</text><text xml:space="preserve" font-family="Cantarell-Regular" font-size="36.0" fill="#889AA4" transform="matrix(1.00, 0.00, -0.00, -1.00, 264.3, 126.0)">a</text><text xml:space="preserve" font-family="Cantarell-Regular" font-size="36.0" fill="#889AA4" transform="matrix(1.00, 0.00, -0.00, -1.00, 283.1, 126.0)">t</text><text xml:space="preserve" font-family="Cantarell-Regular" font-size="36.0" fill="#889AA4" transform="matrix(1.00, 0.00, -0.00, -1.00, 296.7, 126.0)">e</text><text xml:space="preserve" font-family="Cantarell-Regular" font-size="36.0" fill="#889AA4" transform="matrix(1.00, 0.00, -0.00, -1.00, 316.1, 126.0)"> </text><text xml:space="preserve" font-family="Cantarell-Regular" font-size="36.0" fill="#889AA4" transform="matrix(1.00, 0.00, -0.00, -1.00, 325.9, 126.0)">a</text><text xml:space="preserve" font-family="Cantarell-Regular" font-size="36.0" fill="#889AA4" transform="matrix(1.00, 0.00, -0.00, -1.00, 344.7, 126.0)">s</text><text xml:space="preserve" font-family="Cantarell-Regular" font-size="36.0" fill="#889AA4" transform="matrix(1.00, 0.00, -0.00, -1.00, 362.6, 126.0)"> </text><text xml:space="preserve" font-family="Cantarell-Regular" font-size="36.0" fill="#889AA4" transform="matrix(1.00, 0.00, -0.00, -1.00, 372.4, 126.0)">m</text><text xml:space="preserve" font-family="Cantarell-Regular" font-size="36.0" fill="#889AA4" transform="matrix(1.00, 0.00, -0.00, -1.00, 402.9, 126.0)">u</text><text xml:space="preserve" font-family="Cantarell-Regular" font-size="36.0" fill="#889AA4" transform="matrix(1.00, 0.00, -0.00, -1.00, 423.6, 126.0)">c</text><text xml:space="preserve" font-family="Cantarell-Regular" font-size="36.0" fill="#889AA4" transform="matrix(1.00, 0.00, -0.00, -1.00, 441.2, 126.0)">h</text><text xml:space="preserve" font-family="Cantarell-Regular" font-size="36.0" fill="#889AA4" transform="matrix(1.00, 0.00, -0.00, -1.00, 462.1, 126.0)"> </text><text xml:space="preserve" font-family="Cantarell-Regular" font-size="36.0" fill="#889AA4" transform="matrix(1.00, 0.00, -0.00, -1.00, 471.9, 126.0)">a</text><text xml:space="preserve" font-family="Cantarell-Regular" font-size="36.0" fill="#889AA4" transform="matrix(1.00, 0.00, -0.00, -1.00, 490.7, 126.0)">s</text><text xml:space="preserve" font-family="Cantarell-Regular" font-size="36.0" fill="#889AA4" transform="matrix(1.00, 0.00, -0.00, -1.00, 508.6, 126.0)"> </text><text xml:space="preserve" font-family="Cantarell-Regular" font-size="36.0" fill="#889AA4" transform="matrix(1.00, 0.00, -0.00, -1.00, 518.5, 126.0)">p</text><text xml:space="preserve" font-family="Cantarell-Regular" font-size="36.0" fill="#889AA4" transform="matrix(1.00, 0.00, -0.00, -1.00, 539.1, 126.0)">o</text><text xml:space="preserve" font-family="Cantarell-Regular" font-size="36.0" fill="#889AA4" transform="matrix(1.00, 0.00, -0.00, -1.00, 560.4, 126.0)">s</text><text xml:space="preserve" font-family="Cantarell-Regular" font-size="36.0" fill="#889AA4" transform="matrix(1.00, 0.00, -0.00, -1.00, 578.3, 126.0)">s</text><text xml:space="preserve" font-family="Cantarell-Regular" font-size="36.0" fill="#889AA4" transform="matrix(1.00, 0.00, -0.00, -1.00, 596.2, 126.0)">i</text><text xml:space="preserve" font-family="Cantarell-Regular" font-size="36.0" fill="#889AA4" transform="matrix(1.00, 0.00, -0.00, -1.00, 605.4, 126.0)">b</text><text xml:space="preserve" font-family="Cantarell-Regular" font-size="36.0" fill="#889AA4" transform="matrix(1.00, 0.00, -0.00, -1.00, 626.2, 126.0)">l</text><text xml:space="preserve" font-family="Cantarell-Regular" font-size="36.0" fill="#889AA4" transform="matrix(1.00, 0.00, -0.00, -1.00, 636.1, 126.0)">e</text><text xml:space="preserve" font-family="Cantarell-Regular" font-size="36.0" fill="#889AA4" transform="matrix(1.00, 0.00, -0.00, -1.00, 655.5, 126.0)"> </text><text xml:space="preserve" font-family="ArialMT" font-size="36.0" fill="#009ED8" transform="matrix(1.00, 0.00, -0.00, -1.00, 128.3, 45.2)">•</text><text xml:space="preserve" font-family="Cantarell-Regular" font-size="36.0" fill="#889AA4" transform="matrix(1.00, 0.00, -0.00, -1.00, 144.0, 44.0)"> </text><text xml:space="preserve" font-family="Cantarell-Regular" font-size="36.0" fill="#889AA4" transform="matrix(1.00, 0.00, -0.00, -1.00, 153.9, 44.0)">I</text><text xml:space="preserve" font-family="Cantarell-Regular" font-size="36.0" fill="#889AA4" transform="matrix(1.00, 0.00, -0.00, -1.00, 166.7, 44.0)">f</text><text xml:space="preserve" font-family="Cantarell-Regular" font-size="36.0" fill="#889AA4" transform="matrix(1.00, 0.00, -0.00, -1.00, 181.1, 44.0)"> </text><text xml:space="preserve" font-family="Cantarell-Regular" font-size="36.0" fill="#889AA4" transform="matrix(1.00, 0.00, -0.00, -1.00, 191.0, 44.0)">n</text><text xml:space="preserve" font-family="Cantarell-Regular" font-size="36.0" fill="#889AA4" transform="matrix(1.00, 0.00, -0.00, -1.00, 211.7, 44.0)">o</text><text xml:space="preserve" font-family="Cantarell-Regular" font-size="36.0" fill="#889AA4" transform="matrix(1.00, 0.00, -0.00, -1.00, 233.0, 44.0)"> </text><text xml:space="preserve" font-family="Cantarell-Regular" font-size="36.0" fill="#889AA4" transform="matrix(1.00, 0.00, -0.00, -1.00, 242.8, 44.0)">r</text><text xml:space="preserve" font-family="Cantarell-Regular" font-size="36.0" fill="#889AA4" transform="matrix(1.00, 0.00, -0.00, -1.00, 256.9, 44.0)">o</text><text xml:space="preserve" font-family="Cantarell-Regular" font-size="36.0" fill="#889AA4" transform="matrix(1.00, 0.00, -0.00, -1.00, 278.2, 44.0)">l</text><text xml:space="preserve" font-family="Cantarell-Regular" font-size="36.0" fill="#889AA4" transform="matrix(1.00, 0.00, -0.00, -1.00, 288.1, 44.0)">l</text><text xml:space="preserve" font-family="Cantarell-Regular" font-size="36.0" fill="#889AA4" transform="matrix(1.00, 0.00, -0.00, -1.00, 298.1, 44.0)">b</text><text xml:space="preserve" font-family="Cantarell-Regular" font-size="36.0" fill="#889AA4" transform="matrix(1.00, 0.00, -0.00, -1.00, 318.8, 44.0)">a</text><text xml:space="preserve" font-family="Cantarell-Regular" font-size="36.0" fill="#889AA4" transform="matrix(1.00, 0.00, -0.00, -1.00, 337.6, 44.0)">c</text><text xml:space="preserve" font-family="Cantarell-Regular" font-size="36.0" fill="#889AA4" transform="matrix(1.00, 0.00, -0.00, -1.00, 355.2, 44.0)">k</text><text xml:space="preserve" font-family="Cantarell-Regular" font-size="36.0" fill="#889AA4" transform="matrix(1.00, 0.00, -0.00, -1.00, 374.1, 44.0)">:</text><text xml:space="preserve" font-family="Cantarell-Regular" font-size="36.0" fill="#889AA4" transform="matrix(1.00, 0.00, -0.00, -1.00, 384.1, 44.0)"> </text><text xml:space="preserve" font-family="Cantarell-Regular" font-size="36.0" fill="#889AA4" transform="matrix(1.00, 0.00, -0.00, -1.00, 394.0, 44.0)">t</text><text xml:space="preserve" font-family="Cantarell-Regular" font-size="36.0" fill="#889AA4" transform="matrix(1.00, 0.00, -0.00, -1.00, 407.6, 44.0)">e</text><text xml:space="preserve" font-family="Cantarell-Regular" font-size="36.0" fill="#889AA4" transform="matrix(1.00, 0.00, -0.00, -1.00, 427.0, 44.0)">s</text><text xml:space="preserve" font-family="Cantarell-Regular" font-size="36.0" fill="#889AA4" transform="matrix(1.00, 0.00, -0.00, -1.00, 444.8, 44.0)">t</text><text xml:space="preserve" font-family="Cantarell-Regular" font-size="36.0" fill="#889AA4" transform="matrix(1.00, 0.00, -0.00, -1.00, 458.5, 44.0)">,</text><text xml:space="preserve" font-family="Cantarell-Regular" font-size="36.0" fill="#889AA4" transform="matrix(1.00, 0.00, -0.00, -1.00, 468.5, 44.0)"> </text><text xml:space="preserve" font-family="Cantarell-Regular" font-size="36.0" fill="#889AA4" transform="matrix(1.00, 0.00, -0.00, -1.00, 478.4, 44.0)">t</text><text xml:space="preserve" font-family="Cantarell-Regular" font-size="36.0" fill="#889AA4" transform="matrix(1.00, 0.00, -0.00, -1.00, 492.0, 44.0)">e</text><text xml:space="preserve" font-family="Cantarell-Regular" font-size="36.0" fill="#889AA4" transform="matrix(1.00, 0.00, -0.00, -1.00, 511.4, 44.0)">s</text><text xml:space="preserve" font-family="Cantarell-Regular" font-size="36.0" fill="#889AA4" transform="matrix(1.00, 0.00, -0.00, -1.00, 529.2, 44.0)">t</text><text xml:space="preserve" font-family="Cantarell-Regular" font-size="36.0" fill="#889AA4" transform="matrix(1.00, 0.00, -0.00, -1.00, 542.9, 44.0)">,</text><text xml:space="preserve" font-family="Cantarell-Regular" font-size="36.0" fill="#889AA4" transform="matrix(1.00, 0.00, -0.00, -1.00, 552.9, 44.0)"> </text><text xml:space="preserve" font-family="Cantarell-Regular" font-size="36.0" fill="#889AA4" transform="matrix(1.00, 0.00, -0.00, -1.00, 562.8, 44.0)">t</text><text xml:space="preserve" font-family="Cantarell-Regular" font-size="36.0" fill="#889AA4" transform="matrix(1.00, 0.00, -0.00, -1.00, 576.4, 44.0)">e</text><text xml:space="preserve" font-family="Cantarell-Regular" font-size="36.0" fill="#889AA4" transform="matrix(1.00, 0.00, -0.00, -1.00, 595.8, 44.0)">s</text><text xml:space="preserve" font-family="Cantarell-Regular" font-size="36.0" fill="#889AA4" transform="matrix(1.00, 0.00, -0.00, -1.00, 613.6, 44.0)">t</text></g></g></g></svg>