<?xml version="1.0" encoding="UTF-8" standalone="no"?><svg xmlns="http://www.w3.org/2000/svg" xmlns:xlink="http://www.w3.org/1999/xlink" clip-rule="evenodd" stroke-miterlimit="4.00" viewBox="0 0 1715 124"><desc>SVG generated by Keynote</desc><defs></defs><g transform="matrix(1.00, 0.00, -0.00, -1.00, 0.0, 124.0)"><g><clipPath id="clip-125"><path d="M 0.5 123.4 L 591.6 123.4 L 591.6 0.8 L 0.5 0.8 Z M 0.5 123.4 "></path></clipPath><g clip-path="url(#clip-125)"><path d="M 1.0 244.5 L 590.8 244.5 L 590.8 122.9 L 1.0 122.9 Z M 1.0 244.5 " fill="#A37511"></path><path d="M 590.8 244.5 L 864.2 244.5 L 864.2 122.9 L 590.8 122.9 Z M 590.8 244.5 " fill="#A37511"></path></g></g><g><clipPath id="clip-126"><path d="M 0.5 123.4 L 591.6 123.4 L 591.6 0.8 L 0.5 0.8 Z M 0.5 123.4 "></path></clipPath><g clip-path="url(#clip-126)"><g><clipPath id="clip-127"><path d="M 1.5 1.8 L 590.1 1.8 L 590.1 122.4 L 1.5 122.4 Z M 1.5 1.8 "></path></clipPath><g clip-path="url(#clip-127)"><text xml:space="preserve" font-family="Novecentosanswide-Medium" font-size="30.0" fill="#FEFFFF" transform="matrix(1.00, 0.00, -0.00, -1.00, 14.0, 49.0)">C</text><text xml:space="preserve" font-family="Novecentosanswide-Medium" font-size="30.0" fill="#FEFFFF" transform="matrix(1.00, 0.00, -0.00, -1.00, 36.6, 49.0)">o</text><text xml:space="preserve" font-family="Novecentosanswide-Medium" font-size="30.0" fill="#FEFFFF" transform="matrix(1.00, 0.00, -0.00, -1.00, 56.5, 49.0)">n</text><text xml:space="preserve" font-family="Novecentosanswide-Medium" font-size="30.0" fill="#FEFFFF" transform="matrix(1.00, 0.00, -0.00, -1.00, 75.6, 49.0)">t</text><text xml:space="preserve" font-family="Novecentosanswide-Medium" font-size="30.0" fill="#FEFFFF" transform="matrix(1.00, 0.00, -0.00, -1.00, 92.2, 49.0)">i</text><text xml:space="preserve" font-family="Novecentosanswide-Medium" font-size="30.0" fill="#FEFFFF" transform="matrix(1.00, 0.00, -0.00, -1.00, 99.6, 49.0)">n</text><text xml:space="preserve" font-family="Novecentosanswide-Medium" font-size="30.0" fill="#FEFFFF" transform="matrix(1.00, 0.00, -0.00, -1.00, 118.7, 49.0)">g</text><text xml:space="preserve" font-family="Novecentosanswide-Medium" font-size="30.0" fill="#FEFFFF" transform="matrix(1.00, 0.00, -0.00, -1.00, 138.9, 49.0)">e</text><text xml:space="preserve" font-family="Novecentosanswide-Medium" font-size="30.0" fill="#FEFFFF" transform="matrix(1.00, 0.00, -0.00, -1.00, 154.8, 49.0)">n</text><text xml:space="preserve" font-family="Novecentosanswide-Medium" font-size="30.0" fill="#FEFFFF" transform="matrix(1.00, 0.00, -0.00, -1.00, 174.0, 49.0)">c</text><text xml:space="preserve" font-family="Novecentosanswide-Medium" font-size="30.0" fill="#FEFFFF" transform="matrix(1.00, 0.00, -0.00, -1.00, 192.8, 49.0)">y</text><text xml:space="preserve" font-family="Novecentosanswide-Medium" font-size="30.0" fill="#FEFFFF" transform="matrix(1.00, 0.00, -0.00, -1.00, 209.6, 49.0)"> </text><text xml:space="preserve" font-family="Novecentosanswide-Medium" font-size="30.0" fill="#FEFFFF" transform="matrix(1.00, 0.00, -0.00, -1.00, 217.1, 49.0)">P</text><text xml:space="preserve" font-family="Novecentosanswide-Medium" font-size="30.0" fill="#FEFFFF" transform="matrix(1.00, 0.00, -0.00, -1.00, 234.7, 49.0)">l</text><text xml:space="preserve" font-family="Novecentosanswide-Medium" font-size="30.0" fill="#FEFFFF" transform="matrix(1.00, 0.00, -0.00, -1.00, 249.5, 49.0)">a</text><text xml:space="preserve" font-family="Novecentosanswide-Medium" font-size="30.0" fill="#FEFFFF" transform="matrix(1.00, 0.00, -0.00, -1.00, 267.6, 49.0)">n</text></g></g></g></g><g><clipPath id="clip-128"><path d="M 0.5 123.4 L 591.6 123.4 L 591.6 0.8 L 0.5 0.8 Z M 0.5 123.4 "></path></clipPath><g clip-path="url(#clip-128)"><path d="M 591.8 2.0 L 591.8 123.6 " fill="none" stroke="#000000" stroke-width="1.50" stroke-miterlimit="0.00" transform="matrix(1.00, 0.00, 0.00, -1.00, -1.0, 246.5)"></path><path d="M 591.8 123.6 L 591.8 245.2 " fill="none" stroke="#000000" stroke-width="1.50" stroke-miterlimit="0.00" transform="matrix(1.00, 0.00, 0.00, -1.00, -1.0, 246.5)"></path><path d="M 591.8 245.2 L 591.8 366.8 " fill="none" stroke="#000000" stroke-width="1.50" stroke-miterlimit="0.00" transform="matrix(1.00, 0.00, 0.00, -1.00, -1.0, 246.5)"></path><path d="M 865.2 2.0 L 865.2 123.6 " fill="none" stroke="#000000" stroke-width="1.50" stroke-miterlimit="0.00" transform="matrix(1.00, 0.00, 0.00, -1.00, -1.0, 246.5)"></path><path d="M 865.2 123.6 L 865.2 366.8 " fill="none" stroke="#000000" stroke-width="1.50" stroke-miterlimit="0.00" transform="matrix(1.00, 0.00, 0.00, -1.00, -1.0, 246.5)"></path><path d="M 1.5 245.2 L 591.8 245.2 " fill="none" stroke="#000000" stroke-width="1.00" stroke-miterlimit="0.00" transform="matrix(1.00, 0.00, 0.00, -1.00, -1.0, 246.5)"></path><path d="M 591.8 245.2 L 865.2 245.2 " fill="none" stroke="#000000" stroke-width="1.00" stroke-miterlimit="0.00" transform="matrix(1.00, 0.00, 0.00, -1.00, -1.0, 246.5)"></path><path d="M 2.0 366.8 L 591.8 366.8 " fill="none" stroke="#000000" stroke-width="1.00" stroke-miterlimit="0.00" transform="matrix(1.00, 0.00, 0.00, -1.00, -1.0, 246.5)"></path><path d="M 591.8 366.8 L 865.2 366.8 " fill="none" stroke="#000000" stroke-width="1.00" stroke-miterlimit="0.00" transform="matrix(1.00, 0.00, 0.00, -1.00, -1.0, 246.5)"></path><path d="M 1.5 123.6 L 591.8 123.6 " fill="none" stroke="#000000" stroke-width="1.00" stroke-miterlimit="0.00" transform="matrix(1.00, 0.00, 0.00, -1.00, -1.0, 246.5)"></path><path d="M 591.8 123.6 L 865.2 123.6 " fill="none" stroke="#000000" stroke-width="1.00" stroke-miterlimit="0.00" transform="matrix(1.00, 0.00, 0.00, -1.00, -1.0, 246.5)"></path><path d="M 2.0 2.0 L 2.0 123.6 " fill="none" stroke="#000000" stroke-width="1.00" stroke-miterlimit="0.00" transform="matrix(1.00, 0.00, 0.00, -1.00, -1.0, 246.5)"></path><path d="M 2.0 123.6 L 2.0 245.2 " fill="none" stroke="#000000" stroke-width="1.00" stroke-miterlimit="0.00" transform="matrix(1.00, 0.00, 0.00, -1.00, -1.0, 246.5)"></path><path d="M 2.0 245.2 L 2.0 366.8 " fill="none" stroke="#000000" stroke-width="1.00" stroke-miterlimit="0.00" transform="matrix(1.00, 0.00, 0.00, -1.00, -1.0, 246.5)"></path><path d="M 2.0 2.0 L 865.2 2.0 " fill="none" stroke="#000000" stroke-width="1.00" stroke-miterlimit="0.00" transform="matrix(1.00, 0.00, 0.00, -1.00, -1.0, 246.5)"></path></g></g><g><clipPath id="clip-129"><path d="M 590.1 123.4 L 864.9 123.4 L 864.9 0.8 L 590.1 0.8 Z M 590.1 123.4 "></path></clipPath><g clip-path="url(#clip-129)"><path d="M 1.0 244.5 L 590.8 244.5 L 590.8 122.9 L 1.0 122.9 Z M 1.0 244.5 " fill="#A37511"></path><path d="M 590.8 244.5 L 864.2 244.5 L 864.2 122.9 L 590.8 122.9 Z M 590.8 244.5 " fill="#A37511"></path><path d="M 864.2 244.5 L 1137.5 244.5 L 1137.5 122.9 L 864.2 122.9 Z M 864.2 244.5 " fill="#A37511"></path></g></g><g><clipPath id="clip-130"><path d="M 590.1 123.4 L 864.9 123.4 L 864.9 0.8 L 590.1 0.8 Z M 590.1 123.4 "></path></clipPath><g clip-path="url(#clip-130)"><path d="M 591.8 2.0 L 591.8 123.6 " fill="none" stroke="#000000" stroke-width="1.50" stroke-miterlimit="0.00" transform="matrix(1.00, 0.00, 0.00, -1.00, -1.0, 246.5)"></path><path d="M 591.8 123.6 L 591.8 245.2 " fill="none" stroke="#000000" stroke-width="1.50" stroke-miterlimit="0.00" transform="matrix(1.00, 0.00, 0.00, -1.00, -1.0, 246.5)"></path><path d="M 591.8 245.2 L 591.8 366.8 " fill="none" stroke="#000000" stroke-width="1.50" stroke-miterlimit="0.00" transform="matrix(1.00, 0.00, 0.00, -1.00, -1.0, 246.5)"></path><path d="M 865.2 2.0 L 865.2 123.6 " fill="none" stroke="#000000" stroke-width="1.50" stroke-miterlimit="0.00" transform="matrix(1.00, 0.00, 0.00, -1.00, -1.0, 246.5)"></path><path d="M 865.2 123.6 L 865.2 366.8 " fill="none" stroke="#000000" stroke-width="1.50" stroke-miterlimit="0.00" transform="matrix(1.00, 0.00, 0.00, -1.00, -1.0, 246.5)"></path><path d="M 1138.5 2.0 L 1138.5 123.6 " fill="none" stroke="#000000" stroke-width="1.50" stroke-miterlimit="0.00" transform="matrix(1.00, 0.00, 0.00, -1.00, -1.0, 246.5)"></path><path d="M 1138.5 123.6 L 1138.5 366.8 " fill="none" stroke="#000000" stroke-width="1.50" stroke-miterlimit="0.00" transform="matrix(1.00, 0.00, 0.00, -1.00, -1.0, 246.5)"></path><path d="M 2.0 245.2 L 591.8 245.2 " fill="none" stroke="#000000" stroke-width="1.00" stroke-miterlimit="0.00" transform="matrix(1.00, 0.00, 0.00, -1.00, -1.0, 246.5)"></path><path d="M 591.8 245.2 L 865.2 245.2 " fill="none" stroke="#000000" stroke-width="1.00" stroke-miterlimit="0.00" transform="matrix(1.00, 0.00, 0.00, -1.00, -1.0, 246.5)"></path><path d="M 865.2 245.2 L 1138.5 245.2 " fill="none" stroke="#000000" stroke-width="1.00" stroke-miterlimit="0.00" transform="matrix(1.00, 0.00, 0.00, -1.00, -1.0, 246.5)"></path><path d="M 2.0 366.8 L 591.8 366.8 " fill="none" stroke="#000000" stroke-width="1.00" stroke-miterlimit="0.00" transform="matrix(1.00, 0.00, 0.00, -1.00, -1.0, 246.5)"></path><path d="M 591.8 366.8 L 865.2 366.8 " fill="none" stroke="#000000" stroke-width="1.00" stroke-miterlimit="0.00" transform="matrix(1.00, 0.00, 0.00, -1.00, -1.0, 246.5)"></path><path d="M 865.2 366.8 L 1138.5 366.8 " fill="none" stroke="#000000" stroke-width="1.00" stroke-miterlimit="0.00" transform="matrix(1.00, 0.00, 0.00, -1.00, -1.0, 246.5)"></path><path d="M 2.0 123.6 L 591.8 123.6 " fill="none" stroke="#000000" stroke-width="1.00" stroke-miterlimit="0.00" transform="matrix(1.00, 0.00, 0.00, -1.00, -1.0, 246.5)"></path><path d="M 591.8 123.6 L 865.2 123.6 " fill="none" stroke="#000000" stroke-width="1.00" stroke-miterlimit="0.00" transform="matrix(1.00, 0.00, 0.00, -1.00, -1.0, 246.5)"></path><path d="M 865.2 123.6 L 1138.5 123.6 " fill="none" stroke="#000000" stroke-width="1.00" stroke-miterlimit="0.00" transform="matrix(1.00, 0.00, 0.00, -1.00, -1.0, 246.5)"></path><path d="M 2.0 2.0 L 2.0 123.6 " fill="none" stroke="#000000" stroke-width="1.00" stroke-miterlimit="0.00" transform="matrix(1.00, 0.00, 0.00, -1.00, -1.0, 246.5)"></path><path d="M 2.0 123.6 L 2.0 245.2 " fill="none" stroke="#000000" stroke-width="1.00" stroke-miterlimit="0.00" transform="matrix(1.00, 0.00, 0.00, -1.00, -1.0, 246.5)"></path><path d="M 2.0 245.2 L 2.0 366.8 " fill="none" stroke="#000000" stroke-width="1.00" stroke-miterlimit="0.00" transform="matrix(1.00, 0.00, 0.00, -1.00, -1.0, 246.5)"></path><path d="M 2.0 2.0 L 1138.5 2.0 " fill="none" stroke="#000000" stroke-width="1.00" stroke-miterlimit="0.00" transform="matrix(1.00, 0.00, 0.00, -1.00, -1.0, 246.5)"></path></g></g><g><clipPath id="clip-131"><path d="M 863.4 123.4 L 1138.3 123.4 L 1138.3 0.8 L 863.4 0.8 Z M 863.4 123.4 "></path></clipPath><g clip-path="url(#clip-131)"><path d="M 590.8 244.5 L 864.2 244.5 L 864.2 122.9 L 590.8 122.9 Z M 590.8 244.5 " fill="#A37511"></path><path d="M 864.2 244.5 L 1137.5 244.5 L 1137.5 122.9 L 864.2 122.9 Z M 864.2 244.5 " fill="#A37511"></path><path d="M 1137.5 244.5 L 1425.3 244.5 L 1425.3 122.9 L 1137.5 122.9 Z M 1137.5 244.5 " fill="#A37511"></path></g></g><g><clipPath id="clip-132"><path d="M 863.4 123.4 L 1138.3 123.4 L 1138.3 0.8 L 863.4 0.8 Z M 863.4 123.4 "></path></clipPath><g clip-path="url(#clip-132)"><g><clipPath id="clip-133"><path d="M 864.9 1.8 L 1136.8 1.8 L 1136.8 122.4 L 864.9 122.4 Z M 864.9 1.8 "></path></clipPath><g clip-path="url(#clip-133)"><text xml:space="preserve" font-family="Cantarell-Regular" font-size="30.0" fill="#FEFFFF" transform="matrix(1.00, 0.00, -0.00, -1.00, 915.0, 51.0)">M</text><text xml:space="preserve" font-family="Cantarell-Regular" font-size="30.0" fill="#FEFFFF" transform="matrix(1.00, 0.00, -0.00, -1.00, 942.6, 51.0)">a</text><text xml:space="preserve" font-family="Cantarell-Regular" font-size="30.0" fill="#FEFFFF" transform="matrix(1.00, 0.00, -0.00, -1.00, 958.3, 51.0)">k</text><text xml:space="preserve" font-family="Cantarell-Regular" font-size="30.0" fill="#FEFFFF" transform="matrix(1.00, 0.00, -0.00, -1.00, 974.0, 51.0)">e</text><text xml:space="preserve" font-family="Cantarell-Regular" font-size="30.0" fill="#FEFFFF" transform="matrix(1.00, 0.00, -0.00, -1.00, 990.1, 51.0)"> </text><text xml:space="preserve" font-family="Cantarell-Regular" font-size="30.0" fill="#FEFFFF" transform="matrix(1.00, 0.00, -0.00, -1.00, 998.3, 51.0)">a</text><text xml:space="preserve" font-family="Cantarell-Regular" font-size="30.0" fill="#FEFFFF" transform="matrix(1.00, 0.00, -0.00, -1.00, 1014.0, 51.0)"> </text><text xml:space="preserve" font-family="Cantarell-Regular" font-size="30.0" fill="#FEFFFF" transform="matrix(1.00, 0.00, -0.00, -1.00, 1022.2, 51.0)">c</text><text xml:space="preserve" font-family="Cantarell-Regular" font-size="30.0" fill="#FEFFFF" transform="matrix(1.00, 0.00, -0.00, -1.00, 1036.9, 51.0)">o</text><text xml:space="preserve" font-family="Cantarell-Regular" font-size="30.0" fill="#FEFFFF" transform="matrix(1.00, 0.00, -0.00, -1.00, 1054.6, 51.0)">p</text><text xml:space="preserve" font-family="Cantarell-Regular" font-size="30.0" fill="#FEFFFF" transform="matrix(1.00, 0.00, -0.00, -1.00, 1071.8, 51.0)">y</text></g></g></g></g><g><clipPath id="clip-134"><path d="M 863.4 123.4 L 1138.3 123.4 L 1138.3 0.8 L 863.4 0.8 Z M 863.4 123.4 "></path></clipPath><g clip-path="url(#clip-134)"><path d="M 591.8 2.0 L 591.8 123.6 " fill="none" stroke="#000000" stroke-width="1.50" stroke-miterlimit="0.00" transform="matrix(1.00, 0.00, 0.00, -1.00, -1.0, 246.5)"></path><path d="M 591.8 123.6 L 591.8 245.2 " fill="none" stroke="#000000" stroke-width="1.50" stroke-miterlimit="0.00" transform="matrix(1.00, 0.00, 0.00, -1.00, -1.0, 246.5)"></path><path d="M 591.8 245.2 L 591.8 366.8 " fill="none" stroke="#000000" stroke-width="1.50" stroke-miterlimit="0.00" transform="matrix(1.00, 0.00, 0.00, -1.00, -1.0, 246.5)"></path><path d="M 865.2 2.0 L 865.2 123.6 " fill="none" stroke="#000000" stroke-width="1.50" stroke-miterlimit="0.00" transform="matrix(1.00, 0.00, 0.00, -1.00, -1.0, 246.5)"></path><path d="M 865.2 123.6 L 865.2 366.8 " fill="none" stroke="#000000" stroke-width="1.50" stroke-miterlimit="0.00" transform="matrix(1.00, 0.00, 0.00, -1.00, -1.0, 246.5)"></path><path d="M 1138.5 2.0 L 1138.5 123.6 " fill="none" stroke="#000000" stroke-width="1.50" stroke-miterlimit="0.00" transform="matrix(1.00, 0.00, 0.00, -1.00, -1.0, 246.5)"></path><path d="M 1138.5 123.6 L 1138.5 366.8 " fill="none" stroke="#000000" stroke-width="1.50" stroke-miterlimit="0.00" transform="matrix(1.00, 0.00, 0.00, -1.00, -1.0, 246.5)"></path><path d="M 1426.3 2.0 L 1426.3 123.6 " fill="none" stroke="#000000" stroke-width="1.50" stroke-miterlimit="0.00" transform="matrix(1.00, 0.00, 0.00, -1.00, -1.0, 246.5)"></path><path d="M 1426.3 123.6 L 1426.3 366.8 " fill="none" stroke="#000000" stroke-width="1.50" stroke-miterlimit="0.00" transform="matrix(1.00, 0.00, 0.00, -1.00, -1.0, 246.5)"></path><path d="M 591.8 245.2 L 865.2 245.2 " fill="none" stroke="#000000" stroke-width="1.00" stroke-miterlimit="0.00" transform="matrix(1.00, 0.00, 0.00, -1.00, -1.0, 246.5)"></path><path d="M 865.2 245.2 L 1138.5 245.2 " fill="none" stroke="#000000" stroke-width="1.00" stroke-miterlimit="0.00" transform="matrix(1.00, 0.00, 0.00, -1.00, -1.0, 246.5)"></path><path d="M 1138.5 245.2 L 1426.3 245.2 " fill="none" stroke="#000000" stroke-width="1.00" stroke-miterlimit="0.00" transform="matrix(1.00, 0.00, 0.00, -1.00, -1.0, 246.5)"></path><path d="M 591.8 366.8 L 865.2 366.8 " fill="none" stroke="#000000" stroke-width="1.00" stroke-miterlimit="0.00" transform="matrix(1.00, 0.00, 0.00, -1.00, -1.0, 246.5)"></path><path d="M 865.2 366.8 L 1138.5 366.8 " fill="none" stroke="#000000" stroke-width="1.00" stroke-miterlimit="0.00" transform="matrix(1.00, 0.00, 0.00, -1.00, -1.0, 246.5)"></path><path d="M 1138.5 366.8 L 1426.3 366.8 " fill="none" stroke="#000000" stroke-width="1.00" stroke-miterlimit="0.00" transform="matrix(1.00, 0.00, 0.00, -1.00, -1.0, 246.5)"></path><path d="M 591.8 123.6 L 865.2 123.6 " fill="none" stroke="#000000" stroke-width="1.00" stroke-miterlimit="0.00" transform="matrix(1.00, 0.00, 0.00, -1.00, -1.0, 246.5)"></path><path d="M 865.2 123.6 L 1138.5 123.6 " fill="none" stroke="#000000" stroke-width="1.00" stroke-miterlimit="0.00" transform="matrix(1.00, 0.00, 0.00, -1.00, -1.0, 246.5)"></path><path d="M 1138.5 123.6 L 1426.3 123.6 " fill="none" stroke="#000000" stroke-width="1.00" stroke-miterlimit="0.00" transform="matrix(1.00, 0.00, 0.00, -1.00, -1.0, 246.5)"></path><path d="M 591.8 2.0 L 1426.3 2.0 " fill="none" stroke="#000000" stroke-width="1.00" stroke-miterlimit="0.00" transform="matrix(1.00, 0.00, 0.00, -1.00, -1.0, 246.5)"></path></g></g><g><clipPath id="clip-135"><path d="M 1136.8 123.4 L 1426.0 123.4 L 1426.0 0.8 L 1136.8 0.8 Z M 1136.8 123.4 "></path></clipPath><g clip-path="url(#clip-135)"><path d="M 864.2 244.5 L 1137.5 244.5 L 1137.5 122.9 L 864.2 122.9 Z M 864.2 244.5 " fill="#A37511"></path><path d="M 1137.5 244.5 L 1425.3 244.5 L 1425.3 122.9 L 1137.5 122.9 Z M 1137.5 244.5 " fill="#A37511"></path><path d="M 1425.3 244.5 L 1713.0 244.5 L 1713.0 122.9 L 1425.3 122.9 Z M 1425.3 244.5 " fill="#A37511"></path></g></g><g><clipPath id="clip-136"><path d="M 1136.8 123.4 L 1426.0 123.4 L 1426.0 0.8 L 1136.8 0.8 Z M 1136.8 123.4 "></path></clipPath><g clip-path="url(#clip-136)"><g><clipPath id="clip-137"><path d="M 1138.3 1.8 L 1424.5 1.8 L 1424.5 122.4 L 1138.3 122.4 Z M 1138.3 1.8 "></path></clipPath><g clip-path="url(#clip-137)"><text xml:space="preserve" font-family="Cantarell-Regular" font-size="30.0" fill="#FEFFFF" transform="matrix(1.00, 0.00, -0.00, -1.00, 1166.0, 72.0)">P</text><text xml:space="preserve" font-family="Cantarell-Regular" font-size="30.0" fill="#FEFFFF" transform="matrix(1.00, 0.00, -0.00, -1.00, 1185.6, 72.0)">r</text><text xml:space="preserve" font-family="Cantarell-Regular" font-size="30.0" fill="#FEFFFF" transform="matrix(1.00, 0.00, -0.00, -1.00, 1197.3, 72.0)">e</text><text xml:space="preserve" font-family="Cantarell-Regular" font-size="30.0" fill="#FEFFFF" transform="matrix(1.00, 0.00, -0.00, -1.00, 1213.5, 72.0)">v</text><text xml:space="preserve" font-family="Cantarell-Regular" font-size="30.0" fill="#FEFFFF" transform="matrix(1.00, 0.00, -0.00, -1.00, 1228.0, 72.0)">i</text><text xml:space="preserve" font-family="Cantarell-Regular" font-size="30.0" fill="#FEFFFF" transform="matrix(1.00, 0.00, -0.00, -1.00, 1235.7, 72.0)">o</text><text xml:space="preserve" font-family="Cantarell-Regular" font-size="30.0" fill="#FEFFFF" transform="matrix(1.00, 0.00, -0.00, -1.00, 1253.4, 72.0)">u</text><text xml:space="preserve" font-family="Cantarell-Regular" font-size="30.0" fill="#FEFFFF" transform="matrix(1.00, 0.00, -0.00, -1.00, 1270.7, 72.0)">s</text><text xml:space="preserve" font-family="Cantarell-Regular" font-size="30.0" fill="#FEFFFF" transform="matrix(1.00, 0.00, -0.00, -1.00, 1285.6, 72.0)"> </text><text xml:space="preserve" font-family="Cantarell-Regular" font-size="30.0" fill="#FEFFFF" transform="matrix(1.00, 0.00, -0.00, -1.00, 1293.8, 72.0)">c</text><text xml:space="preserve" font-family="Cantarell-Regular" font-size="30.0" fill="#FEFFFF" transform="matrix(1.00, 0.00, -0.00, -1.00, 1308.4, 72.0)">o</text><text xml:space="preserve" font-family="Cantarell-Regular" font-size="30.0" fill="#FEFFFF" transform="matrix(1.00, 0.00, -0.00, -1.00, 1326.2, 72.0)">m</text><text xml:space="preserve" font-family="Cantarell-Regular" font-size="30.0" fill="#FEFFFF" transform="matrix(1.00, 0.00, -0.00, -1.00, 1351.6, 72.0)">m</text><text xml:space="preserve" font-family="Cantarell-Regular" font-size="30.0" fill="#FEFFFF" transform="matrix(1.00, 0.00, -0.00, -1.00, 1377.0, 72.0)">i</text><text xml:space="preserve" font-family="Cantarell-Regular" font-size="30.0" fill="#FEFFFF" transform="matrix(1.00, 0.00, -0.00, -1.00, 1384.7, 72.0)">t</text><text xml:space="preserve" font-family="Cantarell-Regular" font-size="30.0" fill="#FEFFFF" transform="matrix(1.00, 0.00, -0.00, -1.00, 1396.0, 72.0)"> </text><text xml:space="preserve" font-family="Cantarell-Regular" font-size="30.0" fill="#FEFFFF" transform="matrix(1.00, 0.00, -0.00, -1.00, 1249.0, 30.0)">h</text><text xml:space="preserve" font-family="Cantarell-Regular" font-size="30.0" fill="#FEFFFF" transform="matrix(1.00, 0.00, -0.00, -1.00, 1266.4, 30.0)">a</text><text xml:space="preserve" font-family="Cantarell-Regular" font-size="30.0" fill="#FEFFFF" transform="matrix(1.00, 0.00, -0.00, -1.00, 1282.1, 30.0)">s</text><text xml:space="preserve" font-family="Cantarell-Regular" font-size="30.0" fill="#FEFFFF" transform="matrix(1.00, 0.00, -0.00, -1.00, 1297.0, 30.0)">h</text></g></g></g></g><g><clipPath id="clip-138"><path d="M 1136.8 123.4 L 1426.0 123.4 L 1426.0 0.8 L 1136.8 0.8 Z M 1136.8 123.4 "></path></clipPath><g clip-path="url(#clip-138)"><path d="M 865.2 2.0 L 865.2 123.6 " fill="none" stroke="#000000" stroke-width="1.50" stroke-miterlimit="0.00" transform="matrix(1.00, 0.00, 0.00, -1.00, -1.0, 246.5)"></path><path d="M 865.2 123.6 L 865.2 366.8 " fill="none" stroke="#000000" stroke-width="1.50" stroke-miterlimit="0.00" transform="matrix(1.00, 0.00, 0.00, -1.00, -1.0, 246.5)"></path><path d="M 1138.5 2.0 L 1138.5 123.6 " fill="none" stroke="#000000" stroke-width="1.50" stroke-miterlimit="0.00" transform="matrix(1.00, 0.00, 0.00, -1.00, -1.0, 246.5)"></path><path d="M 1138.5 123.6 L 1138.5 366.8 " fill="none" stroke="#000000" stroke-width="1.50" stroke-miterlimit="0.00" transform="matrix(1.00, 0.00, 0.00, -1.00, -1.0, 246.5)"></path><path d="M 1426.3 2.0 L 1426.3 123.6 " fill="none" stroke="#000000" stroke-width="1.50" stroke-miterlimit="0.00" transform="matrix(1.00, 0.00, 0.00, -1.00, -1.0, 246.5)"></path><path d="M 1426.3 123.6 L 1426.3 366.8 " fill="none" stroke="#000000" stroke-width="1.50" stroke-miterlimit="0.00" transform="matrix(1.00, 0.00, 0.00, -1.00, -1.0, 246.5)"></path><path d="M 865.2 245.2 L 1138.5 245.2 " fill="none" stroke="#000000" stroke-width="1.00" stroke-miterlimit="0.00" transform="matrix(1.00, 0.00, 0.00, -1.00, -1.0, 246.5)"></path><path d="M 1138.5 245.2 L 1426.3 245.2 " fill="none" stroke="#000000" stroke-width="1.00" stroke-miterlimit="0.00" transform="matrix(1.00, 0.00, 0.00, -1.00, -1.0, 246.5)"></path><path d="M 1426.3 245.2 L 1714.0 245.2 " fill="none" stroke="#000000" stroke-width="1.00" stroke-miterlimit="0.00" transform="matrix(1.00, 0.00, 0.00, -1.00, -1.0, 246.5)"></path><path d="M 865.2 366.8 L 1138.5 366.8 " fill="none" stroke="#000000" stroke-width="1.00" stroke-miterlimit="0.00" transform="matrix(1.00, 0.00, 0.00, -1.00, -1.0, 246.5)"></path><path d="M 1138.5 366.8 L 1426.3 366.8 " fill="none" stroke="#000000" stroke-width="1.00" stroke-miterlimit="0.00" transform="matrix(1.00, 0.00, 0.00, -1.00, -1.0, 246.5)"></path><path d="M 1426.3 366.8 L 1714.0 366.8 " fill="none" stroke="#000000" stroke-width="1.00" stroke-miterlimit="0.00" transform="matrix(1.00, 0.00, 0.00, -1.00, -1.0, 246.5)"></path><path d="M 865.2 123.6 L 1138.5 123.6 " fill="none" stroke="#000000" stroke-width="1.00" stroke-miterlimit="0.00" transform="matrix(1.00, 0.00, 0.00, -1.00, -1.0, 246.5)"></path><path d="M 1138.5 123.6 L 1426.3 123.6 " fill="none" stroke="#000000" stroke-width="1.00" stroke-miterlimit="0.00" transform="matrix(1.00, 0.00, 0.00, -1.00, -1.0, 246.5)"></path><path d="M 1426.3 123.6 L 1714.0 123.6 " fill="none" stroke="#000000" stroke-width="1.00" stroke-miterlimit="0.00" transform="matrix(1.00, 0.00, 0.00, -1.00, -1.0, 246.5)"></path><path d="M 1714.0 2.0 L 1714.0 123.6 " fill="none" stroke="#000000" stroke-width="1.00" stroke-miterlimit="0.00" transform="matrix(1.00, 0.00, 0.00, -1.00, -1.0, 246.5)"></path><path d="M 1714.0 123.6 L 1714.0 366.8 " fill="none" stroke="#000000" stroke-width="1.50" stroke-miterlimit="0.00" transform="matrix(1.00, 0.00, 0.00, -1.00, -1.0, 246.5)"></path><path d="M 865.2 2.0 L 1714.0 2.0 " fill="none" stroke="#000000" stroke-width="1.00" stroke-miterlimit="0.00" transform="matrix(1.00, 0.00, 0.00, -1.00, -1.0, 246.5)"></path></g></g><g><clipPath id="clip-139"><path d="M 1424.5 123.4 L 1713.8 123.4 L 1713.8 0.8 L 1424.5 0.8 Z M 1424.5 123.4 "></path></clipPath><g clip-path="url(#clip-139)"><path d="M 1137.5 244.5 L 1425.3 244.5 L 1425.3 122.9 L 1137.5 122.9 Z M 1137.5 244.5 " fill="#A37511"></path><path d="M 1425.3 244.5 L 1713.0 244.5 L 1713.0 122.9 L 1425.3 122.9 Z M 1425.3 244.5 " fill="#A37511"></path></g></g><g><clipPath id="clip-140"><path d="M 1424.5 123.4 L 1713.8 123.4 L 1713.8 0.8 L 1424.5 0.8 Z M 1424.5 123.4 "></path></clipPath><g clip-path="url(#clip-140)"><g><clipPath id="clip-141"><path d="M 1426.0 1.8 L 1712.3 1.8 L 1712.3 122.4 L 1426.0 122.4 Z M 1426.0 1.8 "></path></clipPath><g clip-path="url(#clip-141)"><text xml:space="preserve" font-family="Cantarell-Regular" font-size="30.0" fill="#FEFFFF" transform="matrix(1.00, 0.00, -0.00, -1.00, 1523.0, 51.0)">M</text><text xml:space="preserve" font-family="Cantarell-Regular" font-size="30.0" fill="#FEFFFF" transform="matrix(1.00, 0.00, -0.00, -1.00, 1550.6, 51.0)">a</text><text xml:space="preserve" font-family="Cantarell-Regular" font-size="30.0" fill="#FEFFFF" transform="matrix(1.00, 0.00, -0.00, -1.00, 1566.3, 51.0)">y</text><text xml:space="preserve" font-family="Cantarell-Regular" font-size="30.0" fill="#FEFFFF" transform="matrix(1.00, 0.00, -0.00, -1.00, 1581.8, 51.0)">b</text><text xml:space="preserve" font-family="Cantarell-Regular" font-size="30.0" fill="#FEFFFF" transform="matrix(1.00, 0.00, -0.00, -1.00, 1599.1, 51.0)">e</text></g></g></g></g><g><clipPath id="clip-142"><path d="M 1424.5 123.4 L 1713.8 123.4 L 1713.8 0.8 L 1424.5 0.8 Z M 1424.5 123.4 "></path></clipPath><g clip-path="url(#clip-142)"><path d="M 1138.5 2.0 L 1138.5 123.6 " fill="none" stroke="#000000" stroke-width="1.50" stroke-miterlimit="0.00" transform="matrix(1.00, 0.00, 0.00, -1.00, -1.0, 246.5)"></path><path d="M 1138.5 123.6 L 1138.5 366.8 " fill="none" stroke="#000000" stroke-width="1.50" stroke-miterlimit="0.00" transform="matrix(1.00, 0.00, 0.00, -1.00, -1.0, 246.5)"></path><path d="M 1426.3 2.0 L 1426.3 123.6 " fill="none" stroke="#000000" stroke-width="1.50" stroke-miterlimit="0.00" transform="matrix(1.00, 0.00, 0.00, -1.00, -1.0, 246.5)"></path><path d="M 1426.3 123.6 L 1426.3 366.8 " fill="none" stroke="#000000" stroke-width="1.50" stroke-miterlimit="0.00" transform="matrix(1.00, 0.00, 0.00, -1.00, -1.0, 246.5)"></path><path d="M 1138.5 245.2 L 1426.3 245.2 " fill="none" stroke="#000000" stroke-width="1.00" stroke-miterlimit="0.00" transform="matrix(1.00, 0.00, 0.00, -1.00, -1.0, 246.5)"></path><path d="M 1426.3 245.2 L 1714.5 245.2 " fill="none" stroke="#000000" stroke-width="1.00" stroke-miterlimit="0.00" transform="matrix(1.00, 0.00, 0.00, -1.00, -1.0, 246.5)"></path><path d="M 1138.5 366.8 L 1426.3 366.8 " fill="none" stroke="#000000" stroke-width="1.00" stroke-miterlimit="0.00" transform="matrix(1.00, 0.00, 0.00, -1.00, -1.0, 246.5)"></path><path d="M 1426.3 366.8 L 1714.0 366.8 " fill="none" stroke="#000000" stroke-width="1.00" stroke-miterlimit="0.00" transform="matrix(1.00, 0.00, 0.00, -1.00, -1.0, 246.5)"></path><path d="M 1138.5 123.6 L 1426.3 123.6 " fill="none" stroke="#000000" stroke-width="1.00" stroke-miterlimit="0.00" transform="matrix(1.00, 0.00, 0.00, -1.00, -1.0, 246.5)"></path><path d="M 1426.3 123.6 L 1714.5 123.6 " fill="none" stroke="#000000" stroke-width="1.00" stroke-miterlimit="0.00" transform="matrix(1.00, 0.00, 0.00, -1.00, -1.0, 246.5)"></path><path d="M 1714.0 2.0 L 1714.0 123.1 " fill="none" stroke="#000000" stroke-width="1.00" stroke-miterlimit="0.00" transform="matrix(1.00, 0.00, 0.00, -1.00, -1.0, 246.5)"></path><path d="M 1714.0 123.1 L 1714.0 366.8 " fill="none" stroke="#000000" stroke-width="1.50" stroke-miterlimit="0.00" transform="matrix(1.00, 0.00, 0.00, -1.00, -1.0, 246.5)"></path><path d="M 1138.5 2.0 L 1714.0 2.0 " fill="none" stroke="#000000" stroke-width="1.00" stroke-miterlimit="0.00" transform="matrix(1.00, 0.00, 0.00, -1.00, -1.0, 246.5)"></path></g></g></g></svg>