<?xml version="1.0" encoding="UTF-8" standalone="no"?><svg xmlns="http://www.w3.org/2000/svg" xmlns:xlink="http://www.w3.org/1999/xlink" clip-rule="evenodd" stroke-miterlimit="4.00" viewBox="0 0 1549 417"><desc>SVG generated by Keynote</desc><defs></defs><g transform="matrix(1.00, 0.00, -0.00, -1.00, 0.0, 417.0)"><g><clipPath id="clip-453"><path d="M 963.3 347.3 L 1551.4 347.3 L 1551.4 422.9 L 963.3 422.9 Z M 963.3 347.3 "></path></clipPath><g clip-path="url(#clip-453)"><text xml:space="preserve" font-family="Cantarell-Regular" font-size="36.0" fill="#DCDDE0" transform="matrix(1.00, 0.00, -0.00, -1.00, 1058.0, 373.0)">K</text><text xml:space="preserve" font-family="Cantarell-Regular" font-size="36.0" fill="#DCDDE0" transform="matrix(1.00, 0.00, -0.00, -1.00, 1082.9, 373.0)">e</text><text xml:space="preserve" font-family="Cantarell-Regular" font-size="36.0" fill="#DCDDE0" transform="matrix(1.00, 0.00, -0.00, -1.00, 1102.3, 373.0)">e</text><text xml:space="preserve" font-family="Cantarell-Regular" font-size="36.0" fill="#DCDDE0" transform="matrix(1.00, 0.00, -0.00, -1.00, 1121.7, 373.0)">p</text><text xml:space="preserve" font-family="Cantarell-Regular" font-size="36.0" fill="#DCDDE0" transform="matrix(1.00, 0.00, -0.00, -1.00, 1142.3, 373.0)">s</text><text xml:space="preserve" font-family="Cantarell-Regular" font-size="36.0" fill="#DCDDE0" transform="matrix(1.00, 0.00, -0.00, -1.00, 1160.2, 373.0)"> </text><text xml:space="preserve" font-family="Cantarell-Regular" font-size="36.0" fill="#DCDDE0" transform="matrix(1.00, 0.00, -0.00, -1.00, 1170.1, 373.0)">t</text><text xml:space="preserve" font-family="Cantarell-Regular" font-size="36.0" fill="#DCDDE0" transform="matrix(1.00, 0.00, -0.00, -1.00, 1183.7, 373.0)">h</text><text xml:space="preserve" font-family="Cantarell-Regular" font-size="36.0" fill="#DCDDE0" transform="matrix(1.00, 0.00, -0.00, -1.00, 1204.6, 373.0)">e</text><text xml:space="preserve" font-family="Cantarell-Regular" font-size="36.0" fill="#DCDDE0" transform="matrix(1.00, 0.00, -0.00, -1.00, 1224.0, 373.0)"> </text><text xml:space="preserve" font-family="Cantarell-Regular" font-size="36.0" fill="#DCDDE0" transform="matrix(1.00, 0.00, -0.00, -1.00, 1233.8, 373.0)">l</text><text xml:space="preserve" font-family="Cantarell-Regular" font-size="36.0" fill="#DCDDE0" transform="matrix(1.00, 0.00, -0.00, -1.00, 1243.8, 373.0)">a</text><text xml:space="preserve" font-family="Cantarell-Regular" font-size="36.0" fill="#DCDDE0" transform="matrix(1.00, 0.00, -0.00, -1.00, 1262.6, 373.0)">s</text><text xml:space="preserve" font-family="Cantarell-Regular" font-size="36.0" fill="#DCDDE0" transform="matrix(1.00, 0.00, -0.00, -1.00, 1280.4, 373.0)">t</text><text xml:space="preserve" font-family="Cantarell-Regular" font-size="36.0" fill="#DCDDE0" transform="matrix(1.00, 0.00, -0.00, -1.00, 1294.1, 373.0)"> </text><text xml:space="preserve" font-family="Cantarell-Regular" font-size="36.0" fill="#DCDDE0" transform="matrix(1.00, 0.00, -0.00, -1.00, 1303.9, 373.0)">5</text><text xml:space="preserve" font-family="Cantarell-Regular" font-size="36.0" fill="#DCDDE0" transform="matrix(1.00, 0.00, -0.00, -1.00, 1326.8, 373.0)"> </text><text xml:space="preserve" font-family="Cantarell-Regular" font-size="36.0" fill="#DCDDE0" transform="matrix(1.00, 0.00, -0.00, -1.00, 1336.6, 373.0)">r</text><text xml:space="preserve" font-family="Cantarell-Regular" font-size="36.0" fill="#DCDDE0" transform="matrix(1.00, 0.00, -0.00, -1.00, 1350.7, 373.0)">e</text><text xml:space="preserve" font-family="Cantarell-Regular" font-size="36.0" fill="#DCDDE0" transform="matrix(1.00, 0.00, -0.00, -1.00, 1370.1, 373.0)">l</text><text xml:space="preserve" font-family="Cantarell-Regular" font-size="36.0" fill="#DCDDE0" transform="matrix(1.00, 0.00, -0.00, -1.00, 1380.0, 373.0)">e</text><text xml:space="preserve" font-family="Cantarell-Regular" font-size="36.0" fill="#DCDDE0" transform="matrix(1.00, 0.00, -0.00, -1.00, 1399.4, 373.0)">a</text><text xml:space="preserve" font-family="Cantarell-Regular" font-size="36.0" fill="#DCDDE0" transform="matrix(1.00, 0.00, -0.00, -1.00, 1418.2, 373.0)">s</text><text xml:space="preserve" font-family="Cantarell-Regular" font-size="36.0" fill="#DCDDE0" transform="matrix(1.00, 0.00, -0.00, -1.00, 1436.0, 373.0)">e</text><text xml:space="preserve" font-family="Cantarell-Regular" font-size="36.0" fill="#DCDDE0" transform="matrix(1.00, 0.00, -0.00, -1.00, 1455.4, 373.0)">s</text></g></g><g><clipPath id="clip-454"><path d="M 966.4 0.6 L 1548.3 0.6 L 1548.3 341.2 L 966.4 341.2 Z M 966.4 0.6 "></path></clipPath><g clip-path="url(#clip-454)"><image xlink:href="FE81E07495C4049898EC461FF7242E91.png" width="582.00" height="341.00" transform="matrix(1.00, 0.00, -0.00, -1.00, 966.4, 341.2)" opacity="0.70"></image><image xlink:href="553BD30F21C7A74DC350475245020AA8.png" width="494.00" height="274.00" transform="matrix(1.10, 0.00, -0.00, -1.09, 986.0, 331.0)"></image></g></g><g><clipPath id="clip-455"><path d="M 0.9 350.7 L 158.8 350.7 L 158.8 396.6 L 0.9 396.6 Z M 0.9 350.7 "></path></clipPath><g clip-path="url(#clip-455)"><path d="M 0.0 0.0 L 151.9 0.0 L 151.9 39.9 L 0.0 39.9 Z M 0.0 0.0 " fill="none" stroke="#F38F18" stroke-width="4.00" transform="matrix(1.00, 0.00, 0.00, -1.00, 3.9, 393.6)"></path></g></g><g><clipPath id="clip-456"><path d="M 977.0 274.6 L 162.7 364.6 L 165.5 390.4 L 979.9 300.5 Z M 977.0 274.6 "></path></clipPath><g clip-path="url(#clip-456)"><path d="M 0.0 0.0 L 793.3 0.0 L 796.3 0.0 " fill="none" stroke="#F38F18" stroke-width="6.00" transform="matrix(-0.99, 0.11, 0.11, 0.99, 977.5, 287.6)"></path><path d="M 190.3 386.7 L 165.1 377.4 L 187.6 362.8 Z M 190.3 386.7 " fill="#F38F18"></path></g></g></g></svg>