<?xml version="1.0" encoding="UTF-8" standalone="no"?><svg xmlns="http://www.w3.org/2000/svg" xmlns:xlink="http://www.w3.org/1999/xlink" clip-rule="evenodd" stroke-miterlimit="4.00" viewBox="0 0 1920 1080"><desc>SVG generated by Keynote</desc><defs></defs><g transform="matrix(1.00, 0.00, -0.00, -1.00, 0.0, 1080.0)"><g><clipPath id="clip-457"><path d="M 0.0 1080.0 L 1920.0 1080.0 L 1920.0 0.0 L 0.0 0.0 Z M 0.0 1080.0 "></path></clipPath><g clip-path="url(#clip-457)"><image xlink:href="../../897A5C31-F820-48DE-BEBB-1797AA7F40B4/assets/F2DDC097CA6F4B81B31813A2EE11057D.jpeg" width="1365.00" height="767.00" transform="matrix(1.41, 0.00, -0.00, -1.41, 0.0, 1080.0)"></image></g></g><g><clipPath id="clip-458"><path d="M 1764.6 46.4 L 1833.7 46.4 L 1833.7 115.5 L 1764.6 115.5 Z M 1764.6 46.4 "></path></clipPath><g clip-path="url(#clip-458)"><path d="M 1822.9 104.6 C 1836.0 91.5 1836.0 70.3 1822.9 57.2 C 1809.8 44.1 1788.5 44.1 1775.4 57.2 C 1762.3 70.3 1762.3 91.5 1775.4 104.6 C 1788.5 117.7 1809.8 117.7 1822.9 104.6 " fill="#889AA4"></path></g></g><g><clipPath id="clip-459"><path d="M 1796.8 62.2 L 1778.1 80.9 L 1796.8 99.5 L 1815.5 80.9 Z M 1796.8 62.2 "></path></clipPath><g clip-path="url(#clip-459)"><path d="M 1796.8 63.6 L 1791.8 68.6 L 1804.6 81.3 L 1792.3 93.6 L 1796.8 98.1 L 1814.1 80.9 Z M 1796.8 63.6 " fill="#FEFFFF"></path></g></g><g><clipPath id="clip-460"><path d="M 1679.0 46.4 L 1748.1 46.4 L 1748.1 115.5 L 1679.0 115.5 Z M 1679.0 46.4 "></path></clipPath><g clip-path="url(#clip-460)"><path d="M 1737.3 104.6 C 1750.4 91.5 1750.4 70.3 1737.3 57.2 C 1724.2 44.1 1702.9 44.1 1689.8 57.2 C 1676.7 70.3 1676.7 91.5 1689.8 104.6 C 1702.9 117.7 1724.2 117.7 1737.3 104.6 " fill="#889AA4"></path></g></g><g><clipPath id="clip-461"><path d="M 1714.8 99.5 L 1733.4 80.9 L 1714.8 62.2 L 1696.1 80.9 Z M 1714.8 99.5 "></path></clipPath><g clip-path="url(#clip-461)"><path d="M 1714.8 98.1 L 1719.7 93.2 L 1707.0 80.4 L 1719.3 68.1 L 1714.8 63.6 L 1697.5 80.9 Z M 1714.8 98.1 " fill="#FEFFFF"></path></g></g><g><clipPath id="clip-462"><path d="M 73.8 935.0 L 1846.2 935.0 L 1846.2 1031.0 L 73.8 1031.0 Z M 73.8 935.0 "></path></clipPath><g clip-path="url(#clip-462)"><text xml:space="preserve" font-family="Novecentosanswide-Medium" font-size="84.0" fill="#FEFFFF" transform="matrix(1.00, 0.00, -0.00, -1.00, 336.0, 945.0)">D</text><text xml:space="preserve" font-family="Novecentosanswide-Medium" font-size="84.0" fill="#FEFFFF" transform="matrix(1.00, 0.00, -0.00, -1.00, 394.7, 945.0)">E</text><text xml:space="preserve" font-family="Novecentosanswide-Medium" font-size="84.0" fill="#FEFFFF" transform="matrix(1.00, 0.00, -0.00, -1.00, 442.3, 945.0)">P</text><text xml:space="preserve" font-family="Novecentosanswide-Medium" font-size="84.0" fill="#FEFFFF" transform="matrix(1.00, 0.00, -0.00, -1.00, 488.6, 945.0)">L</text><text xml:space="preserve" font-family="Novecentosanswide-Medium" font-size="84.0" fill="#FEFFFF" transform="matrix(1.00, 0.00, -0.00, -1.00, 529.2, 945.0)">O</text><text xml:space="preserve" font-family="Novecentosanswide-Medium" font-size="84.0" fill="#FEFFFF" transform="matrix(1.00, 0.00, -0.00, -1.00, 589.0, 945.0)">Y</text><text xml:space="preserve" font-family="Novecentosanswide-Medium" font-size="84.0" fill="#FEFFFF" transform="matrix(1.00, 0.00, -0.00, -1.00, 642.6, 945.0)">M</text><text xml:space="preserve" font-family="Novecentosanswide-Medium" font-size="84.0" fill="#FEFFFF" transform="matrix(1.00, 0.00, -0.00, -1.00, 707.2, 945.0)">E</text><text xml:space="preserve" font-family="Novecentosanswide-Medium" font-size="84.0" fill="#FEFFFF" transform="matrix(1.00, 0.00, -0.00, -1.00, 754.8, 945.0)">N</text><text xml:space="preserve" font-family="Novecentosanswide-Medium" font-size="84.0" fill="#FEFFFF" transform="matrix(1.00, 0.00, -0.00, -1.00, 813.4, 945.0)">T</text><text xml:space="preserve" font-family="Novecentosanswide-Medium" font-size="84.0" fill="#FEFFFF" transform="matrix(1.00, 0.00, -0.00, -1.00, 864.4, 945.0)"> </text><text xml:space="preserve" font-family="Novecentosanswide-DemiBold" font-weight="bold" font-size="84.0" fill="#889AA4" transform="matrix(1.00, 0.00, -0.00, -1.00, 882.2, 945.0)">W</text><text xml:space="preserve" font-family="Novecentosanswide-DemiBold" font-weight="bold" font-size="84.0" fill="#889AA4" transform="matrix(1.00, 0.00, -0.00, -1.00, 966.0, 945.0)">I</text><text xml:space="preserve" font-family="Novecentosanswide-DemiBold" font-weight="bold" font-size="84.0" fill="#889AA4" transform="matrix(1.00, 0.00, -0.00, -1.00, 985.1, 945.0)">T</text><text xml:space="preserve" font-family="Novecentosanswide-DemiBold" font-weight="bold" font-size="84.0" fill="#889AA4" transform="matrix(1.00, 0.00, -0.00, -1.00, 1036.6, 945.0)">H</text><text xml:space="preserve" font-family="Novecentosanswide-DemiBold" font-weight="bold" font-size="84.0" fill="#889AA4" transform="matrix(1.00, 0.00, -0.00, -1.00, 1093.3, 945.0)"> </text><text xml:space="preserve" font-family="Novecentosanswide-DemiBold" font-weight="bold" font-size="84.0" fill="#889AA4" transform="matrix(1.00, 0.00, -0.00, -1.00, 1111.2, 945.0)">R</text><text xml:space="preserve" font-family="Novecentosanswide-DemiBold" font-weight="bold" font-size="84.0" fill="#889AA4" transform="matrix(1.00, 0.00, -0.00, -1.00, 1160.4, 945.0)">O</text><text xml:space="preserve" font-family="Novecentosanswide-DemiBold" font-weight="bold" font-size="84.0" fill="#889AA4" transform="matrix(1.00, 0.00, -0.00, -1.00, 1224.6, 945.0)">C</text><text xml:space="preserve" font-family="Novecentosanswide-DemiBold" font-weight="bold" font-size="84.0" fill="#889AA4" transform="matrix(1.00, 0.00, -0.00, -1.00, 1285.0, 945.0)">K</text><text xml:space="preserve" font-family="Novecentosanswide-DemiBold" font-weight="bold" font-size="84.0" fill="#889AA4" transform="matrix(1.00, 0.00, -0.00, -1.00, 1339.5, 945.0)">E</text><text xml:space="preserve" font-family="Novecentosanswide-DemiBold" font-weight="bold" font-size="84.0" fill="#889AA4" transform="matrix(1.00, 0.00, -0.00, -1.00, 1387.5, 945.0)">T</text><text xml:space="preserve" font-family="Novecentosanswide-DemiBold" font-weight="bold" font-size="84.0" fill="#889AA4" transform="matrix(1.00, 0.00, -0.00, -1.00, 1439.0, 945.0)">E</text><text xml:space="preserve" font-family="Novecentosanswide-DemiBold" font-weight="bold" font-size="84.0" fill="#889AA4" transform="matrix(1.00, 0.00, -0.00, -1.00, 1487.0, 945.0)">E</text><text xml:space="preserve" font-family="Novecentosanswide-DemiBold" font-weight="bold" font-size="84.0" fill="#889AA4" transform="matrix(1.00, 0.00, -0.00, -1.00, 1535.0, 945.0)">R</text></g></g><text xml:space="preserve" font-family="Cantarell-Regular" font-size="52.0" fill="#889AA4" transform="matrix(1.00, 0.00, -0.00, -1.00, 776.0, 878.0)">T</text><text xml:space="preserve" font-family="Cantarell-Regular" font-size="52.0" fill="#889AA4" transform="matrix(1.00, 0.00, -0.00, -1.00, 806.7, 878.0)">h</text><text xml:space="preserve" font-family="Cantarell-Regular" font-size="52.0" fill="#889AA4" transform="matrix(1.00, 0.00, -0.00, -1.00, 836.9, 878.0)">e</text><text xml:space="preserve" font-family="Cantarell-Regular" font-size="52.0" fill="#889AA4" transform="matrix(1.00, 0.00, -0.00, -1.00, 864.9, 878.0)"> </text><text xml:space="preserve" font-family="Cantarell-Regular" font-size="52.0" fill="#889AA4" transform="matrix(1.00, 0.00, -0.00, -1.00, 879.2, 878.0)">B</text><text xml:space="preserve" font-family="Cantarell-Regular" font-size="52.0" fill="#889AA4" transform="matrix(1.00, 0.00, -0.00, -1.00, 915.4, 878.0)">i</text><text xml:space="preserve" font-family="Cantarell-Regular" font-size="52.0" fill="#889AA4" transform="matrix(1.00, 0.00, -0.00, -1.00, 928.7, 878.0)">g</text><text xml:space="preserve" font-family="Cantarell-Regular" font-size="52.0" fill="#889AA4" transform="matrix(1.00, 0.00, -0.00, -1.00, 958.5, 878.0)"> </text><text xml:space="preserve" font-family="Cantarell-Regular" font-size="52.0" fill="#889AA4" transform="matrix(1.00, 0.00, -0.00, -1.00, 972.8, 878.0)">P</text><text xml:space="preserve" font-family="Cantarell-Regular" font-size="52.0" fill="#889AA4" transform="matrix(1.00, 0.00, -0.00, -1.00, 1006.8, 878.0)">i</text><text xml:space="preserve" font-family="Cantarell-Regular" font-size="52.0" fill="#889AA4" transform="matrix(1.00, 0.00, -0.00, -1.00, 1020.1, 878.0)">c</text><text xml:space="preserve" font-family="Cantarell-Regular" font-size="52.0" fill="#889AA4" transform="matrix(1.00, 0.00, -0.00, -1.00, 1045.5, 878.0)">t</text><text xml:space="preserve" font-family="Cantarell-Regular" font-size="52.0" fill="#889AA4" transform="matrix(1.00, 0.00, -0.00, -1.00, 1065.2, 878.0)">u</text><text xml:space="preserve" font-family="Cantarell-Regular" font-size="52.0" fill="#889AA4" transform="matrix(1.00, 0.00, -0.00, -1.00, 1095.1, 878.0)">r</text><text xml:space="preserve" font-family="Cantarell-Regular" font-size="52.0" fill="#889AA4" transform="matrix(1.00, 0.00, -0.00, -1.00, 1115.4, 878.0)">e</text><g><clipPath id="clip-463"><path d="M 54.5 422.0 L 1145.5 422.0 L 1145.5 731.9 L 54.5 731.9 Z M 54.5 422.0 "></path></clipPath><g clip-path="url(#clip-463)"><image xlink:href="../../C12CB1AF-E6FD-45AA-9CE7-AC3767D5564F/assets/8FDF3F832FAEBAF7000C9A652D0E026F.png" width="1091.00" height="310.00" transform="matrix(1.00, 0.00, -0.00, -1.00, 54.5, 731.9)" opacity="0.70"></image><image xlink:href="../../C12CB1AF-E6FD-45AA-9CE7-AC3767D5564F/assets/4C6B502B9AED140993AAE3E3A2BABF36.png" width="958.00" height="246.00" transform="matrix(1.10, 0.00, -0.00, -1.10, 75.0, 722.0)"></image></g></g><g><clipPath id="clip-464"><path d="M 171.4 726.4 L 1028.7 726.4 L 1028.7 802.1 L 171.4 802.1 Z M 171.4 726.4 "></path></clipPath><g clip-path="url(#clip-464)"><text xml:space="preserve" font-family="Cantarell-Regular" font-size="36.0" fill="#DCDDE0" transform="matrix(1.00, 0.00, -0.00, -1.00, 293.0, 752.0)">M</text><text xml:space="preserve" font-family="Cantarell-Regular" font-size="36.0" fill="#DCDDE0" transform="matrix(1.00, 0.00, -0.00, -1.00, 326.1, 752.0)">a</text><text xml:space="preserve" font-family="Cantarell-Regular" font-size="36.0" fill="#DCDDE0" transform="matrix(1.00, 0.00, -0.00, -1.00, 344.9, 752.0)">i</text><text xml:space="preserve" font-family="Cantarell-Regular" font-size="36.0" fill="#DCDDE0" transform="matrix(1.00, 0.00, -0.00, -1.00, 354.1, 752.0)">n</text><text xml:space="preserve" font-family="Cantarell-Regular" font-size="36.0" fill="#DCDDE0" transform="matrix(1.00, 0.00, -0.00, -1.00, 374.8, 752.0)">t</text><text xml:space="preserve" font-family="Cantarell-Regular" font-size="36.0" fill="#DCDDE0" transform="matrix(1.00, 0.00, -0.00, -1.00, 388.4, 752.0)">a</text><text xml:space="preserve" font-family="Cantarell-Regular" font-size="36.0" fill="#DCDDE0" transform="matrix(1.00, 0.00, -0.00, -1.00, 407.2, 752.0)">i</text><text xml:space="preserve" font-family="Cantarell-Regular" font-size="36.0" fill="#DCDDE0" transform="matrix(1.00, 0.00, -0.00, -1.00, 416.4, 752.0)">n</text><text xml:space="preserve" font-family="Cantarell-Regular" font-size="36.0" fill="#DCDDE0" transform="matrix(1.00, 0.00, -0.00, -1.00, 437.1, 752.0)">s</text><text xml:space="preserve" font-family="Cantarell-Regular" font-size="36.0" fill="#DCDDE0" transform="matrix(1.00, 0.00, -0.00, -1.00, 455.0, 752.0)"> </text><text xml:space="preserve" font-family="Cantarell-Regular" font-size="36.0" fill="#DCDDE0" transform="matrix(1.00, 0.00, -0.00, -1.00, 464.8, 752.0)">s</text><text xml:space="preserve" font-family="Cantarell-Regular" font-size="36.0" fill="#DCDDE0" transform="matrix(1.00, 0.00, -0.00, -1.00, 482.7, 752.0)">y</text><text xml:space="preserve" font-family="Cantarell-Regular" font-size="36.0" fill="#DCDDE0" transform="matrix(1.00, 0.00, -0.00, -1.00, 501.3, 752.0)">m</text><text xml:space="preserve" font-family="Cantarell-Regular" font-size="36.0" fill="#DCDDE0" transform="matrix(1.00, 0.00, -0.00, -1.00, 531.8, 752.0)">l</text><text xml:space="preserve" font-family="Cantarell-Regular" font-size="36.0" fill="#DCDDE0" transform="matrix(1.00, 0.00, -0.00, -1.00, 541.7, 752.0)">i</text><text xml:space="preserve" font-family="Cantarell-Regular" font-size="36.0" fill="#DCDDE0" transform="matrix(1.00, 0.00, -0.00, -1.00, 550.9, 752.0)">n</text><text xml:space="preserve" font-family="Cantarell-Regular" font-size="36.0" fill="#DCDDE0" transform="matrix(1.00, 0.00, -0.00, -1.00, 571.6, 752.0)">k</text><text xml:space="preserve" font-family="Cantarell-Regular" font-size="36.0" fill="#DCDDE0" transform="matrix(1.00, 0.00, -0.00, -1.00, 590.5, 752.0)"> </text><text xml:space="preserve" font-family="Cantarell-Regular" font-size="36.0" fill="#DCDDE0" transform="matrix(1.00, 0.00, -0.00, -1.00, 600.3, 752.0)">t</text><text xml:space="preserve" font-family="Cantarell-Regular" font-size="36.0" fill="#DCDDE0" transform="matrix(1.00, 0.00, -0.00, -1.00, 613.9, 752.0)">o</text><text xml:space="preserve" font-family="Cantarell-Regular" font-size="36.0" fill="#DCDDE0" transform="matrix(1.00, 0.00, -0.00, -1.00, 635.2, 752.0)"> </text><text xml:space="preserve" font-family="Cantarell-Regular" font-size="36.0" fill="#DCDDE0" transform="matrix(1.00, 0.00, -0.00, -1.00, 645.1, 752.0)">“</text><text xml:space="preserve" font-family="Cantarell-Regular" font-size="36.0" fill="#DCDDE0" transform="matrix(1.00, 0.00, -0.00, -1.00, 659.7, 752.0)">c</text><text xml:space="preserve" font-family="Cantarell-Regular" font-size="36.0" fill="#DCDDE0" transform="matrix(1.00, 0.00, -0.00, -1.00, 677.3, 752.0)">u</text><text xml:space="preserve" font-family="Cantarell-Regular" font-size="36.0" fill="#DCDDE0" transform="matrix(1.00, 0.00, -0.00, -1.00, 698.0, 752.0)">r</text><text xml:space="preserve" font-family="Cantarell-Regular" font-size="36.0" fill="#DCDDE0" transform="matrix(1.00, 0.00, -0.00, -1.00, 712.1, 752.0)">r</text><text xml:space="preserve" font-family="Cantarell-Regular" font-size="36.0" fill="#DCDDE0" transform="matrix(1.00, 0.00, -0.00, -1.00, 726.1, 752.0)">e</text><text xml:space="preserve" font-family="Cantarell-Regular" font-size="36.0" fill="#DCDDE0" transform="matrix(1.00, 0.00, -0.00, -1.00, 745.5, 752.0)">n</text><text xml:space="preserve" font-family="Cantarell-Regular" font-size="36.0" fill="#DCDDE0" transform="matrix(1.00, 0.00, -0.00, -1.00, 766.2, 752.0)">t</text><text xml:space="preserve" font-family="Cantarell-Regular" font-size="36.0" fill="#DCDDE0" transform="matrix(1.00, 0.00, -0.00, -1.00, 779.8, 752.0)">”</text><text xml:space="preserve" font-family="Cantarell-Regular" font-size="36.0" fill="#DCDDE0" transform="matrix(1.00, 0.00, -0.00, -1.00, 794.4, 752.0)"> </text><text xml:space="preserve" font-family="Cantarell-Regular" font-size="36.0" fill="#DCDDE0" transform="matrix(1.00, 0.00, -0.00, -1.00, 804.3, 752.0)">r</text><text xml:space="preserve" font-family="Cantarell-Regular" font-size="36.0" fill="#DCDDE0" transform="matrix(1.00, 0.00, -0.00, -1.00, 818.4, 752.0)">e</text><text xml:space="preserve" font-family="Cantarell-Regular" font-size="36.0" fill="#DCDDE0" transform="matrix(1.00, 0.00, -0.00, -1.00, 837.7, 752.0)">l</text><text xml:space="preserve" font-family="Cantarell-Regular" font-size="36.0" fill="#DCDDE0" transform="matrix(1.00, 0.00, -0.00, -1.00, 847.7, 752.0)">e</text><text xml:space="preserve" font-family="Cantarell-Regular" font-size="36.0" fill="#DCDDE0" transform="matrix(1.00, 0.00, -0.00, -1.00, 867.0, 752.0)">a</text><text xml:space="preserve" font-family="Cantarell-Regular" font-size="36.0" fill="#DCDDE0" transform="matrix(1.00, 0.00, -0.00, -1.00, 885.8, 752.0)">s</text><text xml:space="preserve" font-family="Cantarell-Regular" font-size="36.0" fill="#DCDDE0" transform="matrix(1.00, 0.00, -0.00, -1.00, 903.7, 752.0)">e</text></g></g><g><clipPath id="clip-465"><path d="M 213.3 226.5 L 786.0 226.5 L 786.0 354.1 L 213.3 354.1 Z M 213.3 226.5 "></path></clipPath><g clip-path="url(#clip-465)"><text xml:space="preserve" font-family="Cantarell-Regular" font-size="36.0" fill="#DCDDE0" transform="matrix(1.00, 0.00, -0.00, -1.00, 299.0, 304.0)">S</text><text xml:space="preserve" font-family="Cantarell-Regular" font-size="36.0" fill="#DCDDE0" transform="matrix(1.00, 0.00, -0.00, -1.00, 322.9, 304.0)">h</text><text xml:space="preserve" font-family="Cantarell-Regular" font-size="36.0" fill="#DCDDE0" transform="matrix(1.00, 0.00, -0.00, -1.00, 343.8, 304.0)">a</text><text xml:space="preserve" font-family="Cantarell-Regular" font-size="36.0" fill="#DCDDE0" transform="matrix(1.00, 0.00, -0.00, -1.00, 362.6, 304.0)">r</text><text xml:space="preserve" font-family="Cantarell-Regular" font-size="36.0" fill="#DCDDE0" transform="matrix(1.00, 0.00, -0.00, -1.00, 376.7, 304.0)">e</text><text xml:space="preserve" font-family="Cantarell-Regular" font-size="36.0" fill="#DCDDE0" transform="matrix(1.00, 0.00, -0.00, -1.00, 396.1, 304.0)">d</text><text xml:space="preserve" font-family="Cantarell-Regular" font-size="36.0" fill="#DCDDE0" transform="matrix(1.00, 0.00, -0.00, -1.00, 417.0, 304.0)"> </text><text xml:space="preserve" font-family="Cantarell-Regular" font-size="36.0" fill="#DCDDE0" transform="matrix(1.00, 0.00, -0.00, -1.00, 426.8, 304.0)">b</text><text xml:space="preserve" font-family="Cantarell-Regular" font-size="36.0" fill="#DCDDE0" transform="matrix(1.00, 0.00, -0.00, -1.00, 447.6, 304.0)">e</text><text xml:space="preserve" font-family="Cantarell-Regular" font-size="36.0" fill="#DCDDE0" transform="matrix(1.00, 0.00, -0.00, -1.00, 467.0, 304.0)">t</text><text xml:space="preserve" font-family="Cantarell-Regular" font-size="36.0" fill="#DCDDE0" transform="matrix(1.00, 0.00, -0.00, -1.00, 480.6, 304.0)">w</text><text xml:space="preserve" font-family="Cantarell-Regular" font-size="36.0" fill="#DCDDE0" transform="matrix(1.00, 0.00, -0.00, -1.00, 510.2, 304.0)">e</text><text xml:space="preserve" font-family="Cantarell-Regular" font-size="36.0" fill="#DCDDE0" transform="matrix(1.00, 0.00, -0.00, -1.00, 529.6, 304.0)">e</text><text xml:space="preserve" font-family="Cantarell-Regular" font-size="36.0" fill="#DCDDE0" transform="matrix(1.00, 0.00, -0.00, -1.00, 549.0, 304.0)">n</text><text xml:space="preserve" font-family="Cantarell-Regular" font-size="36.0" fill="#DCDDE0" transform="matrix(1.00, 0.00, -0.00, -1.00, 569.7, 304.0)"> </text><text xml:space="preserve" font-family="Cantarell-Regular" font-size="36.0" fill="#DCDDE0" transform="matrix(1.00, 0.00, -0.00, -1.00, 579.5, 304.0)">r</text><text xml:space="preserve" font-family="Cantarell-Regular" font-size="36.0" fill="#DCDDE0" transform="matrix(1.00, 0.00, -0.00, -1.00, 593.6, 304.0)">e</text><text xml:space="preserve" font-family="Cantarell-Regular" font-size="36.0" fill="#DCDDE0" transform="matrix(1.00, 0.00, -0.00, -1.00, 613.0, 304.0)">l</text><text xml:space="preserve" font-family="Cantarell-Regular" font-size="36.0" fill="#DCDDE0" transform="matrix(1.00, 0.00, -0.00, -1.00, 622.9, 304.0)">e</text><text xml:space="preserve" font-family="Cantarell-Regular" font-size="36.0" fill="#DCDDE0" transform="matrix(1.00, 0.00, -0.00, -1.00, 642.3, 304.0)">a</text><text xml:space="preserve" font-family="Cantarell-Regular" font-size="36.0" fill="#DCDDE0" transform="matrix(1.00, 0.00, -0.00, -1.00, 661.1, 304.0)">s</text><text xml:space="preserve" font-family="Cantarell-Regular" font-size="36.0" fill="#DCDDE0" transform="matrix(1.00, 0.00, -0.00, -1.00, 678.9, 304.0)">e</text><text xml:space="preserve" font-family="Cantarell-Regular" font-size="36.0" fill="#DCDDE0" transform="matrix(1.00, 0.00, -0.00, -1.00, 698.3, 304.0)">s</text><text xml:space="preserve" font-family="Cantarell-Regular" font-size="36.0" fill="#DCDDE0" transform="matrix(1.00, 0.00, -0.00, -1.00, 716.2, 304.0)"> </text><text xml:space="preserve" font-family="Cantarell-Regular" font-size="36.0" fill="#DCDDE0" transform="matrix(1.00, 0.00, -0.00, -1.00, 291.0, 252.0)">(</text><text xml:space="preserve" font-family="Cantarell-Regular" font-size="36.0" fill="#DCDDE0" transform="matrix(1.00, 0.00, -0.00, -1.00, 304.1, 252.0)">i</text><text xml:space="preserve" font-family="Cantarell-Regular" font-size="36.0" fill="#DCDDE0" transform="matrix(1.00, 0.00, -0.00, -1.00, 313.3, 252.0)">.</text><text xml:space="preserve" font-family="Cantarell-Regular" font-size="36.0" fill="#DCDDE0" transform="matrix(1.00, 0.00, -0.00, -1.00, 323.3, 252.0)">e</text><text xml:space="preserve" font-family="Cantarell-Regular" font-size="36.0" fill="#DCDDE0" transform="matrix(1.00, 0.00, -0.00, -1.00, 342.7, 252.0)">.</text><text xml:space="preserve" font-family="Cantarell-Regular" font-size="36.0" fill="#DCDDE0" transform="matrix(1.00, 0.00, -0.00, -1.00, 352.7, 252.0)"> </text><text xml:space="preserve" font-family="Cantarell-Regular" font-size="36.0" fill="#DCDDE0" transform="matrix(1.00, 0.00, -0.00, -1.00, 362.6, 252.0)">-</text><text xml:space="preserve" font-family="Cantarell-Regular" font-size="36.0" fill="#DCDDE0" transform="matrix(1.00, 0.00, -0.00, -1.00, 383.8, 252.0)"> </text><text xml:space="preserve" font-family="Cantarell-Regular" font-size="36.0" fill="#DCDDE0" transform="matrix(1.00, 0.00, -0.00, -1.00, 393.7, 252.0)">l</text><text xml:space="preserve" font-family="Cantarell-Regular" font-size="36.0" fill="#DCDDE0" transform="matrix(1.00, 0.00, -0.00, -1.00, 403.6, 252.0)">o</text><text xml:space="preserve" font-family="Cantarell-Regular" font-size="36.0" fill="#DCDDE0" transform="matrix(1.00, 0.00, -0.00, -1.00, 424.9, 252.0)">g</text><text xml:space="preserve" font-family="Cantarell-Regular" font-size="36.0" fill="#DCDDE0" transform="matrix(1.00, 0.00, -0.00, -1.00, 445.6, 252.0)">s</text><text xml:space="preserve" font-family="Cantarell-Regular" font-size="36.0" fill="#DCDDE0" transform="matrix(1.00, 0.00, -0.00, -1.00, 463.4, 252.0)">,</text><text xml:space="preserve" font-family="Cantarell-Regular" font-size="36.0" fill="#DCDDE0" transform="matrix(1.00, 0.00, -0.00, -1.00, 473.5, 252.0)"> </text><text xml:space="preserve" font-family="Cantarell-Regular" font-size="36.0" fill="#DCDDE0" transform="matrix(1.00, 0.00, -0.00, -1.00, 483.3, 252.0)">.</text><text xml:space="preserve" font-family="Cantarell-Regular" font-size="36.0" fill="#DCDDE0" transform="matrix(1.00, 0.00, -0.00, -1.00, 493.4, 252.0)">e</text><text xml:space="preserve" font-family="Cantarell-Regular" font-size="36.0" fill="#DCDDE0" transform="matrix(1.00, 0.00, -0.00, -1.00, 512.7, 252.0)">n</text><text xml:space="preserve" font-family="Cantarell-Regular" font-size="36.0" fill="#DCDDE0" transform="matrix(1.00, 0.00, -0.00, -1.00, 533.4, 252.0)">v</text><text xml:space="preserve" font-family="Cantarell-Regular" font-size="36.0" fill="#DCDDE0" transform="matrix(1.00, 0.00, -0.00, -1.00, 550.9, 252.0)"> </text><text xml:space="preserve" font-family="Cantarell-Regular" font-size="36.0" fill="#DCDDE0" transform="matrix(1.00, 0.00, -0.00, -1.00, 560.7, 252.0)">f</text><text xml:space="preserve" font-family="Cantarell-Regular" font-size="36.0" fill="#DCDDE0" transform="matrix(1.00, 0.00, -0.00, -1.00, 575.2, 252.0)">i</text><text xml:space="preserve" font-family="Cantarell-Regular" font-size="36.0" fill="#DCDDE0" transform="matrix(1.00, 0.00, -0.00, -1.00, 584.4, 252.0)">l</text><text xml:space="preserve" font-family="Cantarell-Regular" font-size="36.0" fill="#DCDDE0" transform="matrix(1.00, 0.00, -0.00, -1.00, 594.3, 252.0)">e</text><text xml:space="preserve" font-family="Cantarell-Regular" font-size="36.0" fill="#DCDDE0" transform="matrix(1.00, 0.00, -0.00, -1.00, 613.7, 252.0)">s</text><text xml:space="preserve" font-family="Cantarell-Regular" font-size="36.0" fill="#DCDDE0" transform="matrix(1.00, 0.00, -0.00, -1.00, 631.6, 252.0)">,</text><text xml:space="preserve" font-family="Cantarell-Regular" font-size="36.0" fill="#DCDDE0" transform="matrix(1.00, 0.00, -0.00, -1.00, 641.6, 252.0)"> </text><text xml:space="preserve" font-family="Cantarell-Regular" font-size="36.0" fill="#DCDDE0" transform="matrix(1.00, 0.00, -0.00, -1.00, 651.5, 252.0)">e</text><text xml:space="preserve" font-family="Cantarell-Regular" font-size="36.0" fill="#DCDDE0" transform="matrix(1.00, 0.00, -0.00, -1.00, 670.8, 252.0)">t</text><text xml:space="preserve" font-family="Cantarell-Regular" font-size="36.0" fill="#DCDDE0" transform="matrix(1.00, 0.00, -0.00, -1.00, 684.5, 252.0)">c</text><text xml:space="preserve" font-family="Cantarell-Regular" font-size="36.0" fill="#DCDDE0" transform="matrix(1.00, 0.00, -0.00, -1.00, 702.0, 252.0)">.</text><text xml:space="preserve" font-family="Cantarell-Regular" font-size="36.0" fill="#DCDDE0" transform="matrix(1.00, 0.00, -0.00, -1.00, 712.1, 252.0)">)</text></g></g><g><clipPath id="clip-466"><path d="M 454.2 330.6 L 351.1 476.3 L 372.4 491.3 L 475.5 345.6 Z M 454.2 330.6 "></path></clipPath><g clip-path="url(#clip-466)"><path d="M 0.0 0.0 L 152.5 0.0 L 155.5 0.0 " fill="none" stroke="#F38F18" stroke-width="6.00" transform="matrix(-0.58, 0.82, 0.82, 0.58, 464.3, 338.9)"></path><path d="M 386.0 470.3 L 362.3 483.0 L 366.4 456.5 Z M 386.0 470.3 " fill="#F38F18"></path></g></g><g><clipPath id="clip-467"><path d="M 275.9 483.8 L 406.0 483.8 L 406.0 529.6 L 275.9 529.6 Z M 275.9 483.8 "></path></clipPath><g clip-path="url(#clip-467)"><path d="M 0.0 0.0 L 124.2 0.0 L 124.2 39.9 L 0.0 39.9 Z M 0.0 0.0 " fill="none" stroke="#F38F18" stroke-width="4.00" transform="matrix(1.00, 0.00, 0.00, -1.00, 278.9, 526.6)"></path></g></g><g><clipPath id="clip-468"><path d="M 1238.3 521.3 L 1826.4 521.3 L 1826.4 596.9 L 1238.3 596.9 Z M 1238.3 521.3 "></path></clipPath><g clip-path="url(#clip-468)"><text xml:space="preserve" font-family="Cantarell-Regular" font-size="36.0" fill="#DCDDE0" transform="matrix(1.00, 0.00, -0.00, -1.00, 1333.0, 547.0)">K</text><text xml:space="preserve" font-family="Cantarell-Regular" font-size="36.0" fill="#DCDDE0" transform="matrix(1.00, 0.00, -0.00, -1.00, 1357.9, 547.0)">e</text><text xml:space="preserve" font-family="Cantarell-Regular" font-size="36.0" fill="#DCDDE0" transform="matrix(1.00, 0.00, -0.00, -1.00, 1377.3, 547.0)">e</text><text xml:space="preserve" font-family="Cantarell-Regular" font-size="36.0" fill="#DCDDE0" transform="matrix(1.00, 0.00, -0.00, -1.00, 1396.7, 547.0)">p</text><text xml:space="preserve" font-family="Cantarell-Regular" font-size="36.0" fill="#DCDDE0" transform="matrix(1.00, 0.00, -0.00, -1.00, 1417.3, 547.0)">s</text><text xml:space="preserve" font-family="Cantarell-Regular" font-size="36.0" fill="#DCDDE0" transform="matrix(1.00, 0.00, -0.00, -1.00, 1435.2, 547.0)"> </text><text xml:space="preserve" font-family="Cantarell-Regular" font-size="36.0" fill="#DCDDE0" transform="matrix(1.00, 0.00, -0.00, -1.00, 1445.1, 547.0)">t</text><text xml:space="preserve" font-family="Cantarell-Regular" font-size="36.0" fill="#DCDDE0" transform="matrix(1.00, 0.00, -0.00, -1.00, 1458.7, 547.0)">h</text><text xml:space="preserve" font-family="Cantarell-Regular" font-size="36.0" fill="#DCDDE0" transform="matrix(1.00, 0.00, -0.00, -1.00, 1479.6, 547.0)">e</text><text xml:space="preserve" font-family="Cantarell-Regular" font-size="36.0" fill="#DCDDE0" transform="matrix(1.00, 0.00, -0.00, -1.00, 1499.0, 547.0)"> </text><text xml:space="preserve" font-family="Cantarell-Regular" font-size="36.0" fill="#DCDDE0" transform="matrix(1.00, 0.00, -0.00, -1.00, 1508.8, 547.0)">l</text><text xml:space="preserve" font-family="Cantarell-Regular" font-size="36.0" fill="#DCDDE0" transform="matrix(1.00, 0.00, -0.00, -1.00, 1518.8, 547.0)">a</text><text xml:space="preserve" font-family="Cantarell-Regular" font-size="36.0" fill="#DCDDE0" transform="matrix(1.00, 0.00, -0.00, -1.00, 1537.6, 547.0)">s</text><text xml:space="preserve" font-family="Cantarell-Regular" font-size="36.0" fill="#DCDDE0" transform="matrix(1.00, 0.00, -0.00, -1.00, 1555.4, 547.0)">t</text><text xml:space="preserve" font-family="Cantarell-Regular" font-size="36.0" fill="#DCDDE0" transform="matrix(1.00, 0.00, -0.00, -1.00, 1569.1, 547.0)"> </text><text xml:space="preserve" font-family="Cantarell-Regular" font-size="36.0" fill="#DCDDE0" transform="matrix(1.00, 0.00, -0.00, -1.00, 1578.9, 547.0)">5</text><text xml:space="preserve" font-family="Cantarell-Regular" font-size="36.0" fill="#DCDDE0" transform="matrix(1.00, 0.00, -0.00, -1.00, 1601.8, 547.0)"> </text><text xml:space="preserve" font-family="Cantarell-Regular" font-size="36.0" fill="#DCDDE0" transform="matrix(1.00, 0.00, -0.00, -1.00, 1611.6, 547.0)">r</text><text xml:space="preserve" font-family="Cantarell-Regular" font-size="36.0" fill="#DCDDE0" transform="matrix(1.00, 0.00, -0.00, -1.00, 1625.7, 547.0)">e</text><text xml:space="preserve" font-family="Cantarell-Regular" font-size="36.0" fill="#DCDDE0" transform="matrix(1.00, 0.00, -0.00, -1.00, 1645.1, 547.0)">l</text><text xml:space="preserve" font-family="Cantarell-Regular" font-size="36.0" fill="#DCDDE0" transform="matrix(1.00, 0.00, -0.00, -1.00, 1655.0, 547.0)">e</text><text xml:space="preserve" font-family="Cantarell-Regular" font-size="36.0" fill="#DCDDE0" transform="matrix(1.00, 0.00, -0.00, -1.00, 1674.4, 547.0)">a</text><text xml:space="preserve" font-family="Cantarell-Regular" font-size="36.0" fill="#DCDDE0" transform="matrix(1.00, 0.00, -0.00, -1.00, 1693.2, 547.0)">s</text><text xml:space="preserve" font-family="Cantarell-Regular" font-size="36.0" fill="#DCDDE0" transform="matrix(1.00, 0.00, -0.00, -1.00, 1711.0, 547.0)">e</text><text xml:space="preserve" font-family="Cantarell-Regular" font-size="36.0" fill="#DCDDE0" transform="matrix(1.00, 0.00, -0.00, -1.00, 1730.4, 547.0)">s</text></g></g><g><clipPath id="clip-469"><path d="M 1241.4 174.6 L 1823.3 174.6 L 1823.3 515.2 L 1241.4 515.2 Z M 1241.4 174.6 "></path></clipPath><g clip-path="url(#clip-469)"><image xlink:href="../../C12CB1AF-E6FD-45AA-9CE7-AC3767D5564F/assets/FE81E07495C4049898EC461FF7242E91.png" width="582.00" height="341.00" transform="matrix(1.00, 0.00, -0.00, -1.00, 1241.4, 515.2)" opacity="0.70"></image><image xlink:href="../../C12CB1AF-E6FD-45AA-9CE7-AC3767D5564F/assets/553BD30F21C7A74DC350475245020AA8.png" width="494.00" height="274.00" transform="matrix(1.10, 0.00, -0.00, -1.09, 1261.0, 505.0)"></image></g></g><g><clipPath id="clip-470"><path d="M 275.9 524.7 L 433.8 524.7 L 433.8 570.6 L 275.9 570.6 Z M 275.9 524.7 "></path></clipPath><g clip-path="url(#clip-470)"><path d="M 0.0 0.0 L 151.9 0.0 L 151.9 39.9 L 0.0 39.9 Z M 0.0 0.0 " fill="none" stroke="#F38F18" stroke-width="4.00" transform="matrix(1.00, 0.00, 0.00, -1.00, 278.9, 567.6)"></path></g></g><g><clipPath id="clip-471"><path d="M 1252.0 448.6 L 437.7 538.6 L 440.5 564.4 L 1254.9 474.5 Z M 1252.0 448.6 "></path></clipPath><g clip-path="url(#clip-471)"><path d="M 0.0 0.0 L 793.3 0.0 L 796.3 0.0 " fill="none" stroke="#F38F18" stroke-width="6.00" transform="matrix(-0.99, 0.11, 0.11, 0.99, 1252.5, 461.6)"></path><path d="M 465.3 560.7 L 440.1 551.4 L 462.6 536.8 Z M 465.3 560.7 " fill="#F38F18"></path></g></g></g></svg>