<?xml version="1.0" encoding="UTF-8" standalone="no"?><svg xmlns="http://www.w3.org/2000/svg" xmlns:xlink="http://www.w3.org/1999/xlink" clip-rule="evenodd" stroke-miterlimit="4.00" viewBox="0 0 365 56"><desc>SVG generated by Keynote</desc><defs></defs><g transform="matrix(1.00, 0.00, -0.00, -1.00, 0.0, 56.0)"><text xml:space="preserve" font-family="Cantarell-Regular" font-size="52.0" fill="#889AA4" transform="matrix(1.00, 0.00, -0.00, -1.00, -1.0, 16.0)">T</text><text xml:space="preserve" font-family="Cantarell-Regular" font-size="52.0" fill="#889AA4" transform="matrix(1.00, 0.00, -0.00, -1.00, 29.7, 16.0)">h</text><text xml:space="preserve" font-family="Cantarell-Regular" font-size="52.0" fill="#889AA4" transform="matrix(1.00, 0.00, -0.00, -1.00, 59.9, 16.0)">e</text><text xml:space="preserve" font-family="Cantarell-Regular" font-size="52.0" fill="#889AA4" transform="matrix(1.00, 0.00, -0.00, -1.00, 87.9, 16.0)"> </text><text xml:space="preserve" font-family="Cantarell-Regular" font-size="52.0" fill="#889AA4" transform="matrix(1.00, 0.00, -0.00, -1.00, 102.2, 16.0)">B</text><text xml:space="preserve" font-family="Cantarell-Regular" font-size="52.0" fill="#889AA4" transform="matrix(1.00, 0.00, -0.00, -1.00, 138.4, 16.0)">i</text><text xml:space="preserve" font-family="Cantarell-Regular" font-size="52.0" fill="#889AA4" transform="matrix(1.00, 0.00, -0.00, -1.00, 151.7, 16.0)">g</text><text xml:space="preserve" font-family="Cantarell-Regular" font-size="52.0" fill="#889AA4" transform="matrix(1.00, 0.00, -0.00, -1.00, 181.5, 16.0)"> </text><text xml:space="preserve" font-family="Cantarell-Regular" font-size="52.0" fill="#889AA4" transform="matrix(1.00, 0.00, -0.00, -1.00, 195.8, 16.0)">P</text><text xml:space="preserve" font-family="Cantarell-Regular" font-size="52.0" fill="#889AA4" transform="matrix(1.00, 0.00, -0.00, -1.00, 229.8, 16.0)">i</text><text xml:space="preserve" font-family="Cantarell-Regular" font-size="52.0" fill="#889AA4" transform="matrix(1.00, 0.00, -0.00, -1.00, 243.1, 16.0)">c</text><text xml:space="preserve" font-family="Cantarell-Regular" font-size="52.0" fill="#889AA4" transform="matrix(1.00, 0.00, -0.00, -1.00, 268.5, 16.0)">t</text><text xml:space="preserve" font-family="Cantarell-Regular" font-size="52.0" fill="#889AA4" transform="matrix(1.00, 0.00, -0.00, -1.00, 288.2, 16.0)">u</text><text xml:space="preserve" font-family="Cantarell-Regular" font-size="52.0" fill="#889AA4" transform="matrix(1.00, 0.00, -0.00, -1.00, 318.1, 16.0)">r</text><text xml:space="preserve" font-family="Cantarell-Regular" font-size="52.0" fill="#889AA4" transform="matrix(1.00, 0.00, -0.00, -1.00, 338.4, 16.0)">e</text></g></svg>