<?xml version="1.0" encoding="UTF-8" standalone="no"?><svg xmlns="http://www.w3.org/2000/svg" xmlns:xlink="http://www.w3.org/1999/xlink" clip-rule="evenodd" stroke-miterlimit="4.00" viewBox="0 0 363 42"><desc>SVG generated by Keynote</desc><defs></defs><g transform="matrix(1.00, 0.00, -0.00, -1.00, 0.0, 42.0)"><text xml:space="preserve" font-family="Cantarell-Regular" font-size="38.0" fill="#FEFFFF" transform="matrix(1.00, 0.00, -0.00, -1.00, -2.0, 12.0)">G</text><text xml:space="preserve" font-family="Cantarell-Regular" font-size="38.0" fill="#FEFFFF" transform="matrix(1.00, 0.00, -0.00, -1.00, 27.5, 12.0)">o</text><text xml:space="preserve" font-family="Cantarell-Regular" font-size="38.0" fill="#FEFFFF" transform="matrix(1.00, 0.00, -0.00, -1.00, 50.0, 12.0)"> </text><text xml:space="preserve" font-family="Cantarell-Regular" font-size="38.0" fill="#FEFFFF" transform="matrix(1.00, 0.00, -0.00, -1.00, 60.4, 12.0)">a</text><text xml:space="preserve" font-family="Cantarell-Regular" font-size="38.0" fill="#FEFFFF" transform="matrix(1.00, 0.00, -0.00, -1.00, 80.2, 12.0)">h</text><text xml:space="preserve" font-family="Cantarell-Regular" font-size="38.0" fill="#FEFFFF" transform="matrix(1.00, 0.00, -0.00, -1.00, 102.3, 12.0)">e</text><text xml:space="preserve" font-family="Cantarell-Regular" font-size="38.0" fill="#FEFFFF" transform="matrix(1.00, 0.00, -0.00, -1.00, 122.8, 12.0)">a</text><text xml:space="preserve" font-family="Cantarell-Regular" font-size="38.0" fill="#FEFFFF" transform="matrix(1.00, 0.00, -0.00, -1.00, 142.6, 12.0)">d</text><text xml:space="preserve" font-family="Cantarell-Regular" font-size="38.0" fill="#FEFFFF" transform="matrix(1.00, 0.00, -0.00, -1.00, 164.7, 12.0)">.</text><text xml:space="preserve" font-family="Cantarell-Regular" font-size="38.0" fill="#FEFFFF" transform="matrix(1.00, 0.00, -0.00, -1.00, 175.2, 12.0)"> </text><text xml:space="preserve" font-family="Cantarell-Regular" font-size="38.0" fill="#FEFFFF" transform="matrix(1.00, 0.00, -0.00, -1.00, 185.6, 12.0)">A</text><text xml:space="preserve" font-family="Cantarell-Regular" font-size="38.0" fill="#FEFFFF" transform="matrix(1.00, 0.00, -0.00, -1.00, 211.3, 12.0)">s</text><text xml:space="preserve" font-family="Cantarell-Regular" font-size="38.0" fill="#FEFFFF" transform="matrix(1.00, 0.00, -0.00, -1.00, 230.2, 12.0)">k</text><text xml:space="preserve" font-family="Cantarell-Regular" font-size="38.0" fill="#FEFFFF" transform="matrix(1.00, 0.00, -0.00, -1.00, 250.1, 12.0)"> </text><text xml:space="preserve" font-family="Cantarell-Regular" font-size="38.0" fill="#FEFFFF" transform="matrix(1.00, 0.00, -0.00, -1.00, 260.5, 12.0)">a</text><text xml:space="preserve" font-family="Cantarell-Regular" font-size="38.0" fill="#FEFFFF" transform="matrix(1.00, 0.00, -0.00, -1.00, 280.3, 12.0)">w</text><text xml:space="preserve" font-family="Cantarell-Regular" font-size="38.0" fill="#FEFFFF" transform="matrix(1.00, 0.00, -0.00, -1.00, 311.6, 12.0)">a</text><text xml:space="preserve" font-family="Cantarell-Regular" font-size="38.0" fill="#FEFFFF" transform="matrix(1.00, 0.00, -0.00, -1.00, 331.4, 12.0)">y</text><text xml:space="preserve" font-family="Cantarell-Regular" font-size="38.0" fill="#FEFFFF" transform="matrix(1.00, 0.00, -0.00, -1.00, 351.1, 12.0)">.</text><text xml:space="preserve" font-family="Cantarell-Regular" font-size="38.0" fill="#FEFFFF" transform="matrix(1.00, 0.00, -0.00, -1.00, 361.7, 12.0)"> </text></g></svg>