<?xml version="1.0" encoding="UTF-8" standalone="no"?><svg xmlns="http://www.w3.org/2000/svg" xmlns:xlink="http://www.w3.org/1999/xlink" clip-rule="evenodd" stroke-miterlimit="4.00" viewBox="0 0 656 748"><desc>SVG generated by Keynote</desc><defs></defs><g transform="matrix(1.00, 0.00, -0.00, -1.00, 0.0, 748.0)"><g><clipPath id="clip-788"><path d="M 0.0 1.0 L 655.1 1.0 L 655.1 747.8 L 0.0 747.8 Z M 0.0 1.0 "></path></clipPath><g clip-path="url(#clip-788)"><path d="M 281.7 746.8 C 487.3 746.8 654.1 580.1 654.1 374.4 C 654.1 168.7 487.3 2.0 281.7 2.0 C 169.6 2.0 69.0 51.5 1.0 130.1 L 1.0 618.7 C 69.0 697.3 169.6 746.8 281.7 746.8 Z M 281.7 746.8 " fill="#889AA4"></path></g></g><g><clipPath id="clip-789"><path d="M 14.2 219.7 L 613.8 219.7 L 613.8 580.3 L 14.2 580.3 Z M 14.2 219.7 "></path></clipPath><g clip-path="url(#clip-789)"><text xml:space="preserve" font-family="Novecentosanswide-Medium" font-size="86.0" fill="#FEFFFF" transform="matrix(1.00, 0.00, -0.00, -1.00, 40.0, 467.0)">Q</text><text xml:space="preserve" font-family="Novecentosanswide-Medium" font-size="86.0" fill="#FEFFFF" transform="matrix(1.00, 0.00, -0.00, -1.00, 109.1, 467.0)">U</text><text xml:space="preserve" font-family="Novecentosanswide-Medium" font-size="86.0" fill="#FEFFFF" transform="matrix(1.00, 0.00, -0.00, -1.00, 169.4, 467.0)">E</text><text xml:space="preserve" font-family="Novecentosanswide-Medium" font-size="86.0" fill="#FEFFFF" transform="matrix(1.00, 0.00, -0.00, -1.00, 221.4, 467.0)">S</text><text xml:space="preserve" font-family="Novecentosanswide-Medium" font-size="86.0" fill="#FEFFFF" transform="matrix(1.00, 0.00, -0.00, -1.00, 272.0, 467.0)">T</text><text xml:space="preserve" font-family="Novecentosanswide-Medium" font-size="86.0" fill="#FEFFFF" transform="matrix(1.00, 0.00, -0.00, -1.00, 327.4, 467.0)">I</text><text xml:space="preserve" font-family="Novecentosanswide-Medium" font-size="86.0" fill="#FEFFFF" transform="matrix(1.00, 0.00, -0.00, -1.00, 348.9, 467.0)">O</text><text xml:space="preserve" font-family="Novecentosanswide-Medium" font-size="86.0" fill="#FEFFFF" transform="matrix(1.00, 0.00, -0.00, -1.00, 417.6, 467.0)">N</text><text xml:space="preserve" font-family="Novecentosanswide-Medium" font-size="86.0" fill="#FEFFFF" transform="matrix(1.00, 0.00, -0.00, -1.00, 480.8, 467.0)">S</text><text xml:space="preserve" font-family="Cantarell-Regular" font-size="34.0" fill="#009ED8" transform="matrix(1.00, 0.00, -0.00, -1.00, 532.8, 467.0)"> </text><text xml:space="preserve" font-family="Novecentosanswide-Medium" font-size="86.0" fill="#FEFFFF" transform="matrix(1.00, 0.00, -0.00, -1.00, 40.0, 364.0)"> </text><text xml:space="preserve" font-family="Novecentosanswide-Medium" font-size="86.0" fill="#FEFFFF" transform="matrix(1.00, 0.00, -0.00, -1.00, 61.5, 364.0)">a</text><text xml:space="preserve" font-family="Novecentosanswide-Medium" font-size="86.0" fill="#FEFFFF" transform="matrix(1.00, 0.00, -0.00, -1.00, 113.5, 364.0)">n</text><text xml:space="preserve" font-family="Novecentosanswide-Medium" font-size="86.0" fill="#FEFFFF" transform="matrix(1.00, 0.00, -0.00, -1.00, 168.5, 364.0)">d</text><text xml:space="preserve" font-family="Cantarell-Regular" font-size="34.0" fill="#009ED8" transform="matrix(1.00, 0.00, -0.00, -1.00, 221.9, 364.0)"> </text><text xml:space="preserve" font-family="Novecentosanswide-Medium" font-size="86.0" fill="#FEFFFF" transform="matrix(1.00, 0.00, -0.00, -1.00, 40.0, 261.0)">A</text><text xml:space="preserve" font-family="Novecentosanswide-Medium" font-size="86.0" fill="#FEFFFF" transform="matrix(1.00, 0.00, -0.00, -1.00, 103.6, 261.0)">N</text><text xml:space="preserve" font-family="Novecentosanswide-Medium" font-size="86.0" fill="#FEFFFF" transform="matrix(1.00, 0.00, -0.00, -1.00, 166.8, 261.0)">S</text><text xml:space="preserve" font-family="Novecentosanswide-Medium" font-size="86.0" fill="#FEFFFF" transform="matrix(1.00, 0.00, -0.00, -1.00, 218.8, 261.0)">W</text><text xml:space="preserve" font-family="Novecentosanswide-Medium" font-size="86.0" fill="#FEFFFF" transform="matrix(1.00, 0.00, -0.00, -1.00, 305.1, 261.0)">E</text><text xml:space="preserve" font-family="Novecentosanswide-Medium" font-size="86.0" fill="#FEFFFF" transform="matrix(1.00, 0.00, -0.00, -1.00, 357.1, 261.0)">R</text><text xml:space="preserve" font-family="Novecentosanswide-Medium" font-size="86.0" fill="#FEFFFF" transform="matrix(1.00, 0.00, -0.00, -1.00, 410.1, 261.0)">S</text></g></g><g><clipPath id="clip-790"><path d="M 184.7 510.2 L 396.0 510.2 L 396.0 741.5 L 184.7 741.5 Z M 184.7 510.2 "></path></clipPath><g clip-path="url(#clip-790)"></g></g></g></svg>