<?xml version="1.0" encoding="UTF-8" standalone="no"?><svg xmlns="http://www.w3.org/2000/svg" xmlns:xlink="http://www.w3.org/1999/xlink" clip-rule="evenodd" stroke-miterlimit="4.00" viewBox="0 0 1638 657"><desc>SVG generated by Keynote</desc><defs></defs><g transform="matrix(1.00, 0.00, -0.00, -1.00, 0.0, 657.0)"><g><clipPath id="clip-686"><path d="M 0.9 422.6 L 224.9 422.6 L 224.9 483.8 L 0.9 483.8 Z M 0.9 422.6 "></path></clipPath><g clip-path="url(#clip-686)"><path d="M 0.0 0.0 L 218.0 0.0 L 218.0 55.3 L 0.0 55.3 Z M 0.0 0.0 " fill="none" stroke="#F38F18" stroke-width="4.00" transform="matrix(1.00, 0.00, 0.00, -1.00, 3.9, 480.8)"></path></g></g><g><clipPath id="clip-687"><path d="M 396.5 451.5 L 969.1 451.5 L 969.1 527.2 L 396.5 527.2 Z M 396.5 451.5 "></path></clipPath><g clip-path="url(#clip-687)"><text xml:space="preserve" font-family="Cantarell-Regular" font-size="36.0" fill="#DCDDE0" transform="matrix(1.00, 0.00, -0.00, -1.00, 438.0, 477.0)">1</text><text xml:space="preserve" font-family="Cantarell-Regular" font-size="36.0" fill="#DCDDE0" transform="matrix(1.00, 0.00, -0.00, -1.00, 460.8, 477.0)">)</text><text xml:space="preserve" font-family="Cantarell-Regular" font-size="36.0" fill="#DCDDE0" transform="matrix(1.00, 0.00, -0.00, -1.00, 473.9, 477.0)"> </text><text xml:space="preserve" font-family="Cantarell-Regular" font-size="36.0" fill="#DCDDE0" transform="matrix(1.00, 0.00, -0.00, -1.00, 483.8, 477.0)">C</text><text xml:space="preserve" font-family="Cantarell-Regular" font-size="36.0" fill="#DCDDE0" transform="matrix(1.00, 0.00, -0.00, -1.00, 509.3, 477.0)">o</text><text xml:space="preserve" font-family="Cantarell-Regular" font-size="36.0" fill="#DCDDE0" transform="matrix(1.00, 0.00, -0.00, -1.00, 530.6, 477.0)">n</text><text xml:space="preserve" font-family="Cantarell-Regular" font-size="36.0" fill="#DCDDE0" transform="matrix(1.00, 0.00, -0.00, -1.00, 551.3, 477.0)">f</text><text xml:space="preserve" font-family="Cantarell-Regular" font-size="36.0" fill="#DCDDE0" transform="matrix(1.00, 0.00, -0.00, -1.00, 565.7, 477.0)">i</text><text xml:space="preserve" font-family="Cantarell-Regular" font-size="36.0" fill="#DCDDE0" transform="matrix(1.00, 0.00, -0.00, -1.00, 575.0, 477.0)">g</text><text xml:space="preserve" font-family="Cantarell-Regular" font-size="36.0" fill="#DCDDE0" transform="matrix(1.00, 0.00, -0.00, -1.00, 595.6, 477.0)">u</text><text xml:space="preserve" font-family="Cantarell-Regular" font-size="36.0" fill="#DCDDE0" transform="matrix(1.00, 0.00, -0.00, -1.00, 616.3, 477.0)">r</text><text xml:space="preserve" font-family="Cantarell-Regular" font-size="36.0" fill="#DCDDE0" transform="matrix(1.00, 0.00, -0.00, -1.00, 630.4, 477.0)">e</text><text xml:space="preserve" font-family="Cantarell-Regular" font-size="36.0" fill="#DCDDE0" transform="matrix(1.00, 0.00, -0.00, -1.00, 649.7, 477.0)"> </text><text xml:space="preserve" font-family="Cantarell-Regular" font-size="36.0" fill="#DCDDE0" transform="matrix(1.00, 0.00, -0.00, -1.00, 659.6, 477.0)">y</text><text xml:space="preserve" font-family="Cantarell-Regular" font-size="36.0" fill="#DCDDE0" transform="matrix(1.00, 0.00, -0.00, -1.00, 678.2, 477.0)">o</text><text xml:space="preserve" font-family="Cantarell-Regular" font-size="36.0" fill="#DCDDE0" transform="matrix(1.00, 0.00, -0.00, -1.00, 699.5, 477.0)">u</text><text xml:space="preserve" font-family="Cantarell-Regular" font-size="36.0" fill="#DCDDE0" transform="matrix(1.00, 0.00, -0.00, -1.00, 720.2, 477.0)">r</text><text xml:space="preserve" font-family="Cantarell-Regular" font-size="36.0" fill="#DCDDE0" transform="matrix(1.00, 0.00, -0.00, -1.00, 734.3, 477.0)"> </text><text xml:space="preserve" font-family="Cantarell-Regular" font-size="36.0" fill="#DCDDE0" transform="matrix(1.00, 0.00, -0.00, -1.00, 744.2, 477.0)">c</text><text xml:space="preserve" font-family="Cantarell-Regular" font-size="36.0" fill="#DCDDE0" transform="matrix(1.00, 0.00, -0.00, -1.00, 761.8, 477.0)">o</text><text xml:space="preserve" font-family="Cantarell-Regular" font-size="36.0" fill="#DCDDE0" transform="matrix(1.00, 0.00, -0.00, -1.00, 783.1, 477.0)">n</text><text xml:space="preserve" font-family="Cantarell-Regular" font-size="36.0" fill="#DCDDE0" transform="matrix(1.00, 0.00, -0.00, -1.00, 803.7, 477.0)">n</text><text xml:space="preserve" font-family="Cantarell-Regular" font-size="36.0" fill="#DCDDE0" transform="matrix(1.00, 0.00, -0.00, -1.00, 824.4, 477.0)">e</text><text xml:space="preserve" font-family="Cantarell-Regular" font-size="36.0" fill="#DCDDE0" transform="matrix(1.00, 0.00, -0.00, -1.00, 843.8, 477.0)">c</text><text xml:space="preserve" font-family="Cantarell-Regular" font-size="36.0" fill="#DCDDE0" transform="matrix(1.00, 0.00, -0.00, -1.00, 861.4, 477.0)">t</text><text xml:space="preserve" font-family="Cantarell-Regular" font-size="36.0" fill="#DCDDE0" transform="matrix(1.00, 0.00, -0.00, -1.00, 875.0, 477.0)">i</text><text xml:space="preserve" font-family="Cantarell-Regular" font-size="36.0" fill="#DCDDE0" transform="matrix(1.00, 0.00, -0.00, -1.00, 884.2, 477.0)">o</text><text xml:space="preserve" font-family="Cantarell-Regular" font-size="36.0" fill="#DCDDE0" transform="matrix(1.00, 0.00, -0.00, -1.00, 905.5, 477.0)">n</text><text xml:space="preserve" font-family="Cantarell-Regular" font-size="36.0" fill="#DCDDE0" transform="matrix(1.00, 0.00, -0.00, -1.00, 926.2, 477.0)">s</text></g></g><g><clipPath id="clip-688"><path d="M 1074.2 437.4 L 229.2 437.4 L 229.2 463.4 L 1074.2 463.4 Z M 1074.2 437.4 "></path></clipPath><g clip-path="url(#clip-688)"><path d="M 0.0 0.0 L 819.1 0.0 L 822.1 0.0 " fill="none" stroke="#F38F18" stroke-width="6.00" transform="matrix(-1.00, 0.00, 0.00, 1.00, 1073.2, 450.4)"></path><path d="M 254.2 462.4 L 230.2 450.4 L 254.2 438.4 Z M 254.2 462.4 " fill="#F38F18"></path></g></g><g><clipPath id="clip-689"><path d="M 1059.5 0.2 L 1637.5 0.2 L 1637.5 656.2 L 1059.5 656.2 Z M 1059.5 0.2 "></path></clipPath><g clip-path="url(#clip-689)"><image xlink:href="8511A607BA7938DC78E8F68F1F84AE72.png" width="578.00" height="656.00" transform="matrix(1.00, 0.00, -0.00, -1.00, 1059.5, 656.2)" opacity="0.70"></image><image xlink:href="2BA2195A694F3613C5EF28E8058C7890.png" width="472.00" height="541.00" transform="matrix(1.14, 0.00, -0.00, -1.14, 1080.0, 646.0)"></image></g></g></g></svg>