<?xml version="1.0" encoding="UTF-8" standalone="no"?><svg xmlns="http://www.w3.org/2000/svg" xmlns:xlink="http://www.w3.org/1999/xlink" clip-rule="evenodd" stroke-miterlimit="4.00" viewBox="0 0 683 41"><desc>SVG generated by Keynote</desc><defs></defs><g transform="matrix(1.00, 0.00, -0.00, -1.00, 0.0, 41.0)"><text xml:space="preserve" font-family="Cantarell-Regular" font-size="52.0" fill="#889AA4" transform="matrix(1.00, 0.00, -0.00, -1.00, -4.0, 3.0)">O</text><text xml:space="preserve" font-family="Cantarell-Regular" font-size="52.0" fill="#889AA4" transform="matrix(1.00, 0.00, -0.00, -1.00, 38.8, 3.0)">n</text><text xml:space="preserve" font-family="Cantarell-Regular" font-size="52.0" fill="#889AA4" transform="matrix(1.00, 0.00, -0.00, -1.00, 68.7, 3.0)">e</text><text xml:space="preserve" font-family="Cantarell-Regular" font-size="52.0" fill="#889AA4" transform="matrix(1.00, 0.00, -0.00, -1.00, 96.7, 3.0)"> </text><text xml:space="preserve" font-family="Cantarell-Regular" font-size="52.0" fill="#889AA4" transform="matrix(1.00, 0.00, -0.00, -1.00, 110.9, 3.0)">E</text><text xml:space="preserve" font-family="Cantarell-Regular" font-size="52.0" fill="#889AA4" transform="matrix(1.00, 0.00, -0.00, -1.00, 143.5, 3.0)">n</text><text xml:space="preserve" font-family="Cantarell-Regular" font-size="52.0" fill="#889AA4" transform="matrix(1.00, 0.00, -0.00, -1.00, 173.4, 3.0)">v</text><text xml:space="preserve" font-family="Cantarell-Regular" font-size="52.0" fill="#889AA4" transform="matrix(1.00, 0.00, -0.00, -1.00, 198.6, 3.0)">i</text><text xml:space="preserve" font-family="Cantarell-Regular" font-size="52.0" fill="#889AA4" transform="matrix(1.00, 0.00, -0.00, -1.00, 211.9, 3.0)">r</text><text xml:space="preserve" font-family="Cantarell-Regular" font-size="52.0" fill="#889AA4" transform="matrix(1.00, 0.00, -0.00, -1.00, 232.3, 3.0)">o</text><text xml:space="preserve" font-family="Cantarell-Regular" font-size="52.0" fill="#889AA4" transform="matrix(1.00, 0.00, -0.00, -1.00, 263.0, 3.0)">n</text><text xml:space="preserve" font-family="Cantarell-Regular" font-size="52.0" fill="#889AA4" transform="matrix(1.00, 0.00, -0.00, -1.00, 292.9, 3.0)">m</text><text xml:space="preserve" font-family="Cantarell-Regular" font-size="52.0" fill="#889AA4" transform="matrix(1.00, 0.00, -0.00, -1.00, 336.9, 3.0)">e</text><text xml:space="preserve" font-family="Cantarell-Regular" font-size="52.0" fill="#889AA4" transform="matrix(1.00, 0.00, -0.00, -1.00, 364.9, 3.0)">n</text><text xml:space="preserve" font-family="Cantarell-Regular" font-size="52.0" fill="#889AA4" transform="matrix(1.00, 0.00, -0.00, -1.00, 394.7, 3.0)">t</text><text xml:space="preserve" font-family="Cantarell-Regular" font-size="52.0" fill="#889AA4" transform="matrix(1.00, 0.00, -0.00, -1.00, 414.4, 3.0)"> </text><text xml:space="preserve" font-family="Cantarell-Regular" font-size="52.0" fill="#889AA4" transform="matrix(1.00, 0.00, -0.00, -1.00, 428.6, 3.0)">P</text><text xml:space="preserve" font-family="Cantarell-Regular" font-size="52.0" fill="#889AA4" transform="matrix(1.00, 0.00, -0.00, -1.00, 462.7, 3.0)">e</text><text xml:space="preserve" font-family="Cantarell-Regular" font-size="52.0" fill="#889AA4" transform="matrix(1.00, 0.00, -0.00, -1.00, 490.6, 3.0)">r</text><text xml:space="preserve" font-family="Cantarell-Regular" font-size="52.0" fill="#889AA4" transform="matrix(1.00, 0.00, -0.00, -1.00, 511.0, 3.0)"> </text><text xml:space="preserve" font-family="Cantarell-Regular" font-size="52.0" fill="#889AA4" transform="matrix(1.00, 0.00, -0.00, -1.00, 525.2, 3.0)">S</text><text xml:space="preserve" font-family="Cantarell-Regular" font-size="52.0" fill="#889AA4" transform="matrix(1.00, 0.00, -0.00, -1.00, 559.7, 3.0)">e</text><text xml:space="preserve" font-family="Cantarell-Regular" font-size="52.0" fill="#889AA4" transform="matrix(1.00, 0.00, -0.00, -1.00, 587.7, 3.0)">r</text><text xml:space="preserve" font-family="Cantarell-Regular" font-size="52.0" fill="#889AA4" transform="matrix(1.00, 0.00, -0.00, -1.00, 608.1, 3.0)">v</text><text xml:space="preserve" font-family="Cantarell-Regular" font-size="52.0" fill="#889AA4" transform="matrix(1.00, 0.00, -0.00, -1.00, 633.3, 3.0)">e</text><text xml:space="preserve" font-family="Cantarell-Regular" font-size="52.0" fill="#889AA4" transform="matrix(1.00, 0.00, -0.00, -1.00, 661.3, 3.0)">r</text></g></svg>