<?xml version="1.0" encoding="UTF-8" standalone="no"?><svg xmlns="http://www.w3.org/2000/svg" xmlns:xlink="http://www.w3.org/1999/xlink" clip-rule="evenodd" stroke-miterlimit="4.00" viewBox="0 0 1417 295"><desc>SVG generated by Keynote</desc><defs></defs><g transform="matrix(1.00, 0.00, -0.00, -1.00, 0.0, 295.0)"><g><clipPath id="clip-738"><path d="M 4.9 217.6 L 683.1 217.6 L 683.1 293.1 L 4.9 293.1 Z M 4.9 217.6 "></path></clipPath><g clip-path="url(#clip-738)"><path d="M 7.9 290.1 L 680.1 290.1 L 680.1 220.6 L 7.9 220.6 Z M 7.9 290.1 " fill="#52575F"></path><path d="M 0.0 0.0 L 672.2 0.0 L 672.2 69.5 L 0.0 69.5 Z M 0.0 0.0 " fill="none" stroke="#52575F" stroke-width="4.00" transform="matrix(1.00, 0.00, 0.00, -1.00, 7.9, 290.1)"></path></g></g><g><clipPath id="clip-739"><path d="M 0.0 235.3 L 685.0 235.3 L 685.0 275.3 L 0.0 275.3 Z M 0.0 235.3 "></path></clipPath><g clip-path="url(#clip-739)"><text xml:space="preserve" font-family="Cantarell-Bold" font-weight="bold" font-size="30.0" fill="#000000" transform="matrix(1.00, 0.00, -0.00, -1.00, 234.0, 243.0)">N</text><text xml:space="preserve" font-family="Cantarell-Bold" font-weight="bold" font-size="30.0" fill="#000000" transform="matrix(1.00, 0.00, -0.00, -1.00, 260.7, 243.0)">P</text><text xml:space="preserve" font-family="Cantarell-Bold" font-weight="bold" font-size="30.0" fill="#000000" transform="matrix(1.00, 0.00, -0.00, -1.00, 282.7, 243.0)">M</text><text xml:space="preserve" font-family="Cantarell-Bold" font-weight="bold" font-size="30.0" fill="#000000" transform="matrix(1.00, 0.00, -0.00, -1.00, 312.7, 243.0)"> </text><text xml:space="preserve" font-family="Cantarell-Bold" font-weight="bold" font-size="30.0" fill="#000000" transform="matrix(1.00, 0.00, -0.00, -1.00, 320.9, 243.0)">I</text><text xml:space="preserve" font-family="Cantarell-Bold" font-weight="bold" font-size="30.0" fill="#000000" transform="matrix(1.00, 0.00, -0.00, -1.00, 332.8, 243.0)">N</text><text xml:space="preserve" font-family="Cantarell-Bold" font-weight="bold" font-size="30.0" fill="#000000" transform="matrix(1.00, 0.00, -0.00, -1.00, 359.6, 243.0)">S</text><text xml:space="preserve" font-family="Cantarell-Bold" font-weight="bold" font-size="30.0" fill="#000000" transform="matrix(1.00, 0.00, -0.00, -1.00, 381.9, 243.0)">T</text><text xml:space="preserve" font-family="Cantarell-Bold" font-weight="bold" font-size="30.0" fill="#000000" transform="matrix(1.00, 0.00, -0.00, -1.00, 402.0, 243.0)">A</text><text xml:space="preserve" font-family="Cantarell-Bold" font-weight="bold" font-size="30.0" fill="#000000" transform="matrix(1.00, 0.00, -0.00, -1.00, 424.7, 243.0)">L</text><text xml:space="preserve" font-family="Cantarell-Bold" font-weight="bold" font-size="30.0" fill="#000000" transform="matrix(1.00, 0.00, -0.00, -1.00, 443.7, 243.0)">L</text></g></g><g><clipPath id="clip-740"><path d="M 4.9 108.9 L 683.2 108.9 L 683.2 183.5 L 4.9 183.5 Z M 4.9 108.9 "></path></clipPath><g clip-path="url(#clip-740)"><path d="M 7.9 180.5 L 680.2 180.5 L 680.2 111.9 L 7.9 111.9 Z M 7.9 180.5 " fill="#52575F"></path><path d="M 0.0 0.0 L 672.2 0.0 L 672.2 68.6 L 0.0 68.6 Z M 0.0 0.0 " fill="none" stroke="#52575F" stroke-width="4.00" transform="matrix(1.00, 0.00, 0.00, -1.00, 7.9, 180.5)"></path></g></g><g><clipPath id="clip-741"><path d="M 0.0 128.6 L 685.1 128.6 L 685.1 168.6 L 0.0 168.6 Z M 0.0 128.6 "></path></clipPath><g clip-path="url(#clip-741)"><text xml:space="preserve" font-family="Cantarell-Bold" font-weight="bold" font-size="30.0" fill="#000000" transform="matrix(1.00, 0.00, -0.00, -1.00, 76.0, 136.0)">S</text><text xml:space="preserve" font-family="Cantarell-Bold" font-weight="bold" font-size="30.0" fill="#000000" transform="matrix(1.00, 0.00, -0.00, -1.00, 98.3, 136.0)">Y</text><text xml:space="preserve" font-family="Cantarell-Bold" font-weight="bold" font-size="30.0" fill="#000000" transform="matrix(1.00, 0.00, -0.00, -1.00, 119.2, 136.0)">M</text><text xml:space="preserve" font-family="Cantarell-Bold" font-weight="bold" font-size="30.0" fill="#000000" transform="matrix(1.00, 0.00, -0.00, -1.00, 149.2, 136.0)">L</text><text xml:space="preserve" font-family="Cantarell-Bold" font-weight="bold" font-size="30.0" fill="#000000" transform="matrix(1.00, 0.00, -0.00, -1.00, 168.2, 136.0)">I</text><text xml:space="preserve" font-family="Cantarell-Bold" font-weight="bold" font-size="30.0" fill="#000000" transform="matrix(1.00, 0.00, -0.00, -1.00, 180.1, 136.0)">N</text><text xml:space="preserve" font-family="Cantarell-Bold" font-weight="bold" font-size="30.0" fill="#000000" transform="matrix(1.00, 0.00, -0.00, -1.00, 206.8, 136.0)">K</text><text xml:space="preserve" font-family="Cantarell-Bold" font-weight="bold" font-size="30.0" fill="#000000" transform="matrix(1.00, 0.00, -0.00, -1.00, 230.0, 136.0)"> </text><text xml:space="preserve" font-family="Cantarell-Bold" font-weight="bold" font-size="30.0" fill="#000000" transform="matrix(1.00, 0.00, -0.00, -1.00, 238.2, 136.0)">S</text><text xml:space="preserve" font-family="Cantarell-Bold" font-weight="bold" font-size="30.0" fill="#000000" transform="matrix(1.00, 0.00, -0.00, -1.00, 260.6, 136.0)">H</text><text xml:space="preserve" font-family="Cantarell-Bold" font-weight="bold" font-size="30.0" fill="#000000" transform="matrix(1.00, 0.00, -0.00, -1.00, 286.4, 136.0)">A</text><text xml:space="preserve" font-family="Cantarell-Bold" font-weight="bold" font-size="30.0" fill="#000000" transform="matrix(1.00, 0.00, -0.00, -1.00, 309.1, 136.0)">R</text><text xml:space="preserve" font-family="Cantarell-Bold" font-weight="bold" font-size="30.0" fill="#000000" transform="matrix(1.00, 0.00, -0.00, -1.00, 332.5, 136.0)">E</text><text xml:space="preserve" font-family="Cantarell-Bold" font-weight="bold" font-size="30.0" fill="#000000" transform="matrix(1.00, 0.00, -0.00, -1.00, 353.7, 136.0)">D</text><text xml:space="preserve" font-family="Cantarell-Bold" font-weight="bold" font-size="30.0" fill="#000000" transform="matrix(1.00, 0.00, -0.00, -1.00, 379.6, 136.0)"> </text><text xml:space="preserve" font-family="Cantarell-Bold" font-weight="bold" font-size="30.0" fill="#000000" transform="matrix(1.00, 0.00, -0.00, -1.00, 387.8, 136.0)">D</text><text xml:space="preserve" font-family="Cantarell-Bold" font-weight="bold" font-size="30.0" fill="#000000" transform="matrix(1.00, 0.00, -0.00, -1.00, 413.8, 136.0)">I</text><text xml:space="preserve" font-family="Cantarell-Bold" font-weight="bold" font-size="30.0" fill="#000000" transform="matrix(1.00, 0.00, -0.00, -1.00, 425.7, 136.0)">R</text><text xml:space="preserve" font-family="Cantarell-Bold" font-weight="bold" font-size="30.0" fill="#000000" transform="matrix(1.00, 0.00, -0.00, -1.00, 449.1, 136.0)">E</text><text xml:space="preserve" font-family="Cantarell-Bold" font-weight="bold" font-size="30.0" fill="#000000" transform="matrix(1.00, 0.00, -0.00, -1.00, 470.3, 136.0)">C</text><text xml:space="preserve" font-family="Cantarell-Bold" font-weight="bold" font-size="30.0" fill="#000000" transform="matrix(1.00, 0.00, -0.00, -1.00, 494.0, 136.0)">T</text><text xml:space="preserve" font-family="Cantarell-Bold" font-weight="bold" font-size="30.0" fill="#000000" transform="matrix(1.00, 0.00, -0.00, -1.00, 514.1, 136.0)">O</text><text xml:space="preserve" font-family="Cantarell-Bold" font-weight="bold" font-size="30.0" fill="#000000" transform="matrix(1.00, 0.00, -0.00, -1.00, 541.2, 136.0)">R</text><text xml:space="preserve" font-family="Cantarell-Bold" font-weight="bold" font-size="30.0" fill="#000000" transform="matrix(1.00, 0.00, -0.00, -1.00, 564.6, 136.0)">I</text><text xml:space="preserve" font-family="Cantarell-Bold" font-weight="bold" font-size="30.0" fill="#000000" transform="matrix(1.00, 0.00, -0.00, -1.00, 576.5, 136.0)">E</text><text xml:space="preserve" font-family="Cantarell-Bold" font-weight="bold" font-size="30.0" fill="#000000" transform="matrix(1.00, 0.00, -0.00, -1.00, 597.7, 136.0)">S</text></g></g><g><clipPath id="clip-742"><path d="M 4.9 0.9 L 683.2 0.9 L 683.2 76.4 L 4.9 76.4 Z M 4.9 0.9 "></path></clipPath><g clip-path="url(#clip-742)"><path d="M 7.9 73.4 L 680.2 73.4 L 680.2 3.9 L 7.9 3.9 Z M 7.9 73.4 " fill="#52575F"></path><path d="M 0.0 0.0 L 672.2 0.0 L 672.2 69.5 L 0.0 69.5 Z M 0.0 0.0 " fill="none" stroke="#52575F" stroke-width="4.00" transform="matrix(1.00, 0.00, 0.00, -1.00, 7.9, 73.4)"></path></g></g><g><clipPath id="clip-743"><path d="M 0.0 18.7 L 685.1 18.7 L 685.1 58.7 L 0.0 58.7 Z M 0.0 18.7 "></path></clipPath><g clip-path="url(#clip-743)"><text xml:space="preserve" font-family="Cantarell-Bold" font-weight="bold" font-size="30.0" fill="#000000" transform="matrix(1.00, 0.00, -0.00, -1.00, 106.0, 26.0)">S</text><text xml:space="preserve" font-family="Cantarell-Bold" font-weight="bold" font-size="30.0" fill="#000000" transform="matrix(1.00, 0.00, -0.00, -1.00, 128.3, 26.0)">Y</text><text xml:space="preserve" font-family="Cantarell-Bold" font-weight="bold" font-size="30.0" fill="#000000" transform="matrix(1.00, 0.00, -0.00, -1.00, 149.2, 26.0)">M</text><text xml:space="preserve" font-family="Cantarell-Bold" font-weight="bold" font-size="30.0" fill="#000000" transform="matrix(1.00, 0.00, -0.00, -1.00, 179.2, 26.0)">L</text><text xml:space="preserve" font-family="Cantarell-Bold" font-weight="bold" font-size="30.0" fill="#000000" transform="matrix(1.00, 0.00, -0.00, -1.00, 198.2, 26.0)">I</text><text xml:space="preserve" font-family="Cantarell-Bold" font-weight="bold" font-size="30.0" fill="#000000" transform="matrix(1.00, 0.00, -0.00, -1.00, 210.1, 26.0)">N</text><text xml:space="preserve" font-family="Cantarell-Bold" font-weight="bold" font-size="30.0" fill="#000000" transform="matrix(1.00, 0.00, -0.00, -1.00, 236.8, 26.0)">K</text><text xml:space="preserve" font-family="Cantarell-Bold" font-weight="bold" font-size="30.0" fill="#000000" transform="matrix(1.00, 0.00, -0.00, -1.00, 260.0, 26.0)"> </text><text xml:space="preserve" font-family="Cantarell-Bold" font-weight="bold" font-size="30.0" fill="#000000" transform="matrix(1.00, 0.00, -0.00, -1.00, 268.2, 26.0)">C</text><text xml:space="preserve" font-family="Cantarell-Bold" font-weight="bold" font-size="30.0" fill="#000000" transform="matrix(1.00, 0.00, -0.00, -1.00, 291.9, 26.0)">U</text><text xml:space="preserve" font-family="Cantarell-Bold" font-weight="bold" font-size="30.0" fill="#000000" transform="matrix(1.00, 0.00, -0.00, -1.00, 317.3, 26.0)">R</text><text xml:space="preserve" font-family="Cantarell-Bold" font-weight="bold" font-size="30.0" fill="#000000" transform="matrix(1.00, 0.00, -0.00, -1.00, 340.8, 26.0)">R</text><text xml:space="preserve" font-family="Cantarell-Bold" font-weight="bold" font-size="30.0" fill="#000000" transform="matrix(1.00, 0.00, -0.00, -1.00, 364.2, 26.0)">E</text><text xml:space="preserve" font-family="Cantarell-Bold" font-weight="bold" font-size="30.0" fill="#000000" transform="matrix(1.00, 0.00, -0.00, -1.00, 385.4, 26.0)">N</text><text xml:space="preserve" font-family="Cantarell-Bold" font-weight="bold" font-size="30.0" fill="#000000" transform="matrix(1.00, 0.00, -0.00, -1.00, 412.1, 26.0)">T</text><text xml:space="preserve" font-family="Cantarell-Bold" font-weight="bold" font-size="30.0" fill="#000000" transform="matrix(1.00, 0.00, -0.00, -1.00, 432.2, 26.0)"> </text><text xml:space="preserve" font-family="Cantarell-Bold" font-weight="bold" font-size="30.0" fill="#000000" transform="matrix(1.00, 0.00, -0.00, -1.00, 440.4, 26.0)">R</text><text xml:space="preserve" font-family="Cantarell-Bold" font-weight="bold" font-size="30.0" fill="#000000" transform="matrix(1.00, 0.00, -0.00, -1.00, 463.9, 26.0)">E</text><text xml:space="preserve" font-family="Cantarell-Bold" font-weight="bold" font-size="30.0" fill="#000000" transform="matrix(1.00, 0.00, -0.00, -1.00, 485.1, 26.0)">L</text><text xml:space="preserve" font-family="Cantarell-Bold" font-weight="bold" font-size="30.0" fill="#000000" transform="matrix(1.00, 0.00, -0.00, -1.00, 504.1, 26.0)">E</text><text xml:space="preserve" font-family="Cantarell-Bold" font-weight="bold" font-size="30.0" fill="#000000" transform="matrix(1.00, 0.00, -0.00, -1.00, 525.2, 26.0)">A</text><text xml:space="preserve" font-family="Cantarell-Bold" font-weight="bold" font-size="30.0" fill="#000000" transform="matrix(1.00, 0.00, -0.00, -1.00, 547.9, 26.0)">S</text><text xml:space="preserve" font-family="Cantarell-Bold" font-weight="bold" font-size="30.0" fill="#000000" transform="matrix(1.00, 0.00, -0.00, -1.00, 570.2, 26.0)">E</text></g></g><g><clipPath id="clip-744"><path d="M 738.3 218.7 L 1416.5 218.7 L 1416.5 294.2 L 738.3 294.2 Z M 738.3 218.7 "></path></clipPath><g clip-path="url(#clip-744)"><path d="M 741.3 291.2 L 1413.5 291.2 L 1413.5 221.7 L 741.3 221.7 Z M 741.3 291.2 " fill="#52575F"></path><path d="M 0.0 0.0 L 672.2 0.0 L 672.2 69.5 L 0.0 69.5 Z M 0.0 0.0 " fill="none" stroke="#52575F" stroke-width="4.00" transform="matrix(1.00, 0.00, 0.00, -1.00, 741.3, 291.2)"></path></g></g><g><clipPath id="clip-745"><path d="M 729.2 236.4 L 1417.0 236.4 L 1417.0 276.4 L 729.2 276.4 Z M 729.2 236.4 "></path></clipPath><g clip-path="url(#clip-745)"><text xml:space="preserve" font-family="Cantarell-Bold" font-weight="bold" font-size="30.0" fill="#000000" transform="matrix(1.00, 0.00, -0.00, -1.00, 967.0, 244.0)">N</text><text xml:space="preserve" font-family="Cantarell-Bold" font-weight="bold" font-size="30.0" fill="#000000" transform="matrix(1.00, 0.00, -0.00, -1.00, 993.7, 244.0)">P</text><text xml:space="preserve" font-family="Cantarell-Bold" font-weight="bold" font-size="30.0" fill="#000000" transform="matrix(1.00, 0.00, -0.00, -1.00, 1015.7, 244.0)">M</text><text xml:space="preserve" font-family="Cantarell-Bold" font-weight="bold" font-size="30.0" fill="#000000" transform="matrix(1.00, 0.00, -0.00, -1.00, 1045.7, 244.0)"> </text><text xml:space="preserve" font-family="Cantarell-Bold" font-weight="bold" font-size="30.0" fill="#000000" transform="matrix(1.00, 0.00, -0.00, -1.00, 1053.9, 244.0)">I</text><text xml:space="preserve" font-family="Cantarell-Bold" font-weight="bold" font-size="30.0" fill="#000000" transform="matrix(1.00, 0.00, -0.00, -1.00, 1065.8, 244.0)">N</text><text xml:space="preserve" font-family="Cantarell-Bold" font-weight="bold" font-size="30.0" fill="#000000" transform="matrix(1.00, 0.00, -0.00, -1.00, 1092.6, 244.0)">S</text><text xml:space="preserve" font-family="Cantarell-Bold" font-weight="bold" font-size="30.0" fill="#000000" transform="matrix(1.00, 0.00, -0.00, -1.00, 1114.9, 244.0)">T</text><text xml:space="preserve" font-family="Cantarell-Bold" font-weight="bold" font-size="30.0" fill="#000000" transform="matrix(1.00, 0.00, -0.00, -1.00, 1135.0, 244.0)">A</text><text xml:space="preserve" font-family="Cantarell-Bold" font-weight="bold" font-size="30.0" fill="#000000" transform="matrix(1.00, 0.00, -0.00, -1.00, 1157.7, 244.0)">L</text><text xml:space="preserve" font-family="Cantarell-Bold" font-weight="bold" font-size="30.0" fill="#000000" transform="matrix(1.00, 0.00, -0.00, -1.00, 1176.7, 244.0)">L</text></g></g><g><clipPath id="clip-746"><path d="M 738.3 109.9 L 1416.5 109.9 L 1416.5 184.5 L 738.3 184.5 Z M 738.3 109.9 "></path></clipPath><g clip-path="url(#clip-746)"><path d="M 741.3 181.5 L 1413.5 181.5 L 1413.5 112.9 L 741.3 112.9 Z M 741.3 181.5 " fill="#52575F"></path><path d="M 0.0 0.0 L 672.2 0.0 L 672.2 68.6 L 0.0 68.6 Z M 0.0 0.0 " fill="none" stroke="#52575F" stroke-width="4.00" transform="matrix(1.00, 0.00, 0.00, -1.00, 741.3, 181.5)"></path></g></g><g><clipPath id="clip-747"><path d="M 729.2 129.6 L 1417.0 129.6 L 1417.0 169.6 L 729.2 169.6 Z M 729.2 129.6 "></path></clipPath><g clip-path="url(#clip-747)"><text xml:space="preserve" font-family="Cantarell-Bold" font-weight="bold" font-size="30.0" fill="#000000" transform="matrix(1.00, 0.00, -0.00, -1.00, 810.0, 137.0)">S</text><text xml:space="preserve" font-family="Cantarell-Bold" font-weight="bold" font-size="30.0" fill="#000000" transform="matrix(1.00, 0.00, -0.00, -1.00, 832.3, 137.0)">Y</text><text xml:space="preserve" font-family="Cantarell-Bold" font-weight="bold" font-size="30.0" fill="#000000" transform="matrix(1.00, 0.00, -0.00, -1.00, 853.2, 137.0)">M</text><text xml:space="preserve" font-family="Cantarell-Bold" font-weight="bold" font-size="30.0" fill="#000000" transform="matrix(1.00, 0.00, -0.00, -1.00, 883.2, 137.0)">L</text><text xml:space="preserve" font-family="Cantarell-Bold" font-weight="bold" font-size="30.0" fill="#000000" transform="matrix(1.00, 0.00, -0.00, -1.00, 902.2, 137.0)">I</text><text xml:space="preserve" font-family="Cantarell-Bold" font-weight="bold" font-size="30.0" fill="#000000" transform="matrix(1.00, 0.00, -0.00, -1.00, 914.1, 137.0)">N</text><text xml:space="preserve" font-family="Cantarell-Bold" font-weight="bold" font-size="30.0" fill="#000000" transform="matrix(1.00, 0.00, -0.00, -1.00, 940.8, 137.0)">K</text><text xml:space="preserve" font-family="Cantarell-Bold" font-weight="bold" font-size="30.0" fill="#000000" transform="matrix(1.00, 0.00, -0.00, -1.00, 964.0, 137.0)"> </text><text xml:space="preserve" font-family="Cantarell-Bold" font-weight="bold" font-size="30.0" fill="#000000" transform="matrix(1.00, 0.00, -0.00, -1.00, 972.2, 137.0)">S</text><text xml:space="preserve" font-family="Cantarell-Bold" font-weight="bold" font-size="30.0" fill="#000000" transform="matrix(1.00, 0.00, -0.00, -1.00, 994.6, 137.0)">H</text><text xml:space="preserve" font-family="Cantarell-Bold" font-weight="bold" font-size="30.0" fill="#000000" transform="matrix(1.00, 0.00, -0.00, -1.00, 1020.4, 137.0)">A</text><text xml:space="preserve" font-family="Cantarell-Bold" font-weight="bold" font-size="30.0" fill="#000000" transform="matrix(1.00, 0.00, -0.00, -1.00, 1043.1, 137.0)">R</text><text xml:space="preserve" font-family="Cantarell-Bold" font-weight="bold" font-size="30.0" fill="#000000" transform="matrix(1.00, 0.00, -0.00, -1.00, 1066.5, 137.0)">E</text><text xml:space="preserve" font-family="Cantarell-Bold" font-weight="bold" font-size="30.0" fill="#000000" transform="matrix(1.00, 0.00, -0.00, -1.00, 1087.7, 137.0)">D</text><text xml:space="preserve" font-family="Cantarell-Bold" font-weight="bold" font-size="30.0" fill="#000000" transform="matrix(1.00, 0.00, -0.00, -1.00, 1113.6, 137.0)"> </text><text xml:space="preserve" font-family="Cantarell-Bold" font-weight="bold" font-size="30.0" fill="#000000" transform="matrix(1.00, 0.00, -0.00, -1.00, 1121.8, 137.0)">D</text><text xml:space="preserve" font-family="Cantarell-Bold" font-weight="bold" font-size="30.0" fill="#000000" transform="matrix(1.00, 0.00, -0.00, -1.00, 1147.8, 137.0)">I</text><text xml:space="preserve" font-family="Cantarell-Bold" font-weight="bold" font-size="30.0" fill="#000000" transform="matrix(1.00, 0.00, -0.00, -1.00, 1159.7, 137.0)">R</text><text xml:space="preserve" font-family="Cantarell-Bold" font-weight="bold" font-size="30.0" fill="#000000" transform="matrix(1.00, 0.00, -0.00, -1.00, 1183.1, 137.0)">E</text><text xml:space="preserve" font-family="Cantarell-Bold" font-weight="bold" font-size="30.0" fill="#000000" transform="matrix(1.00, 0.00, -0.00, -1.00, 1204.3, 137.0)">C</text><text xml:space="preserve" font-family="Cantarell-Bold" font-weight="bold" font-size="30.0" fill="#000000" transform="matrix(1.00, 0.00, -0.00, -1.00, 1228.0, 137.0)">T</text><text xml:space="preserve" font-family="Cantarell-Bold" font-weight="bold" font-size="30.0" fill="#000000" transform="matrix(1.00, 0.00, -0.00, -1.00, 1248.1, 137.0)">O</text><text xml:space="preserve" font-family="Cantarell-Bold" font-weight="bold" font-size="30.0" fill="#000000" transform="matrix(1.00, 0.00, -0.00, -1.00, 1275.2, 137.0)">R</text><text xml:space="preserve" font-family="Cantarell-Bold" font-weight="bold" font-size="30.0" fill="#000000" transform="matrix(1.00, 0.00, -0.00, -1.00, 1298.6, 137.0)">I</text><text xml:space="preserve" font-family="Cantarell-Bold" font-weight="bold" font-size="30.0" fill="#000000" transform="matrix(1.00, 0.00, -0.00, -1.00, 1310.5, 137.0)">E</text><text xml:space="preserve" font-family="Cantarell-Bold" font-weight="bold" font-size="30.0" fill="#000000" transform="matrix(1.00, 0.00, -0.00, -1.00, 1331.7, 137.0)">S</text></g></g><g><clipPath id="clip-748"><path d="M 738.3 1.9 L 1416.5 1.9 L 1416.5 77.4 L 738.3 77.4 Z M 738.3 1.9 "></path></clipPath><g clip-path="url(#clip-748)"><path d="M 741.3 74.4 L 1413.5 74.4 L 1413.5 4.9 L 741.3 4.9 Z M 741.3 74.4 " fill="#52575F"></path><path d="M 0.0 0.0 L 672.2 0.0 L 672.2 69.5 L 0.0 69.5 Z M 0.0 0.0 " fill="none" stroke="#52575F" stroke-width="4.00" transform="matrix(1.00, 0.00, 0.00, -1.00, 741.3, 74.4)"></path></g></g><g><clipPath id="clip-749"><path d="M 729.2 19.7 L 1417.0 19.7 L 1417.0 59.7 L 729.2 59.7 Z M 729.2 19.7 "></path></clipPath><g clip-path="url(#clip-749)"><text xml:space="preserve" font-family="Cantarell-Bold" font-weight="bold" font-size="30.0" fill="#000000" transform="matrix(1.00, 0.00, -0.00, -1.00, 839.0, 27.0)">S</text><text xml:space="preserve" font-family="Cantarell-Bold" font-weight="bold" font-size="30.0" fill="#000000" transform="matrix(1.00, 0.00, -0.00, -1.00, 861.3, 27.0)">Y</text><text xml:space="preserve" font-family="Cantarell-Bold" font-weight="bold" font-size="30.0" fill="#000000" transform="matrix(1.00, 0.00, -0.00, -1.00, 882.2, 27.0)">M</text><text xml:space="preserve" font-family="Cantarell-Bold" font-weight="bold" font-size="30.0" fill="#000000" transform="matrix(1.00, 0.00, -0.00, -1.00, 912.2, 27.0)">L</text><text xml:space="preserve" font-family="Cantarell-Bold" font-weight="bold" font-size="30.0" fill="#000000" transform="matrix(1.00, 0.00, -0.00, -1.00, 931.2, 27.0)">I</text><text xml:space="preserve" font-family="Cantarell-Bold" font-weight="bold" font-size="30.0" fill="#000000" transform="matrix(1.00, 0.00, -0.00, -1.00, 943.1, 27.0)">N</text><text xml:space="preserve" font-family="Cantarell-Bold" font-weight="bold" font-size="30.0" fill="#000000" transform="matrix(1.00, 0.00, -0.00, -1.00, 969.8, 27.0)">K</text><text xml:space="preserve" font-family="Cantarell-Bold" font-weight="bold" font-size="30.0" fill="#000000" transform="matrix(1.00, 0.00, -0.00, -1.00, 993.0, 27.0)"> </text><text xml:space="preserve" font-family="Cantarell-Bold" font-weight="bold" font-size="30.0" fill="#000000" transform="matrix(1.00, 0.00, -0.00, -1.00, 1001.2, 27.0)">C</text><text xml:space="preserve" font-family="Cantarell-Bold" font-weight="bold" font-size="30.0" fill="#000000" transform="matrix(1.00, 0.00, -0.00, -1.00, 1024.9, 27.0)">U</text><text xml:space="preserve" font-family="Cantarell-Bold" font-weight="bold" font-size="30.0" fill="#000000" transform="matrix(1.00, 0.00, -0.00, -1.00, 1050.3, 27.0)">R</text><text xml:space="preserve" font-family="Cantarell-Bold" font-weight="bold" font-size="30.0" fill="#000000" transform="matrix(1.00, 0.00, -0.00, -1.00, 1073.8, 27.0)">R</text><text xml:space="preserve" font-family="Cantarell-Bold" font-weight="bold" font-size="30.0" fill="#000000" transform="matrix(1.00, 0.00, -0.00, -1.00, 1097.2, 27.0)">E</text><text xml:space="preserve" font-family="Cantarell-Bold" font-weight="bold" font-size="30.0" fill="#000000" transform="matrix(1.00, 0.00, -0.00, -1.00, 1118.4, 27.0)">N</text><text xml:space="preserve" font-family="Cantarell-Bold" font-weight="bold" font-size="30.0" fill="#000000" transform="matrix(1.00, 0.00, -0.00, -1.00, 1145.1, 27.0)">T</text><text xml:space="preserve" font-family="Cantarell-Bold" font-weight="bold" font-size="30.0" fill="#000000" transform="matrix(1.00, 0.00, -0.00, -1.00, 1165.2, 27.0)"> </text><text xml:space="preserve" font-family="Cantarell-Bold" font-weight="bold" font-size="30.0" fill="#000000" transform="matrix(1.00, 0.00, -0.00, -1.00, 1173.4, 27.0)">R</text><text xml:space="preserve" font-family="Cantarell-Bold" font-weight="bold" font-size="30.0" fill="#000000" transform="matrix(1.00, 0.00, -0.00, -1.00, 1196.9, 27.0)">E</text><text xml:space="preserve" font-family="Cantarell-Bold" font-weight="bold" font-size="30.0" fill="#000000" transform="matrix(1.00, 0.00, -0.00, -1.00, 1218.1, 27.0)">L</text><text xml:space="preserve" font-family="Cantarell-Bold" font-weight="bold" font-size="30.0" fill="#000000" transform="matrix(1.00, 0.00, -0.00, -1.00, 1237.1, 27.0)">E</text><text xml:space="preserve" font-family="Cantarell-Bold" font-weight="bold" font-size="30.0" fill="#000000" transform="matrix(1.00, 0.00, -0.00, -1.00, 1258.2, 27.0)">A</text><text xml:space="preserve" font-family="Cantarell-Bold" font-weight="bold" font-size="30.0" fill="#000000" transform="matrix(1.00, 0.00, -0.00, -1.00, 1280.9, 27.0)">S</text><text xml:space="preserve" font-family="Cantarell-Bold" font-weight="bold" font-size="30.0" fill="#000000" transform="matrix(1.00, 0.00, -0.00, -1.00, 1303.2, 27.0)">E</text></g></g></g></svg>