<?xml version="1.0" encoding="UTF-8" standalone="no"?><svg xmlns="http://www.w3.org/2000/svg" xmlns:xlink="http://www.w3.org/1999/xlink" clip-rule="evenodd" stroke-miterlimit="4.00" viewBox="0 0 1414 77"><desc>SVG generated by Keynote</desc><defs></defs><g transform="matrix(1.00, 0.00, -0.00, -1.00, 0.0, 77.0)"><g><clipPath id="clip-726"><path d="M 1.0 0.3 L 679.1 0.3 L 679.1 75.8 L 1.0 75.8 Z M 1.0 0.3 "></path></clipPath><g clip-path="url(#clip-726)"><path d="M 4.0 72.8 L 676.1 72.8 L 676.1 3.3 L 4.0 3.3 Z M 4.0 72.8 " fill="#009ED8"></path><path d="M 0.0 0.0 L 672.1 0.0 L 672.1 69.5 L 0.0 69.5 Z M 0.0 0.0 " fill="none" stroke="#009ED8" stroke-width="4.00" transform="matrix(1.00, 0.00, 0.00, -1.00, 4.0, 72.8)"></path></g></g><g><clipPath id="clip-727"><path d="M -4.6 4.4 L 684.7 4.4 L 684.7 68.5 L -4.6 68.5 Z M -4.6 4.4 "></path></clipPath><g clip-path="url(#clip-727)"><text xml:space="preserve" font-family="Cantarell-Bold" font-weight="bold" font-size="30.0" fill="#000000" transform="matrix(1.00, 0.00, -0.00, -1.00, 79.0, 26.0)">C</text><text xml:space="preserve" font-family="Cantarell-Bold" font-weight="bold" font-size="30.0" fill="#000000" transform="matrix(1.00, 0.00, -0.00, -1.00, 102.6, 26.0)">H</text><text xml:space="preserve" font-family="Cantarell-Bold" font-weight="bold" font-size="30.0" fill="#000000" transform="matrix(1.00, 0.00, -0.00, -1.00, 128.5, 26.0)">E</text><text xml:space="preserve" font-family="Cantarell-Bold" font-weight="bold" font-size="30.0" fill="#000000" transform="matrix(1.00, 0.00, -0.00, -1.00, 149.7, 26.0)">C</text><text xml:space="preserve" font-family="Cantarell-Bold" font-weight="bold" font-size="30.0" fill="#000000" transform="matrix(1.00, 0.00, -0.00, -1.00, 173.3, 26.0)">K</text><text xml:space="preserve" font-family="Cantarell-Bold" font-weight="bold" font-size="30.0" fill="#000000" transform="matrix(1.00, 0.00, -0.00, -1.00, 196.5, 26.0)"> </text><text xml:space="preserve" font-family="Cantarell-Bold" font-weight="bold" font-size="30.0" fill="#000000" transform="matrix(1.00, 0.00, -0.00, -1.00, 204.7, 26.0)">D</text><text xml:space="preserve" font-family="Cantarell-Bold" font-weight="bold" font-size="30.0" fill="#000000" transform="matrix(1.00, 0.00, -0.00, -1.00, 230.6, 26.0)">I</text><text xml:space="preserve" font-family="Cantarell-Bold" font-weight="bold" font-size="30.0" fill="#000000" transform="matrix(1.00, 0.00, -0.00, -1.00, 242.5, 26.0)">R</text><text xml:space="preserve" font-family="Cantarell-Bold" font-weight="bold" font-size="30.0" fill="#000000" transform="matrix(1.00, 0.00, -0.00, -1.00, 266.0, 26.0)">E</text><text xml:space="preserve" font-family="Cantarell-Bold" font-weight="bold" font-size="30.0" fill="#000000" transform="matrix(1.00, 0.00, -0.00, -1.00, 287.2, 26.0)">C</text><text xml:space="preserve" font-family="Cantarell-Bold" font-weight="bold" font-size="30.0" fill="#000000" transform="matrix(1.00, 0.00, -0.00, -1.00, 310.8, 26.0)">T</text><text xml:space="preserve" font-family="Cantarell-Bold" font-weight="bold" font-size="30.0" fill="#000000" transform="matrix(1.00, 0.00, -0.00, -1.00, 330.9, 26.0)">O</text><text xml:space="preserve" font-family="Cantarell-Bold" font-weight="bold" font-size="30.0" fill="#000000" transform="matrix(1.00, 0.00, -0.00, -1.00, 358.0, 26.0)">R</text><text xml:space="preserve" font-family="Cantarell-Bold" font-weight="bold" font-size="30.0" fill="#000000" transform="matrix(1.00, 0.00, -0.00, -1.00, 381.5, 26.0)">Y</text><text xml:space="preserve" font-family="Cantarell-Bold" font-weight="bold" font-size="30.0" fill="#000000" transform="matrix(1.00, 0.00, -0.00, -1.00, 402.4, 26.0)"> </text><text xml:space="preserve" font-family="Cantarell-Bold" font-weight="bold" font-size="30.0" fill="#000000" transform="matrix(1.00, 0.00, -0.00, -1.00, 410.6, 26.0)">S</text><text xml:space="preserve" font-family="Cantarell-Bold" font-weight="bold" font-size="30.0" fill="#000000" transform="matrix(1.00, 0.00, -0.00, -1.00, 432.9, 26.0)">T</text><text xml:space="preserve" font-family="Cantarell-Bold" font-weight="bold" font-size="30.0" fill="#000000" transform="matrix(1.00, 0.00, -0.00, -1.00, 453.0, 26.0)">R</text><text xml:space="preserve" font-family="Cantarell-Bold" font-weight="bold" font-size="30.0" fill="#000000" transform="matrix(1.00, 0.00, -0.00, -1.00, 476.5, 26.0)">U</text><text xml:space="preserve" font-family="Cantarell-Bold" font-weight="bold" font-size="30.0" fill="#000000" transform="matrix(1.00, 0.00, -0.00, -1.00, 501.9, 26.0)">C</text><text xml:space="preserve" font-family="Cantarell-Bold" font-weight="bold" font-size="30.0" fill="#000000" transform="matrix(1.00, 0.00, -0.00, -1.00, 525.6, 26.0)">T</text><text xml:space="preserve" font-family="Cantarell-Bold" font-weight="bold" font-size="30.0" fill="#000000" transform="matrix(1.00, 0.00, -0.00, -1.00, 545.7, 26.0)">U</text><text xml:space="preserve" font-family="Cantarell-Bold" font-weight="bold" font-size="30.0" fill="#000000" transform="matrix(1.00, 0.00, -0.00, -1.00, 571.2, 26.0)">R</text><text xml:space="preserve" font-family="Cantarell-Bold" font-weight="bold" font-size="30.0" fill="#000000" transform="matrix(1.00, 0.00, -0.00, -1.00, 594.6, 26.0)">E</text></g></g><g><clipPath id="clip-728"><path d="M 734.3 1.3 L 1412.4 1.3 L 1412.4 76.8 L 734.3 76.8 Z M 734.3 1.3 "></path></clipPath><g clip-path="url(#clip-728)"><path d="M 737.3 73.8 L 1409.4 73.8 L 1409.4 4.3 L 737.3 4.3 Z M 737.3 73.8 " fill="#009ED8"></path><path d="M 0.0 0.0 L 672.1 0.0 L 672.1 69.5 L 0.0 69.5 Z M 0.0 0.0 " fill="none" stroke="#009ED8" stroke-width="4.00" transform="matrix(1.00, 0.00, 0.00, -1.00, 737.3, 73.8)"></path></g></g><g><clipPath id="clip-729"><path d="M 728.7 5.4 L 1418.1 5.4 L 1418.1 69.5 L 728.7 69.5 Z M 728.7 5.4 "></path></clipPath><g clip-path="url(#clip-729)"><text xml:space="preserve" font-family="Cantarell-Bold" font-weight="bold" font-size="30.0" fill="#000000" transform="matrix(1.00, 0.00, -0.00, -1.00, 813.0, 27.0)">C</text><text xml:space="preserve" font-family="Cantarell-Bold" font-weight="bold" font-size="30.0" fill="#000000" transform="matrix(1.00, 0.00, -0.00, -1.00, 836.6, 27.0)">H</text><text xml:space="preserve" font-family="Cantarell-Bold" font-weight="bold" font-size="30.0" fill="#000000" transform="matrix(1.00, 0.00, -0.00, -1.00, 862.5, 27.0)">E</text><text xml:space="preserve" font-family="Cantarell-Bold" font-weight="bold" font-size="30.0" fill="#000000" transform="matrix(1.00, 0.00, -0.00, -1.00, 883.7, 27.0)">C</text><text xml:space="preserve" font-family="Cantarell-Bold" font-weight="bold" font-size="30.0" fill="#000000" transform="matrix(1.00, 0.00, -0.00, -1.00, 907.3, 27.0)">K</text><text xml:space="preserve" font-family="Cantarell-Bold" font-weight="bold" font-size="30.0" fill="#000000" transform="matrix(1.00, 0.00, -0.00, -1.00, 930.5, 27.0)"> </text><text xml:space="preserve" font-family="Cantarell-Bold" font-weight="bold" font-size="30.0" fill="#000000" transform="matrix(1.00, 0.00, -0.00, -1.00, 938.7, 27.0)">D</text><text xml:space="preserve" font-family="Cantarell-Bold" font-weight="bold" font-size="30.0" fill="#000000" transform="matrix(1.00, 0.00, -0.00, -1.00, 964.6, 27.0)">I</text><text xml:space="preserve" font-family="Cantarell-Bold" font-weight="bold" font-size="30.0" fill="#000000" transform="matrix(1.00, 0.00, -0.00, -1.00, 976.5, 27.0)">R</text><text xml:space="preserve" font-family="Cantarell-Bold" font-weight="bold" font-size="30.0" fill="#000000" transform="matrix(1.00, 0.00, -0.00, -1.00, 1000.0, 27.0)">E</text><text xml:space="preserve" font-family="Cantarell-Bold" font-weight="bold" font-size="30.0" fill="#000000" transform="matrix(1.00, 0.00, -0.00, -1.00, 1021.2, 27.0)">C</text><text xml:space="preserve" font-family="Cantarell-Bold" font-weight="bold" font-size="30.0" fill="#000000" transform="matrix(1.00, 0.00, -0.00, -1.00, 1044.8, 27.0)">T</text><text xml:space="preserve" font-family="Cantarell-Bold" font-weight="bold" font-size="30.0" fill="#000000" transform="matrix(1.00, 0.00, -0.00, -1.00, 1064.9, 27.0)">O</text><text xml:space="preserve" font-family="Cantarell-Bold" font-weight="bold" font-size="30.0" fill="#000000" transform="matrix(1.00, 0.00, -0.00, -1.00, 1092.0, 27.0)">R</text><text xml:space="preserve" font-family="Cantarell-Bold" font-weight="bold" font-size="30.0" fill="#000000" transform="matrix(1.00, 0.00, -0.00, -1.00, 1115.5, 27.0)">Y</text><text xml:space="preserve" font-family="Cantarell-Bold" font-weight="bold" font-size="30.0" fill="#000000" transform="matrix(1.00, 0.00, -0.00, -1.00, 1136.4, 27.0)"> </text><text xml:space="preserve" font-family="Cantarell-Bold" font-weight="bold" font-size="30.0" fill="#000000" transform="matrix(1.00, 0.00, -0.00, -1.00, 1144.6, 27.0)">S</text><text xml:space="preserve" font-family="Cantarell-Bold" font-weight="bold" font-size="30.0" fill="#000000" transform="matrix(1.00, 0.00, -0.00, -1.00, 1166.9, 27.0)">T</text><text xml:space="preserve" font-family="Cantarell-Bold" font-weight="bold" font-size="30.0" fill="#000000" transform="matrix(1.00, 0.00, -0.00, -1.00, 1187.0, 27.0)">R</text><text xml:space="preserve" font-family="Cantarell-Bold" font-weight="bold" font-size="30.0" fill="#000000" transform="matrix(1.00, 0.00, -0.00, -1.00, 1210.5, 27.0)">U</text><text xml:space="preserve" font-family="Cantarell-Bold" font-weight="bold" font-size="30.0" fill="#000000" transform="matrix(1.00, 0.00, -0.00, -1.00, 1235.9, 27.0)">C</text><text xml:space="preserve" font-family="Cantarell-Bold" font-weight="bold" font-size="30.0" fill="#000000" transform="matrix(1.00, 0.00, -0.00, -1.00, 1259.6, 27.0)">T</text><text xml:space="preserve" font-family="Cantarell-Bold" font-weight="bold" font-size="30.0" fill="#000000" transform="matrix(1.00, 0.00, -0.00, -1.00, 1279.7, 27.0)">U</text><text xml:space="preserve" font-family="Cantarell-Bold" font-weight="bold" font-size="30.0" fill="#000000" transform="matrix(1.00, 0.00, -0.00, -1.00, 1305.2, 27.0)">R</text><text xml:space="preserve" font-family="Cantarell-Bold" font-weight="bold" font-size="30.0" fill="#000000" transform="matrix(1.00, 0.00, -0.00, -1.00, 1328.6, 27.0)">E</text></g></g></g></svg>