<?xml version="1.0" encoding="UTF-8" standalone="no"?><svg xmlns="http://www.w3.org/2000/svg" xmlns:xlink="http://www.w3.org/1999/xlink" clip-rule="evenodd" stroke-miterlimit="4.00" viewBox="0 0 1920 1080"><desc>SVG generated by Keynote</desc><defs></defs><g transform="matrix(1.00, 0.00, -0.00, -1.00, 0.0, 1080.0)"><g><clipPath id="clip-514"><path d="M 0.0 1080.0 L 1920.0 1080.0 L 1920.0 0.0 L 0.0 0.0 Z M 0.0 1080.0 "></path></clipPath><g clip-path="url(#clip-514)"><image xlink:href="../../897A5C31-F820-48DE-BEBB-1797AA7F40B4/assets/F2DDC097CA6F4B81B31813A2EE11057D.jpeg" width="1365.00" height="767.00" transform="matrix(1.41, 0.00, -0.00, -1.41, 0.0, 1080.0)"></image></g></g><g><clipPath id="clip-515"><path d="M 1764.6 46.4 L 1833.7 46.4 L 1833.7 115.5 L 1764.6 115.5 Z M 1764.6 46.4 "></path></clipPath><g clip-path="url(#clip-515)"><path d="M 1822.9 104.6 C 1836.0 91.5 1836.0 70.3 1822.9 57.2 C 1809.8 44.1 1788.5 44.1 1775.4 57.2 C 1762.3 70.3 1762.3 91.5 1775.4 104.6 C 1788.5 117.7 1809.8 117.7 1822.9 104.6 " fill="#889AA4"></path></g></g><g><clipPath id="clip-516"><path d="M 1796.8 62.2 L 1778.1 80.9 L 1796.8 99.5 L 1815.5 80.9 Z M 1796.8 62.2 "></path></clipPath><g clip-path="url(#clip-516)"><path d="M 1796.8 63.6 L 1791.8 68.6 L 1804.6 81.3 L 1792.3 93.6 L 1796.8 98.1 L 1814.1 80.9 Z M 1796.8 63.6 " fill="#FEFFFF"></path></g></g><g><clipPath id="clip-517"><path d="M 1679.0 46.4 L 1748.1 46.4 L 1748.1 115.5 L 1679.0 115.5 Z M 1679.0 46.4 "></path></clipPath><g clip-path="url(#clip-517)"><path d="M 1737.3 104.6 C 1750.4 91.5 1750.4 70.3 1737.3 57.2 C 1724.2 44.1 1702.9 44.1 1689.8 57.2 C 1676.7 70.3 1676.7 91.5 1689.8 104.6 C 1702.9 117.7 1724.2 117.7 1737.3 104.6 " fill="#889AA4"></path></g></g><g><clipPath id="clip-518"><path d="M 1714.8 99.5 L 1733.4 80.9 L 1714.8 62.2 L 1696.1 80.9 Z M 1714.8 99.5 "></path></clipPath><g clip-path="url(#clip-518)"><path d="M 1714.8 98.1 L 1719.7 93.2 L 1707.0 80.4 L 1719.3 68.1 L 1714.8 63.6 L 1697.5 80.9 Z M 1714.8 98.1 " fill="#FEFFFF"></path></g></g></g></svg>